<svg width="55" height="55" viewBox="0 0 55 55" fill="none" xmlns="http://www.w3.org/2000/svg">
<g id="logo 1">
<path id="Vector" d="M14.7256 25.5439L13.6953 27.7384H13.9406L14.235 27.1398H15.4125L15.6578 27.7384H15.9031L14.9219 25.5439H14.7256ZM14.8238 25.7933L15.3144 26.9404H14.2841L14.8238 25.7933Z" fill="black"/>
<path id="Vector_2" d="M14.7256 25.5439L13.6953 27.7384H13.9406L14.235 27.1398H15.4125L15.6578 27.7384H15.9031L14.9219 25.5439H14.7256ZM14.8238 25.7933L15.3144 26.9404H14.2841L14.8238 25.7933Z" fill="black"/>
<path id="Vector_3" d="M14.7256 25.5439L13.6953 27.7384H13.9406L14.235 27.1398H15.4125L15.6578 27.7384H15.9031L14.9219 25.5439H14.7256ZM14.8238 25.7933L15.3144 26.9404H14.2841L14.8238 25.7933Z" fill="url(#paint0_linear_1081_2018)"/>
<path id="Vector_4" d="M16.2462 25.543V27.7374H17.718V27.5379H16.4915V25.543H16.2462Z" fill="black"/>
<path id="Vector_5" d="M16.2462 25.543V27.7374H17.718V27.5379H16.4915V25.543H16.2462Z" fill="black"/>
<path id="Vector_6" d="M16.2462 25.543V27.7374H17.718V27.5379H16.4915V25.543H16.2462Z" fill="url(#paint1_linear_1081_2018)"/>
<path id="Vector_7" d="M17.7129 25.543V25.7424H18.4979V27.7374H18.6941V25.7424H19.4791V25.543H17.7129Z" fill="black"/>
<path id="Vector_8" d="M17.7129 25.543V25.7424H18.4979V27.7374H18.6941V25.7424H19.4791V25.543H17.7129Z" fill="black"/>
<path id="Vector_9" d="M17.7129 25.543V25.7424H18.4979V27.7374H18.6941V25.7424H19.4791V25.543H17.7129Z" fill="url(#paint2_linear_1081_2018)"/>
<path id="Vector_10" d="M20.4578 25.5439L19.4766 27.7384H19.7219L19.9672 27.1398H21.1937L21.439 27.7384H21.6843L20.7031 25.5439H20.4578ZM20.605 25.7933L21.0956 26.9404H20.0653L20.605 25.7933Z" fill="black"/>
<path id="Vector_11" d="M20.4578 25.5439L19.4766 27.7384H19.7219L19.9672 27.1398H21.1937L21.439 27.7384H21.6843L20.7031 25.5439H20.4578ZM20.605 25.7933L21.0956 26.9404H20.0653L20.605 25.7933Z" fill="black"/>
<path id="Vector_12" d="M20.4578 25.5439L19.4766 27.7384H19.7219L19.9672 27.1398H21.1937L21.439 27.7384H21.6843L20.7031 25.5439H20.4578ZM20.605 25.7933L21.0956 26.9404H20.0653L20.605 25.7933Z" fill="url(#paint3_linear_1081_2018)"/>
<path id="Vector_13" d="M23.4066 25.543L22.6707 26.7897L21.9348 25.543H21.6895L22.5725 26.9893V27.7374H22.7688V26.9893L23.6519 25.543H23.4066Z" fill="black"/>
<path id="Vector_14" d="M23.4066 25.543L22.6707 26.7897L21.9348 25.543H21.6895L22.5725 26.9893V27.7374H22.7688V26.9893L23.6519 25.543H23.4066Z" fill="black"/>
<path id="Vector_15" d="M23.4066 25.543L22.6707 26.7897L21.9348 25.543H21.6895L22.5725 26.9893V27.7374H22.7688V26.9893L23.6519 25.543H23.4066Z" fill="url(#paint4_linear_1081_2018)"/>
<path id="Vector_16" d="M26.3529 25.543L25.5188 27.4381L24.6848 25.543H24.4395L25.4207 27.7374H25.6169L26.5982 25.543H26.3529Z" fill="black"/>
<path id="Vector_17" d="M26.3529 25.543L25.5188 27.4381L24.6848 25.543H24.4395L25.4207 27.7374H25.6169L26.5982 25.543H26.3529Z" fill="black"/>
<path id="Vector_18" d="M26.3529 25.543L25.5188 27.4381L24.6848 25.543H24.4395L25.4207 27.7374H25.6169L26.5982 25.543H26.3529Z" fill="url(#paint5_linear_1081_2018)"/>
<path id="Vector_19" d="M27.5273 25.543V25.7424H28.3123V27.7374H28.5085V25.7424H29.2935V25.543H27.5273Z" fill="black"/>
<path id="Vector_20" d="M27.5273 25.543V25.7424H28.3123V27.7374H28.5085V25.7424H29.2935V25.543H27.5273Z" fill="black"/>
<path id="Vector_21" d="M27.5273 25.543V25.7424H28.3123V27.7374H28.5085V25.7424H29.2935V25.543H27.5273Z" fill="url(#paint6_linear_1081_2018)"/>
<path id="Vector_22" d="M30.2722 25.5439L29.291 27.7384H29.5363L29.7816 27.1398H31.0081L31.2535 27.7384H31.4988L30.5175 25.5439H30.2722ZM30.3703 25.7933L30.91 26.9404H29.8797L30.3703 25.7933Z" fill="black"/>
<path id="Vector_23" d="M30.2722 25.5439L29.291 27.7384H29.5363L29.7816 27.1398H31.0081L31.2535 27.7384H31.4988L30.5175 25.5439H30.2722ZM30.3703 25.7933L30.91 26.9404H29.8797L30.3703 25.7933Z" fill="black"/>
<path id="Vector_24" d="M30.2722 25.5439L29.291 27.7384H29.5363L29.7816 27.1398H31.0081L31.2535 27.7384H31.4988L30.5175 25.5439H30.2722ZM30.3703 25.7933L30.91 26.9404H29.8797L30.3703 25.7933Z" fill="url(#paint7_linear_1081_2018)"/>
<path id="Vector_25" d="M33.9044 25.543L32.9723 27.1389L32.0401 25.543H31.8439V27.7374H32.0401V25.9918L32.9232 27.4381H33.0214L33.8554 25.9918V27.7374H34.0516V25.543H33.9044Z" fill="black"/>
<path id="Vector_26" d="M33.9044 25.543L32.9723 27.1389L32.0401 25.543H31.8439V27.7374H32.0401V25.9918L32.9232 27.4381H33.0214L33.8554 25.9918V27.7374H34.0516V25.543H33.9044Z" fill="black"/>
<path id="Vector_27" d="M33.9044 25.543L32.9723 27.1389L32.0401 25.543H31.8439V27.7374H32.0401V25.9918L32.9232 27.4381H33.0214L33.8554 25.9918V27.7374H34.0516V25.543H33.9044Z" fill="url(#paint8_linear_1081_2018)"/>
<path id="Vector_28" d="M35.0283 27.7501H34.7832V25.6055H35.0283V27.7501Z" fill="black"/>
<path id="Vector_29" d="M35.0283 27.7501H34.7832V25.6055H35.0283V27.7501Z" fill="black"/>
<path id="Vector_30" d="M35.0283 27.7501H34.7832V25.6055H35.0283V27.7501Z" fill="url(#paint9_linear_1081_2018)"/>
<path id="Vector_31" d="M27.0889 27.7501H26.8438V25.6055H27.0889V27.7501Z" fill="black"/>
<path id="Vector_32" d="M27.0889 27.7501H26.8438V25.6055H27.0889V27.7501Z" fill="black"/>
<path id="Vector_33" d="M27.0889 27.7501H26.8438V25.6055H27.0889V27.7501Z" fill="url(#paint10_linear_1081_2018)"/>
<path id="Vector_34" d="M37.2868 25.543V27.3384L35.864 25.543H35.7168V27.7374H35.913V25.9419L37.2868 27.7374H37.483V25.543H37.2868Z" fill="black"/>
<path id="Vector_35" d="M37.2868 25.543V27.3384L35.864 25.543H35.7168V27.7374H35.913V25.9419L37.2868 27.7374H37.483V25.543H37.2868Z" fill="black"/>
<path id="Vector_36" d="M37.2868 25.543V27.3384L35.864 25.543H35.7168V27.7374H35.913V25.9419L37.2868 27.7374H37.483V25.543H37.2868Z" fill="url(#paint11_linear_1081_2018)"/>
<path id="Vector_37" d="M13.06 30.1816L7.41797 42.1512C7.56509 42.4006 7.71229 42.6001 7.85948 42.7996L8.84075 43.4978L10.2635 40.4057H18.6039L20.0758 43.5975H22.1364L15.8075 30.1816H13.06ZM14.4338 31.3287L17.868 38.8596H10.9994L14.4338 31.3287Z" fill="black"/>
<path id="Vector_38" d="M13.06 30.1816L7.41797 42.1512C7.56509 42.4006 7.71229 42.6001 7.85948 42.7996L8.84075 43.4978L10.2635 40.4057H18.6039L20.0758 43.5975H22.1364L15.8075 30.1816H13.06ZM14.4338 31.3287L17.868 38.8596H10.9994L14.4338 31.3287Z" fill="black"/>
<path id="Vector_39" d="M13.06 30.1816L7.41797 42.1512C7.56509 42.4006 7.71229 42.6001 7.85948 42.7996L8.84075 43.4978L10.2635 40.4057H18.6039L20.0758 43.5975H22.1364L15.8075 30.1816H13.06ZM14.4338 31.3287L17.868 38.8596H10.9994L14.4338 31.3287Z" fill="url(#paint12_linear_1081_2018)"/>
<path id="Vector_40" d="M32.0895 30.1816L26.6437 42.1014L21.0998 30.1816H19.0392L25.4171 43.5975H27.8212L34.1992 30.1816H32.0895Z" fill="black"/>
<path id="Vector_41" d="M32.0895 30.1816L26.6437 42.1014L21.0998 30.1816H19.0392L25.4171 43.5975H27.8212L34.1992 30.1816H32.0895Z" fill="black"/>
<path id="Vector_42" d="M32.0895 30.1816L26.6437 42.1014L21.0998 30.1816H19.0392L25.4171 43.5975H27.8212L34.1992 30.1816H32.0895Z" fill="url(#paint13_linear_1081_2018)"/>
<path id="Vector_43" d="M35.3821 30.1816V43.5975H46.2737L47.5984 41.9019H37.3445V30.1816H35.3821Z" fill="black"/>
<path id="Vector_44" d="M35.3821 30.1816V43.5975H46.2737L47.5984 41.9019H37.3445V30.1816H35.3821Z" fill="black"/>
<path id="Vector_45" d="M35.3821 30.1816V43.5975H46.2737L47.5984 41.9019H37.3445V30.1816H35.3821Z" fill="url(#paint14_linear_1081_2018)"/>
<path id="Vector_46" d="M13.6443 6.72841C6.187 11.7656 2.26208 20.2441 2.55645 28.7225C3.3905 41.9888 14.184 52.4621 27.4306 52.4621C37.7826 52.4621 46.7118 45.9786 50.4404 36.802C50.931 35.5053 51.3235 34.1587 51.6179 32.7622V32.6625C49.5083 39.3953 45.6815 45.3802 39.4998 49.0707C34.4464 52.0632 28.2646 53.1105 22.4754 51.9136C12.6141 49.8687 4.9114 41.2407 4.17548 31.0166C3.43956 21.3912 9.13069 14.0099 17.373 9.87045C25.2719 5.93045 34.5936 5.8307 42.934 8.57369C37.6354 4.03526 28.8534 4.534 22.6226 6.3793C18.5015 7.57627 14.2331 9.67094 11.0441 12.6134C9.08161 14.4588 3.88111 19.5957 3.09612 29.8696C2.31114 14.3092 14.6256 6.08007 27.725 4.23475C29.8346 3.93551 32.0424 3.5864 34.2502 3.53653C33.269 3.28717 32.3368 3.08767 31.3555 2.93805L31.2084 2.88818V2.8383C29.8837 2.63881 28.6081 2.53906 27.2834 2.53906C22.4754 2.53906 17.7165 3.98538 13.6443 6.72841ZM17.6674 10.5687C12.6631 13.0623 8.19851 17.2517 6.23606 22.6879C6.187 22.8375 6.13794 22.9871 6.03981 23.1367C10.1119 16.0048 14.4784 12.4139 22.7207 10.3193C30.0309 8.474 37.7335 9.62103 44.504 12.763C45.6815 13.3117 46.8099 13.9101 47.9384 14.5585C44.0624 9.67094 37.5373 7.62611 30.963 7.62611C26.2041 7.62611 21.4451 8.72336 17.6674 10.5687ZM22.917 11.0674C17.5693 12.4139 12.2706 15.5559 9.2288 20.3438C14.4784 14.9575 19.3355 12.5636 27.1853 12.1147C35.6729 11.616 43.6699 15.0572 50.2442 20.3438C50.3423 20.3937 50.4404 20.4934 50.4404 20.4934C48.2327 14.9076 41.0207 12.0649 35.6729 11.0175C33.5633 10.6185 31.2574 10.3692 29.0006 10.3692C26.891 10.3692 24.8304 10.5687 22.917 11.0674ZM27.2344 12.8628C21.9848 13.1621 16.4899 15.1071 12.614 18.8476C15.2143 17.2517 17.8146 15.9051 20.8073 15.157C24.6341 14.1595 28.559 14.3092 32.484 15.0074C39.4507 16.3539 45.5834 20.2939 50.6367 25.2812C50.3423 24.2838 49.9498 23.3362 49.4592 22.4883C47.4968 19.1468 44.0134 16.9025 40.5301 15.4563C37.0467 13.96 32.2877 12.813 28.3137 12.813C27.9212 12.813 27.5778 12.813 27.2344 12.8628ZM16.1955 18.3988C22.5735 16.2043 27.0872 15.955 34.0539 18.1992C40.1866 20.1942 45.3871 24.2838 49.6555 29.0716C50.882 22.9372 36.8504 16.6532 32.3368 15.8054C30.7668 15.5061 29.1968 15.3565 27.6269 15.3565C23.6038 15.3565 19.5808 16.3041 16.1955 18.3988ZM19.5808 18.8975C25.2229 18.1992 29.344 18.7977 34.8389 21.2914C39.9904 23.5855 44.3078 27.4757 47.8402 31.8645C49.9989 27.1764 37.0957 19.9947 33.8086 18.9474C31.4537 18.1494 28.9515 17.7504 26.4494 17.7504C24.0944 17.7504 21.7885 18.0995 19.5808 18.8975Z" fill="black"/>
<path id="Vector_47" d="M13.6443 6.72841C6.187 11.7656 2.26208 20.2441 2.55645 28.7225C3.3905 41.9888 14.184 52.4621 27.4306 52.4621C37.7826 52.4621 46.7118 45.9786 50.4404 36.802C50.931 35.5053 51.3235 34.1587 51.6179 32.7622V32.6625C49.5083 39.3953 45.6815 45.3802 39.4998 49.0707C34.4464 52.0632 28.2646 53.1105 22.4754 51.9136C12.6141 49.8687 4.9114 41.2407 4.17548 31.0166C3.43956 21.3912 9.13069 14.0099 17.373 9.87045C25.2719 5.93045 34.5936 5.8307 42.934 8.57369C37.6354 4.03526 28.8534 4.534 22.6226 6.3793C18.5015 7.57627 14.2331 9.67094 11.0441 12.6134C9.08161 14.4588 3.88111 19.5957 3.09612 29.8696C2.31114 14.3092 14.6256 6.08007 27.725 4.23475C29.8346 3.93551 32.0424 3.5864 34.2502 3.53653C33.269 3.28717 32.3368 3.08767 31.3555 2.93805L31.2084 2.88818V2.8383C29.8837 2.63881 28.6081 2.53906 27.2834 2.53906C22.4754 2.53906 17.7165 3.98538 13.6443 6.72841ZM17.6674 10.5687C12.6631 13.0623 8.19851 17.2517 6.23606 22.6879C6.187 22.8375 6.13794 22.9871 6.03981 23.1367C10.1119 16.0048 14.4784 12.4139 22.7207 10.3193C30.0309 8.474 37.7335 9.62103 44.504 12.763C45.6815 13.3117 46.8099 13.9101 47.9384 14.5585C44.0624 9.67094 37.5373 7.62611 30.963 7.62611C26.2041 7.62611 21.4451 8.72336 17.6674 10.5687ZM22.917 11.0674C17.5693 12.4139 12.2706 15.5559 9.2288 20.3438C14.4784 14.9575 19.3355 12.5636 27.1853 12.1147C35.6729 11.616 43.6699 15.0572 50.2442 20.3438C50.3423 20.3937 50.4404 20.4934 50.4404 20.4934C48.2327 14.9076 41.0207 12.0649 35.6729 11.0175C33.5633 10.6185 31.2574 10.3692 29.0006 10.3692C26.891 10.3692 24.8304 10.5687 22.917 11.0674ZM27.2344 12.8628C21.9848 13.1621 16.4899 15.1071 12.614 18.8476C15.2143 17.2517 17.8146 15.9051 20.8073 15.157C24.6341 14.1595 28.559 14.3092 32.484 15.0074C39.4507 16.3539 45.5834 20.2939 50.6367 25.2812C50.3423 24.2838 49.9498 23.3362 49.4592 22.4883C47.4968 19.1468 44.0134 16.9025 40.5301 15.4563C37.0467 13.96 32.2877 12.813 28.3137 12.813C27.9212 12.813 27.5778 12.813 27.2344 12.8628ZM16.1955 18.3988C22.5735 16.2043 27.0872 15.955 34.0539 18.1992C40.1866 20.1942 45.3871 24.2838 49.6555 29.0716C50.882 22.9372 36.8504 16.6532 32.3368 15.8054C30.7668 15.5061 29.1968 15.3565 27.6269 15.3565C23.6038 15.3565 19.5808 16.3041 16.1955 18.3988ZM19.5808 18.8975C25.2229 18.1992 29.344 18.7977 34.8389 21.2914C39.9904 23.5855 44.3078 27.4757 47.8402 31.8645C49.9989 27.1764 37.0957 19.9947 33.8086 18.9474C31.4537 18.1494 28.9515 17.7504 26.4494 17.7504C24.0944 17.7504 21.7885 18.0995 19.5808 18.8975Z" fill="black"/>
<path id="Vector_48" d="M13.6443 6.72841C6.187 11.7656 2.26208 20.2441 2.55645 28.7225C3.3905 41.9888 14.184 52.4621 27.4306 52.4621C37.7826 52.4621 46.7118 45.9786 50.4404 36.802C50.931 35.5053 51.3235 34.1587 51.6179 32.7622V32.6625C49.5083 39.3953 45.6815 45.3802 39.4998 49.0707C34.4464 52.0632 28.2646 53.1105 22.4754 51.9136C12.6141 49.8687 4.9114 41.2407 4.17548 31.0166C3.43956 21.3912 9.13069 14.0099 17.373 9.87045C25.2719 5.93045 34.5936 5.8307 42.934 8.57369C37.6354 4.03526 28.8534 4.534 22.6226 6.3793C18.5015 7.57627 14.2331 9.67094 11.0441 12.6134C9.08161 14.4588 3.88111 19.5957 3.09612 29.8696C2.31114 14.3092 14.6256 6.08007 27.725 4.23475C29.8346 3.93551 32.0424 3.5864 34.2502 3.53653C33.269 3.28717 32.3368 3.08767 31.3555 2.93805L31.2084 2.88818V2.8383C29.8837 2.63881 28.6081 2.53906 27.2834 2.53906C22.4754 2.53906 17.7165 3.98538 13.6443 6.72841ZM17.6674 10.5687C12.6631 13.0623 8.19851 17.2517 6.23606 22.6879C6.187 22.8375 6.13794 22.9871 6.03981 23.1367C10.1119 16.0048 14.4784 12.4139 22.7207 10.3193C30.0309 8.474 37.7335 9.62103 44.504 12.763C45.6815 13.3117 46.8099 13.9101 47.9384 14.5585C44.0624 9.67094 37.5373 7.62611 30.963 7.62611C26.2041 7.62611 21.4451 8.72336 17.6674 10.5687ZM22.917 11.0674C17.5693 12.4139 12.2706 15.5559 9.2288 20.3438C14.4784 14.9575 19.3355 12.5636 27.1853 12.1147C35.6729 11.616 43.6699 15.0572 50.2442 20.3438C50.3423 20.3937 50.4404 20.4934 50.4404 20.4934C48.2327 14.9076 41.0207 12.0649 35.6729 11.0175C33.5633 10.6185 31.2574 10.3692 29.0006 10.3692C26.891 10.3692 24.8304 10.5687 22.917 11.0674ZM27.2344 12.8628C21.9848 13.1621 16.4899 15.1071 12.614 18.8476C15.2143 17.2517 17.8146 15.9051 20.8073 15.157C24.6341 14.1595 28.559 14.3092 32.484 15.0074C39.4507 16.3539 45.5834 20.2939 50.6367 25.2812C50.3423 24.2838 49.9498 23.3362 49.4592 22.4883C47.4968 19.1468 44.0134 16.9025 40.5301 15.4563C37.0467 13.96 32.2877 12.813 28.3137 12.813C27.9212 12.813 27.5778 12.813 27.2344 12.8628ZM16.1955 18.3988C22.5735 16.2043 27.0872 15.955 34.0539 18.1992C40.1866 20.1942 45.3871 24.2838 49.6555 29.0716C50.882 22.9372 36.8504 16.6532 32.3368 15.8054C30.7668 15.5061 29.1968 15.3565 27.6269 15.3565C23.6038 15.3565 19.5808 16.3041 16.1955 18.3988ZM19.5808 18.8975C25.2229 18.1992 29.344 18.7977 34.8389 21.2914C39.9904 23.5855 44.3078 27.4757 47.8402 31.8645C49.9989 27.1764 37.0957 19.9947 33.8086 18.9474C31.4537 18.1494 28.9515 17.7504 26.4494 17.7504C24.0944 17.7504 21.7885 18.0995 19.5808 18.8975Z" fill="url(#paint15_linear_1081_2018)"/>
</g>
<defs>
<linearGradient id="paint0_linear_1081_2018" x1="13.6953" y1="26.6411" x2="15.9031" y2="26.6411" gradientUnits="userSpaceOnUse">
<stop stop-color="#896B35"/>
<stop offset="0.22" stop-color="#A17E48"/>
<stop offset="0.435" stop-color="#C09962"/>
<stop offset="0.566343" stop-color="#DFC28C"/>
<stop offset="0.67" stop-color="#E6CFA3"/>
<stop offset="0.766667" stop-color="#DDC089"/>
<stop offset="0.886667" stop-color="#C09962"/>
<stop offset="1" stop-color="#8C6D37"/>
</linearGradient>
<linearGradient id="paint1_linear_1081_2018" x1="16.2462" y1="26.6401" x2="17.718" y2="26.6401" gradientUnits="userSpaceOnUse">
<stop stop-color="#896B35"/>
<stop offset="0.22" stop-color="#A17E48"/>
<stop offset="0.435" stop-color="#C09962"/>
<stop offset="0.566343" stop-color="#DFC28C"/>
<stop offset="0.67" stop-color="#E6CFA3"/>
<stop offset="0.766667" stop-color="#DDC089"/>
<stop offset="0.886667" stop-color="#C09962"/>
<stop offset="1" stop-color="#8C6D37"/>
</linearGradient>
<linearGradient id="paint2_linear_1081_2018" x1="17.7129" y1="26.6401" x2="19.4791" y2="26.6401" gradientUnits="userSpaceOnUse">
<stop stop-color="#896B35"/>
<stop offset="0.22" stop-color="#A17E48"/>
<stop offset="0.435" stop-color="#C09962"/>
<stop offset="0.566343" stop-color="#DFC28C"/>
<stop offset="0.67" stop-color="#E6CFA3"/>
<stop offset="0.766667" stop-color="#DDC089"/>
<stop offset="0.886667" stop-color="#C09962"/>
<stop offset="1" stop-color="#8C6D37"/>
</linearGradient>
<linearGradient id="paint3_linear_1081_2018" x1="19.4766" y1="26.6411" x2="21.6843" y2="26.6411" gradientUnits="userSpaceOnUse">
<stop stop-color="#896B35"/>
<stop offset="0.22" stop-color="#A17E48"/>
<stop offset="0.435" stop-color="#C09962"/>
<stop offset="0.566343" stop-color="#DFC28C"/>
<stop offset="0.67" stop-color="#E6CFA3"/>
<stop offset="0.766667" stop-color="#DDC089"/>
<stop offset="0.886667" stop-color="#C09962"/>
<stop offset="1" stop-color="#8C6D37"/>
</linearGradient>
<linearGradient id="paint4_linear_1081_2018" x1="21.6895" y1="26.6401" x2="23.6519" y2="26.6401" gradientUnits="userSpaceOnUse">
<stop stop-color="#896B35"/>
<stop offset="0.22" stop-color="#A17E48"/>
<stop offset="0.435" stop-color="#C09962"/>
<stop offset="0.566343" stop-color="#DFC28C"/>
<stop offset="0.67" stop-color="#E6CFA3"/>
<stop offset="0.766667" stop-color="#DDC089"/>
<stop offset="0.886667" stop-color="#C09962"/>
<stop offset="1" stop-color="#8C6D37"/>
</linearGradient>
<linearGradient id="paint5_linear_1081_2018" x1="24.4395" y1="26.6401" x2="26.5982" y2="26.6401" gradientUnits="userSpaceOnUse">
<stop stop-color="#896B35"/>
<stop offset="0.22" stop-color="#A17E48"/>
<stop offset="0.435" stop-color="#C09962"/>
<stop offset="0.566343" stop-color="#DFC28C"/>
<stop offset="0.67" stop-color="#E6CFA3"/>
<stop offset="0.766667" stop-color="#DDC089"/>
<stop offset="0.886667" stop-color="#C09962"/>
<stop offset="1" stop-color="#8C6D37"/>
</linearGradient>
<linearGradient id="paint6_linear_1081_2018" x1="27.5273" y1="26.6401" x2="29.2935" y2="26.6401" gradientUnits="userSpaceOnUse">
<stop stop-color="#896B35"/>
<stop offset="0.22" stop-color="#A17E48"/>
<stop offset="0.435" stop-color="#C09962"/>
<stop offset="0.566343" stop-color="#DFC28C"/>
<stop offset="0.67" stop-color="#E6CFA3"/>
<stop offset="0.766667" stop-color="#DDC089"/>
<stop offset="0.886667" stop-color="#C09962"/>
<stop offset="1" stop-color="#8C6D37"/>
</linearGradient>
<linearGradient id="paint7_linear_1081_2018" x1="29.291" y1="26.6411" x2="31.4988" y2="26.6411" gradientUnits="userSpaceOnUse">
<stop stop-color="#896B35"/>
<stop offset="0.22" stop-color="#A17E48"/>
<stop offset="0.435" stop-color="#C09962"/>
<stop offset="0.566343" stop-color="#DFC28C"/>
<stop offset="0.67" stop-color="#E6CFA3"/>
<stop offset="0.766667" stop-color="#DDC089"/>
<stop offset="0.886667" stop-color="#C09962"/>
<stop offset="1" stop-color="#8C6D37"/>
</linearGradient>
<linearGradient id="paint8_linear_1081_2018" x1="31.8439" y1="26.6401" x2="34.0516" y2="26.6401" gradientUnits="userSpaceOnUse">
<stop stop-color="#896B35"/>
<stop offset="0.22" stop-color="#A17E48"/>
<stop offset="0.435" stop-color="#C09962"/>
<stop offset="0.566343" stop-color="#DFC28C"/>
<stop offset="0.67" stop-color="#E6CFA3"/>
<stop offset="0.766667" stop-color="#DDC089"/>
<stop offset="0.886667" stop-color="#C09962"/>
<stop offset="1" stop-color="#8C6D37"/>
</linearGradient>
<linearGradient id="paint9_linear_1081_2018" x1="34.7832" y1="26.6778" x2="35.0283" y2="26.6778" gradientUnits="userSpaceOnUse">
<stop stop-color="#896B35"/>
<stop offset="0.22" stop-color="#A17E48"/>
<stop offset="0.435" stop-color="#C09962"/>
<stop offset="0.566343" stop-color="#DFC28C"/>
<stop offset="0.67" stop-color="#E6CFA3"/>
<stop offset="0.766667" stop-color="#DDC089"/>
<stop offset="0.886667" stop-color="#C09962"/>
<stop offset="1" stop-color="#8C6D37"/>
</linearGradient>
<linearGradient id="paint10_linear_1081_2018" x1="26.8438" y1="26.6778" x2="27.0889" y2="26.6778" gradientUnits="userSpaceOnUse">
<stop stop-color="#896B35"/>
<stop offset="0.22" stop-color="#A17E48"/>
<stop offset="0.435" stop-color="#C09962"/>
<stop offset="0.566343" stop-color="#DFC28C"/>
<stop offset="0.67" stop-color="#E6CFA3"/>
<stop offset="0.766667" stop-color="#DDC089"/>
<stop offset="0.886667" stop-color="#C09962"/>
<stop offset="1" stop-color="#8C6D37"/>
</linearGradient>
<linearGradient id="paint11_linear_1081_2018" x1="35.7168" y1="26.6401" x2="37.483" y2="26.6401" gradientUnits="userSpaceOnUse">
<stop stop-color="#896B35"/>
<stop offset="0.22" stop-color="#A17E48"/>
<stop offset="0.435" stop-color="#C09962"/>
<stop offset="0.566343" stop-color="#DFC28C"/>
<stop offset="0.67" stop-color="#E6CFA3"/>
<stop offset="0.766667" stop-color="#DDC089"/>
<stop offset="0.886667" stop-color="#C09962"/>
<stop offset="1" stop-color="#8C6D37"/>
</linearGradient>
<linearGradient id="paint12_linear_1081_2018" x1="7.41797" y1="36.8896" x2="22.1364" y2="36.8896" gradientUnits="userSpaceOnUse">
<stop stop-color="#896B35"/>
<stop offset="0.22" stop-color="#A17E48"/>
<stop offset="0.435" stop-color="#C09962"/>
<stop offset="0.566343" stop-color="#DFC28C"/>
<stop offset="0.67" stop-color="#E6CFA3"/>
<stop offset="0.766667" stop-color="#DDC089"/>
<stop offset="0.886667" stop-color="#C09962"/>
<stop offset="1" stop-color="#8C6D37"/>
</linearGradient>
<linearGradient id="paint13_linear_1081_2018" x1="19.0392" y1="36.8896" x2="34.1992" y2="36.8896" gradientUnits="userSpaceOnUse">
<stop stop-color="#896B35"/>
<stop offset="0.22" stop-color="#A17E48"/>
<stop offset="0.435" stop-color="#C09962"/>
<stop offset="0.566343" stop-color="#DFC28C"/>
<stop offset="0.67" stop-color="#E6CFA3"/>
<stop offset="0.766667" stop-color="#DDC089"/>
<stop offset="0.886667" stop-color="#C09962"/>
<stop offset="1" stop-color="#8C6D37"/>
</linearGradient>
<linearGradient id="paint14_linear_1081_2018" x1="35.3821" y1="36.8896" x2="47.5984" y2="36.8896" gradientUnits="userSpaceOnUse">
<stop stop-color="#896B35"/>
<stop offset="0.22" stop-color="#A17E48"/>
<stop offset="0.435" stop-color="#C09962"/>
<stop offset="0.566343" stop-color="#DFC28C"/>
<stop offset="0.67" stop-color="#E6CFA3"/>
<stop offset="0.766667" stop-color="#DDC089"/>
<stop offset="0.886667" stop-color="#C09962"/>
<stop offset="1" stop-color="#8C6D37"/>
</linearGradient>
<linearGradient id="paint15_linear_1081_2018" x1="2.54101" y1="27.5006" x2="51.6179" y2="27.5006" gradientUnits="userSpaceOnUse">
<stop stop-color="#896B35"/>
<stop offset="0.22" stop-color="#A17E48"/>
<stop offset="0.435" stop-color="#C09962"/>
<stop offset="0.566343" stop-color="#DFC28C"/>
<stop offset="0.67" stop-color="#E6CFA3"/>
<stop offset="0.766667" stop-color="#DDC089"/>
<stop offset="0.886667" stop-color="#C09962"/>
<stop offset="1" stop-color="#8C6D37"/>
</linearGradient>
</defs>
</svg>
