<svg width="130" height="130" viewBox="0 0 130 130" fill="none" xmlns="http://www.w3.org/2000/svg">
<g id="_x3C_Layer_x3E_">
<g id="medicines_x2C__tablets_x2C__vitamins_1_">
<g id="Group">
<path id="Vector" d="M105.739 45.3092C105.219 45.3092 104.699 45.1102 104.301 44.7161C103.509 43.9239 103.509 42.6361 104.301 41.8439L110.399 35.7461C114.847 31.2936 114.847 24.0542 110.399 19.5977C109.607 18.8055 109.607 17.5177 110.399 16.7255C111.191 15.9333 112.479 15.9333 113.271 16.7255C119.304 22.7624 119.304 32.5814 113.271 38.6183L107.173 44.7161C106.779 45.1102 106.259 45.3092 105.739 45.3092Z" fill="#CED8D2"/>
</g>
<g id="XMLID_1098_">
<g id="XMLID_1131_">
<g id="XMLID_1169_">
<path id="Vector_2" d="M77.2832 82.3308C76.8688 82.3308 76.4666 82.2049 76.1253 81.9693C75.6825 81.6605 75.3778 81.1893 75.2844 80.6611L73.8463 72.6621C73.7528 72.134 73.8707 71.5855 74.1794 71.1427C74.4841 70.6999 74.9553 70.3993 75.4875 70.3018L81.4878 69.2252C84.811 68.6402 87.9757 70.8827 88.5607 74.1449C88.8491 75.7455 88.4916 77.3624 87.5653 78.699C86.635 80.0396 85.2416 80.9333 83.6369 81.2218L77.6407 82.3024C77.5269 82.3186 77.405 82.3308 77.2832 82.3308ZM78.2094 73.9499L78.9244 77.9393L82.9219 77.2202C83.4582 77.1268 83.9213 76.8261 84.23 76.3793C84.5428 75.9324 84.6566 75.3921 84.5632 74.8599C84.3885 73.893 83.5516 73.1861 82.5725 73.1861L78.2094 73.9499Z" fill="#CED8D2"/>
</g>
<g id="XMLID_1162_">
<path id="Vector_3" d="M78.7208 90.3255C77.7579 90.3255 76.9048 89.639 76.7261 88.6559L75.2879 80.6609C75.1945 80.1287 75.3123 79.5843 75.6211 79.1415C75.9257 78.6987 76.397 78.394 76.9251 78.3005L84.9242 76.8624C88.3164 76.2693 91.4161 78.524 92.0011 81.7821C92.2895 83.3827 91.932 84.9996 91.0057 86.3362C90.0754 87.6768 88.682 88.5705 87.0773 88.859L79.0864 90.2971C78.9645 90.3134 78.8386 90.3255 78.7208 90.3255ZM79.6429 81.9446L80.362 85.934L86.3582 84.8534C86.8945 84.7599 87.3576 84.4593 87.6664 84.0124C87.9792 83.5655 88.0929 83.0252 87.9995 82.493C87.8248 81.5262 86.9879 80.8193 86.0048 80.8193L79.6429 81.9446Z" fill="#CED8D2"/>
</g>
<g id="XMLID_1159_">
<path id="Vector_4" d="M67.111 65.9587C66.9728 65.9587 66.8307 65.9466 66.6885 65.9141L56.7516 63.8259C55.6507 63.5944 54.9519 62.5178 55.1794 61.4209C55.415 60.3241 56.5038 59.6294 57.5844 59.8528L67.5213 61.9409C68.6222 62.1725 69.321 63.249 69.0935 64.3459C68.8903 65.3006 68.0494 65.9587 67.111 65.9587Z" fill="#CED8D2"/>
</g>
<g id="XMLID_1156_">
<path id="Vector_5" d="M67.2643 70.1429C66.1755 70.1429 65.2777 69.2858 65.233 68.1889L64.5993 51.4514C64.5586 50.3301 65.4321 49.3876 66.5533 49.3429C67.6827 49.2983 68.6171 50.1758 68.6618 51.2929L69.2955 68.0304C69.3361 69.1517 68.4627 70.0942 67.3415 70.1389C67.313 70.1429 67.2886 70.1429 67.2643 70.1429Z" fill="#CED8D2"/>
</g>
<g id="XMLID_1154_">
<path id="Vector_6" d="M55.3353 67.6361C55.0387 67.6361 54.7341 67.5711 54.4456 67.433C53.4381 66.9414 53.0156 65.7267 53.5072 64.7192L60.8237 49.6514C61.3153 48.6439 62.5341 48.2214 63.5416 48.713C64.5491 49.2046 64.9716 50.4192 64.48 51.4267L57.1634 66.4946C56.81 67.2136 56.0909 67.6361 55.3353 67.6361Z" fill="#CED8D2"/>
</g>
<g id="XMLID_1152_">
<path id="Vector_7" d="M66.6305 53.4056C66.4924 53.4056 66.3502 53.3934 66.208 53.3609L62.2308 52.524C61.1299 52.2925 60.4312 51.2159 60.6587 50.119C60.8943 49.0222 61.983 48.3112 63.0637 48.5509L67.0408 49.3878C68.1418 49.6194 68.8405 50.6959 68.613 51.7928C68.414 52.7475 67.573 53.4056 66.6305 53.4056Z" fill="#CED8D2"/>
</g>
<g id="XMLID_1149_">
<path id="Vector_8" d="M71.6973 125.938C71.4982 125.938 71.2992 125.909 71.1042 125.852C70.5882 125.694 70.1576 125.341 69.9017 124.865L58.4251 103.362C58.1692 102.887 58.1204 102.331 58.2748 101.815C58.4332 101.299 58.7867 100.868 59.262 100.616L66.4323 96.7893C67.8988 96.0052 69.5523 95.5908 71.2057 95.5908C74.9676 95.5908 78.4004 97.6505 80.1757 100.966L83.9985 108.132C85.2742 110.525 85.5463 113.275 84.7542 115.867C83.966 118.463 82.211 120.596 79.8182 121.871L72.652 125.698C72.3595 125.856 72.0264 125.938 71.6973 125.938ZM62.971 103.241L72.5342 121.16L77.9048 118.292C79.3429 117.524 80.391 116.245 80.8664 114.689C81.3376 113.133 81.1792 111.483 80.4113 110.045L76.5885 102.879C75.0529 100.003 71.2382 98.8246 68.3457 100.372L62.971 103.241Z" fill="#CED8D2"/>
</g>
<g id="XMLID_1144_">
<g id="XMLID_1145_">
<path id="Vector_9" d="M43.974 101.68C43.4011 101.68 42.8324 101.631 42.2555 101.534C39.5824 101.071 37.2465 99.596 35.6824 97.382C34.1183 95.1679 33.513 92.4745 33.9721 89.7973L35.3818 81.6276C36.3365 76.1067 41.573 72.3692 47.1224 73.3442C51.778 74.1485 55.2393 77.9998 55.5318 82.7123C55.6049 83.8295 54.7518 84.7963 53.6305 84.8654C52.428 84.9345 51.5465 84.0854 51.4774 82.9642C51.2986 80.1367 49.2227 77.8251 46.4318 77.3457C43.1127 76.7688 39.9602 79.0032 39.3874 82.3182L37.9818 90.4879C37.7055 92.0967 38.0671 93.7095 39.0055 95.0379C39.9399 96.3663 41.3415 97.252 42.9502 97.5282C45.7899 98.0198 48.6133 96.4273 49.6574 93.7501C50.0677 92.706 51.2418 92.182 52.2858 92.5963C53.334 93.0066 53.8499 94.1848 53.4396 95.2288C51.904 99.1613 48.0893 101.68 43.974 101.68Z" fill="#CED8D2"/>
</g>
</g>
</g>
<g id="XMLID_1102_">
<path id="Vector_10" d="M96.7814 65.7597C96.2411 65.7597 95.7251 65.5444 95.3433 65.1666L64.8339 34.6572C64.0417 33.865 64.0417 32.5772 64.8339 31.785L85.6339 10.985C90.0986 6.52031 96.0258 4.0625 102.327 4.0625C108.628 4.0625 114.559 6.52031 119.015 10.9809C128.221 20.1866 128.221 35.1609 119.015 44.3625L98.2155 65.1666C97.8376 65.5444 97.3217 65.7597 96.7814 65.7597ZM69.1483 33.2191L96.7854 60.8562L116.151 41.4903C123.769 33.8731 123.769 21.4744 116.151 13.8531C112.455 10.1563 107.547 8.125 102.327 8.125C97.1064 8.125 92.203 10.1563 88.5101 13.8531L69.1483 33.2191Z" fill="#CED8D2"/>
</g>
<g id="XMLID_1100_">
<path id="Vector_11" d="M33.2194 65.7597C32.6791 65.7597 32.1631 65.5444 31.7812 65.1666L10.9812 44.3625C1.77562 35.1609 1.77562 20.1866 10.9812 10.9809C15.4459 6.52031 21.3731 4.0625 27.6741 4.0625C33.975 4.0625 39.9022 6.52031 44.3628 10.9809L65.1669 31.7809C65.5487 32.1628 65.76 32.6788 65.76 33.2191C65.76 33.7594 65.5447 34.2753 65.1669 34.6572L34.6534 65.1666C34.2756 65.5444 33.7597 65.7597 33.2194 65.7597ZM27.6741 8.125C22.4578 8.125 17.5503 10.1603 13.8534 13.8531C6.23625 21.4744 6.23625 33.8691 13.8534 41.4903L33.2194 60.8562L60.8606 33.2191L41.4906 13.8531C37.7937 10.1603 32.8862 8.125 27.6741 8.125Z" fill="#CED8D2"/>
</g>
</g>
<g id="XMLID_1096_">
<path id="Vector_12" d="M99.5917 51.3296C99.0717 51.3296 98.5517 51.1305 98.1536 50.7364C97.3614 49.9442 97.3614 48.6564 98.1536 47.8642C98.9498 47.068 100.376 46.9299 101.168 47.7221C101.96 48.5142 102.102 49.6599 101.31 50.4521L101.026 50.7364C100.632 51.1305 100.112 51.3296 99.5917 51.3296Z" fill="#CED8D2"/>
</g>
</g>
</g>
</svg>
