<svg width="130" height="130" viewBox="0 0 130 130" fill="none" xmlns="http://www.w3.org/2000/svg">
<g id="Layer_1" clip-path="url(#clip0_1044_1196)">
<g id="Group">
<path id="Vector" d="M105.25 40.625C105.25 18.2244 87.0256 0 64.625 0C42.2244 0 24 18.2244 24 40.625C24 62.1103 40.7916 79.709 61.9166 81.1119V105.625H48.375C46.8792 105.625 45.6666 106.838 45.6666 108.333C45.6666 109.829 46.8792 111.042 48.375 111.042H61.9166V127.292C61.9166 128.788 63.1292 130 64.625 130C66.1208 130 67.3334 128.788 67.3334 127.292V111.042H80.875C82.3708 111.042 83.5834 109.829 83.5834 108.333C83.5834 106.838 82.3708 105.625 80.875 105.625H67.3334V81.1119C88.4584 79.709 105.25 62.1103 105.25 40.625ZM64.625 75.8334C45.1887 75.8123 29.4377 60.0613 29.4166 40.625C29.4166 21.1801 45.1798 5.41658 64.625 5.41658C84.0702 5.41658 99.8334 21.1801 99.8334 40.625C99.8334 60.0699 84.0699 75.8334 64.625 75.8334Z" fill="#CED8D2"/>
</g>
</g>
<defs>
<clipPath id="clip0_1044_1196">
<rect width="130" height="130" fill="white"/>
</clipPath>
</defs>
</svg>
