<svg width="131" height="130" viewBox="0 0 131 130" fill="none" xmlns="http://www.w3.org/2000/svg">
<path id="Vector" d="M12.2589 82.6424C12.5093 83.0531 12.814 83.4227 13.1486 83.7617C12.8137 84.1007 12.509 84.4706 12.2589 84.8813L1.34259 102.796C0.173146 104.714 0.174516 107.099 1.34533 109.019L12.2592 126.912C13.4207 128.817 15.5795 130 17.8946 130H39.7488C42.0611 130 44.2186 128.818 45.3815 126.917L56.3167 109.023C56.5625 108.621 56.7449 108.195 56.8877 107.76C57.3798 107.873 57.8864 107.941 58.4038 107.941H80.2566C82.5703 107.941 84.7292 106.758 85.8893 104.857L96.8245 86.9638C97.998 85.0428 97.9991 82.6558 96.8259 80.7329L85.8907 62.8191C84.7292 60.9155 82.5703 59.7331 80.2552 59.7331H58.4051C57.9026 59.7331 57.4102 59.7988 56.931 59.9056C56.7855 59.4286 56.5866 58.9628 56.3181 58.5233L45.3818 40.6081C44.2189 38.7058 42.06 37.5234 39.7477 37.5234H17.897C15.5809 37.5234 13.4204 38.7076 12.2589 40.6134L1.34232 58.5272C0.172872 60.4456 0.172873 62.8302 1.34506 64.7499L12.2589 82.6424ZM52.7894 107.025L41.8542 124.919C41.4241 125.623 40.6168 126.061 39.7485 126.061H17.8943C17.0246 126.061 16.2174 125.623 15.7872 124.917L4.87203 107.023C4.45253 106.334 4.45253 105.479 4.87203 104.79L15.7886 86.8752C16.2188 86.1697 17.026 85.7313 17.897 85.7313H39.7472C40.5453 85.7313 41.2788 86.113 41.7287 86.7206C42.0688 87.3376 52.6286 104.631 52.9021 105.044C53.1862 105.683 53.1621 106.416 52.7894 107.025ZM80.255 63.6725C81.1247 63.6725 81.9319 64.1099 82.3621 64.8151L93.2986 82.7289C93.7195 83.4195 93.7195 84.2767 93.2972 84.966L82.3621 102.861C81.9319 103.564 81.126 104.002 80.2563 104.002H58.4035C57.6204 104.002 56.9041 103.635 56.4518 103.05C56.1109 102.426 45.5697 85.1797 45.2801 84.7349C44.9842 84.0909 45.0045 83.3475 45.3798 82.7315L56.2964 64.8164C56.7266 64.111 57.5338 63.6725 58.4049 63.6725H80.255ZM4.87203 60.5216L15.7886 42.6064C16.2188 41.901 17.026 41.4626 17.897 41.4626H39.7472C40.6155 41.4626 41.4241 41.9005 41.8542 42.6051L52.7905 60.519C53.2114 61.2096 53.2114 62.0667 52.7892 62.756L41.854 80.6496C41.4238 81.3542 40.6166 81.7916 39.7483 81.7916H39.7469H17.897H17.8943C17.0246 81.7916 16.2174 81.3537 15.7872 80.6483L4.87203 62.7542C4.45253 62.0651 4.45253 61.2096 4.87203 60.5216ZM106.052 10.5148C105.736 13.5805 106.664 16.6626 108.888 19.1701L103.252 25.4489C102.27 25.0232 101.215 24.7417 100.109 24.6385C95.4052 24.1977 91.1252 27.0115 89.7404 31.1498L77.5341 30.0141C77.347 27.8496 76.4902 25.7903 75.0245 24.0729C73.0879 21.8018 70.3336 20.3944 67.27 20.1092C61.0125 19.5296 55.4092 23.9057 54.7965 29.8725C54.1778 35.8596 58.7531 41.1756 65.0497 41.7607C70.6405 42.2762 75.6503 38.8609 77.1319 33.9351L89.3384 35.0708C89.5472 36.8457 90.2766 38.5296 91.4844 39.9449C93.9094 42.7853 97.758 43.9856 101.43 43.1501L105.562 50.1527C102.68 52.4042 100.701 55.7 100.31 59.5038C99.5234 67.1136 105.334 73.8985 113.377 74.6472C121.419 75.3893 128.499 69.763 129.278 62.2089C130.061 54.5981 124.249 47.8148 116.209 47.0661C113.685 46.8337 111.249 47.2326 109.072 48.1227L105.145 41.4697C107.243 39.9388 108.7 37.6197 108.978 34.9228C109.235 32.4061 108.462 29.8558 106.556 27.7916L112.031 21.6929C113.543 22.5392 115.237 23.0807 117.039 23.2488C123.786 23.8706 129.748 19.1537 130.406 12.7891C131.065 6.38992 126.178 0.684563 119.419 0.0545914C112.702 -0.562454 106.712 4.12224 106.052 10.5148ZM115.815 50.9879C121.614 51.5268 125.764 56.3957 125.205 61.8206C124.645 67.2648 119.516 71.2535 113.772 70.7259C107.993 70.1891 103.818 65.3395 104.382 59.8932C104.94 54.4588 110.059 50.4531 115.815 50.9879ZM65.444 37.8392C61.4507 37.4683 58.4687 34.1174 58.8682 30.2616C59.257 26.4749 62.8254 23.6556 66.8757 24.0307C68.8496 24.2141 70.621 25.1176 71.8623 26.5736C75.8926 31.2949 71.959 38.438 65.444 37.8392ZM94.6451 37.4429C93.6888 36.322 93.2424 34.9122 93.3904 33.4734C93.7003 30.4742 96.5319 28.2622 99.7144 28.56C102.924 28.8584 105.214 31.5442 104.906 34.5353C104.401 39.4276 97.8616 41.213 94.6451 37.4429ZM110.124 10.9039C110.559 6.69568 114.524 3.55822 119.025 3.97661C123.518 4.39448 126.769 8.15928 126.334 12.4005C125.898 16.6362 121.906 19.7497 117.433 19.3278C112.94 18.91 109.689 15.1452 110.124 10.9039Z" fill="#CED8D2"/>
</svg>
