<svg width="131" height="130" viewBox="0 0 131 130" fill="none" xmlns="http://www.w3.org/2000/svg">
<g id="Capa_1" clip-path="url(#clip0_1044_4976)">
<g id="Group">
<path id="Vector" d="M38.3906 83.4795C41.2414 83.4795 43.5525 81.1684 43.5525 78.3176C43.5525 75.4668 41.2414 73.1558 38.3906 73.1558C35.5398 73.1558 33.2288 75.4668 33.2288 78.3176C33.2288 81.1684 35.5398 83.4795 38.3906 83.4795Z" fill="#CED8D2"/>
<path id="Vector_2" d="M92.6089 83.4795C95.4597 83.4795 97.7707 81.1684 97.7707 78.3176C97.7707 75.4668 95.4597 73.1558 92.6089 73.1558C89.7581 73.1558 87.447 75.4668 87.447 78.3176C87.447 81.1684 89.7581 83.4795 92.6089 83.4795Z" fill="#CED8D2"/>
<path id="Vector_3" d="M130.5 76.1271C130.5 68.65 125.08 62.4194 117.963 61.146V58.8899C117.963 29.9613 94.4285 6.42627 65.5002 6.42627C36.5715 6.42627 13.0365 29.9613 13.0365 58.8899V61.146C5.91982 62.4197 0.5 68.6504 0.5 76.1271C0.5 83.6687 6.01319 89.9434 13.2202 91.1411C14.2346 102.7 19.5231 111.238 28.9873 116.552C37.4039 121.277 49.3469 123.574 65.5002 123.574C81.6531 123.574 93.5965 121.277 102.013 116.552C111.477 111.238 116.765 102.701 117.78 91.1411C124.987 89.9437 130.5 83.6687 130.5 76.1271ZM5.87414 76.1271C5.87414 71.628 8.90784 67.8264 13.0362 66.6535V85.6007C8.90784 84.4282 5.87414 80.6266 5.87414 76.1271ZM112.589 86.9123C112.589 98.7136 108.269 106.876 99.3821 111.865C91.7901 116.128 80.7073 118.2 65.5002 118.2C50.293 118.2 39.2099 116.128 31.6183 111.865C22.7308 106.876 18.4107 98.7136 18.4107 86.9123V58.8899C18.4107 37.6255 32.5799 19.6114 51.9715 13.7841C66.7446 13.9709 74.6124 24.6352 74.6124 32.3571C74.6124 38.2714 69.8008 43.0832 63.8862 43.0832C59.4512 43.0832 55.8428 39.4748 55.8428 35.0398C55.8428 31.7882 58.4883 29.1424 61.7403 29.1424C63.2242 29.1424 64.4274 27.9393 64.4274 26.4553C64.4274 24.9714 63.2242 23.7683 61.7403 23.7683C55.5251 23.7683 50.4687 28.8247 50.4687 35.0398C50.4687 42.4384 56.4877 48.4574 63.8862 48.4574C72.764 48.4574 79.9865 41.2349 79.9865 32.3571C79.9865 26.7798 77.1842 20.7792 72.4906 16.3053C70.613 14.5157 68.4768 13.0113 66.1457 11.8088C91.8139 12.1561 112.589 33.1408 112.589 58.8899V86.9123ZM117.963 85.6011V66.6539C122.092 67.8268 125.126 71.6283 125.126 76.1275C125.126 80.6266 122.092 84.4281 117.963 85.6011Z" fill="#CED8D2"/>
<path id="Vector_4" d="M75.892 85.7186C70.1622 91.4491 60.8377 91.4491 55.1079 85.7186C54.0583 84.6693 52.3574 84.6693 51.3077 85.7186C50.2584 86.7679 50.2584 88.4695 51.3077 89.5188C55.2204 93.4315 60.3605 95.388 65.5001 95.388C70.6398 95.388 75.7795 93.4315 79.6926 89.5188C80.7419 88.4695 80.7419 86.7679 79.6926 85.7186C78.6426 84.6693 76.9417 84.6693 75.892 85.7186Z" fill="#CED8D2"/>
</g>
</g>
<defs>
<clipPath id="clip0_1044_4976">
<rect width="130" height="130" fill="white" transform="translate(0.5)"/>
</clipPath>
</defs>
</svg>
