<svg width="130" height="130" viewBox="0 0 130 130" fill="none" xmlns="http://www.w3.org/2000/svg">
<g id="Frame">
<g id="gender_male_man_sign">
<path id="Vector" d="M83.0689 10.791V16.8142H108.923L80.5471 45.1684C63.9833 30.7998 38.8897 31.4829 23.1432 47.2291C23.1394 47.2329 23.1394 47.2329 23.1394 47.2329C6.67716 63.6952 6.67081 90.3914 23.1389 106.86C39.6037 123.325 66.2997 123.327 82.7663 106.86C98.5189 91.1036 99.1973 65.9877 84.8069 49.4256L113.185 21.0694V46.9305H119.208V10.791H83.0689ZM78.5075 102.601C64.4159 116.692 41.4897 116.692 27.3985 102.601C13.3067 88.5094 13.3072 65.5835 27.3985 51.4919L27.4025 51.4881C41.4897 37.4006 64.4157 37.4006 78.5072 51.4922C92.5965 65.5817 92.5965 88.5071 78.5075 102.601Z" fill="#CED8D2"/>
</g>
</g>
</svg>
