<svg width="35" height="36" viewBox="0 0 35 36" fill="none" xmlns="http://www.w3.org/2000/svg">
<g id="Outline">
<path id="Vector" d="M21.3057 31.9207C21.3175 31.9915 21.343 32.0593 21.381 32.1202C21.419 32.1811 21.4685 32.2339 21.5269 32.2756C21.5853 32.3173 21.6514 32.3471 21.7213 32.3632C21.7912 32.3794 21.8636 32.3816 21.9344 32.3697C22.0803 32.3454 25.5268 31.7278 27.2634 27.6757C27.2928 27.6095 27.3087 27.5383 27.3103 27.4659C27.3118 27.3936 27.299 27.3217 27.2726 27.2544C27.2462 27.187 27.2066 27.1256 27.1562 27.0737C27.1059 27.0217 27.0457 26.9803 26.9792 26.9519C26.9127 26.9234 26.8412 26.9084 26.7689 26.9077C26.6965 26.9071 26.6248 26.9208 26.5578 26.9482C26.4908 26.9755 26.4299 27.0158 26.3787 27.0668C26.3274 27.1179 26.2868 27.1786 26.2592 27.2455C24.7671 30.7269 21.8779 31.2706 21.7529 31.2925C21.6104 31.3168 21.4834 31.3965 21.3996 31.5142C21.3158 31.632 21.282 31.7781 21.3057 31.9207Z" fill="#BC8C44"/>
<path id="Vector_2" d="M32.208 13.6707C32.207 13.6669 32.2056 13.6634 32.2046 13.6596C32.203 13.654 32.2019 13.6482 32.2001 13.6425C31.8011 12.3966 31.3106 11.1817 30.7326 10.008C29.4543 7.45135 28.1182 6.15505 26.7613 6.15505C24.365 6.15505 21.9228 5.2622 21.551 5.12077L20.2058 4.22382V2.33097C20.2058 2.18608 20.1482 2.04713 20.0458 1.94467C19.9433 1.84222 19.8044 1.78467 19.6595 1.78467H15.2891C15.1442 1.78467 15.0052 1.84222 14.9028 1.94467C14.8003 2.04713 14.7428 2.18608 14.7428 2.33097V4.22382L13.3975 5.12077C13.025 5.26247 10.5832 6.15505 8.1872 6.15505C6.83034 6.15505 5.49423 7.45135 4.21596 10.008C3.63907 11.1796 3.14927 12.3922 2.75051 13.6358C2.66351 13.8971 1.08533 18.6811 1.08533 21.4514C1.08533 22.691 2.0337 24.7895 3.90409 27.6886C4.15532 28.0778 4.40716 28.4566 4.65102 28.8157C4.45221 30.542 4.35607 32.2786 4.36312 34.0163C4.36312 34.1611 4.42067 34.3001 4.52312 34.4025C4.62557 34.505 4.76453 34.5626 4.90941 34.5626H30.0391C30.184 34.5626 30.323 34.505 30.4254 34.4025C30.5279 34.3001 30.5854 34.1611 30.5854 34.0163C30.5854 31.3765 30.3922 28.9925 30.0109 26.9144H30.0391C31.0088 26.9144 32.1022 26.8256 32.8572 26.1647C33.5436 25.5641 33.8632 24.5872 33.8632 23.0903C33.8632 20.3234 32.2756 13.9411 32.208 13.6707ZM27.2695 17.2862L27.7885 18.497C27.4913 18.341 27.1897 18.1926 26.8871 18.0514L27.2695 17.2862ZM22.986 6.71624C22.5221 7.99922 21.5829 9.97914 20.2058 9.97914C18.8304 9.97914 18.3204 9.34311 18.1315 8.85855C19.9026 8.70545 20.8109 7.9407 21.2679 7.28794C21.4698 6.99936 21.6236 6.67999 21.7233 6.34223C22.0464 6.45033 22.4791 6.58458 22.986 6.71624ZM15.5921 4.97068C15.667 4.92079 15.7283 4.8532 15.7707 4.77391C15.8132 4.69463 15.8354 4.60609 15.8354 4.51616V2.87726H19.1132V4.51616C19.1132 4.60609 19.1354 4.69463 19.1778 4.77391C19.2202 4.8532 19.2816 4.92079 19.3564 4.97068L20.714 5.87576C20.6531 6.15747 20.5371 6.42436 20.3726 6.66106C19.8466 7.41284 18.8714 7.79395 17.4743 7.79395C16.1037 7.79395 15.1384 7.42663 14.6052 6.70217C14.4251 6.45573 14.2988 6.17423 14.2345 5.8759L15.5921 4.97068ZM13.6806 7.2878C14.4463 8.38156 15.7075 8.75973 16.8114 8.85766C16.7685 8.97001 16.7135 9.07739 16.6475 9.17793C16.2956 9.70954 15.6548 9.97914 14.7428 9.97914C13.3656 9.97914 12.4264 7.99922 11.9625 6.71624C12.4694 6.58458 12.9022 6.45033 13.2252 6.34209C13.325 6.67985 13.4788 6.99923 13.6806 7.2878ZM5.19882 10.4854C6.2445 8.39747 7.30575 7.24765 8.1872 7.24765C9.09491 7.2394 9.9997 7.14372 10.8891 6.96194C12.0609 10.3433 13.619 11.0717 14.7428 11.0717C16.2167 11.0717 17.0278 10.5122 17.4743 9.89959C17.9207 10.5122 18.7318 11.0717 20.2058 11.0717C21.3295 11.0717 22.8877 10.3433 24.0595 6.96194C24.9488 7.14372 25.8536 7.2394 26.7613 7.24765C27.6428 7.24765 28.704 8.39747 29.7497 10.4854C30.2344 11.4711 30.6557 12.4866 31.0111 13.5259L27.9264 15.0682C27.9092 12.0322 25.6167 9.70087 25.509 9.59284C25.4064 9.49133 25.2679 9.43454 25.1235 9.43487C24.9792 9.43519 24.8409 9.49261 24.7388 9.59458C24.6366 9.69655 24.579 9.83479 24.5785 9.97911C24.5779 10.1234 24.6345 10.2621 24.7359 10.3648C24.7609 10.3901 27.2172 12.9007 26.7807 15.821L25.8858 17.6111C24.2865 16.9558 22.6394 16.4243 20.9588 16.0213L19.4696 15.128C19.2612 15.0029 19.0276 14.9258 18.7857 14.9022C18.5438 14.8786 18.2997 14.909 18.071 14.9914C17.8424 15.0738 17.6349 15.2059 17.4636 15.3784C17.2923 15.5508 17.1615 15.7592 17.0807 15.9884H13.6502C13.2382 15.989 12.8415 16.1445 12.5389 16.4241C12.2363 16.7037 12.05 17.0869 12.017 17.4976C11.1626 17.7841 10.3283 18.1272 9.51962 18.5246L8.16808 15.8212C7.73166 12.9007 10.1879 10.3901 10.2129 10.365C10.3143 10.2623 10.3709 10.1236 10.3703 9.97931C10.3698 9.835 10.3122 9.69676 10.21 9.59479C10.1079 9.49281 9.9696 9.4354 9.82528 9.43507C9.68096 9.43474 9.54238 9.49154 9.4398 9.59304C9.33183 9.70101 7.03936 12.0324 7.02243 15.0685L3.93748 13.5259C4.29281 12.4866 4.71411 11.4711 5.19882 10.4854ZM6.60936 20.8105L7.74211 17.4123L8.57876 19.0853C8.1659 19.4166 7.5298 20.0537 6.87233 21.1954C6.78643 21.0652 6.69888 20.9364 6.60936 20.8106V20.8105ZM2.17792 21.4514C2.17792 19.3914 3.17089 15.9581 3.59768 14.5775L3.98009 14.7687L6.97251 16.265L5.48385 20.7321C5.45587 20.8159 5.44863 20.9053 5.46276 20.9925C5.47689 21.0797 5.51196 21.1622 5.56497 21.2329C7.12991 23.3195 8.20462 26.509 8.21527 26.5409C8.24038 26.6162 8.2816 26.6852 8.33606 26.743C8.39052 26.8008 8.45691 26.846 8.53062 26.8755L10.3055 27.5857C10.4348 27.6376 10.5395 27.7368 10.5981 27.8632C10.6567 27.9895 10.6649 28.1335 10.621 28.2657L10.4005 28.9272C10.3605 29.047 10.3633 29.177 10.4084 29.295C10.4535 29.4129 10.538 29.5116 10.6477 29.5743L13.6463 31.2878C13.7604 31.3536 13.847 31.4582 13.8904 31.5825C13.9337 31.7068 13.9309 31.8426 13.8824 31.965L13.5547 32.7845C13.5278 32.8517 13.4878 32.9128 13.4371 32.9645C13.3863 33.0161 13.3259 33.0571 13.2592 33.0851C13.1925 33.1132 13.1208 33.1277 13.0485 33.1278C12.9761 33.1279 12.9044 33.1137 12.8376 33.0859L7.43994 30.8369C5.89309 28.8087 2.17792 23.5 2.17792 21.4514ZM5.6097 30.1896C6.22381 31.0474 6.65395 31.6079 6.66132 31.6178C6.71941 31.6934 6.79625 31.7524 6.88421 31.7891L10.9187 33.47H5.45858C5.47067 32.3232 5.52188 31.2268 5.6097 30.1896ZM29.49 33.47H14.4245C14.4814 33.3814 14.5298 33.2877 14.5691 33.19L14.8968 32.3705C15.0422 32.0032 15.0506 31.5959 14.9206 31.2229C14.7905 30.8499 14.5306 30.5361 14.1883 30.3389L11.5786 28.8476L11.6574 28.6109C11.7892 28.2144 11.7646 27.7824 11.5888 27.4033C11.413 27.0242 11.0992 26.7265 10.7113 26.571L9.1676 25.9535C8.71523 24.6904 8.16683 23.4639 7.52721 22.2845C8.31995 20.7127 9.16965 19.9456 9.52652 19.7534C9.54453 19.7448 9.56204 19.7352 9.57897 19.7246C10.3617 19.3077 11.1748 18.9505 12.0113 18.656V18.7199C12.0118 19.1544 12.1846 19.571 12.4918 19.8782C12.7991 20.1855 13.2157 20.3583 13.6502 20.3588H20.0051C20.5062 20.7822 22.1557 22.1627 23.9752 23.5273C26.4852 25.4098 27.9596 26.2457 28.8403 26.6172C29.2446 28.6018 29.4631 30.9024 29.49 33.47ZM32.1377 25.3423C31.7537 25.6784 31.1261 25.8218 30.0391 25.8218C29.6835 25.8218 28.4448 25.5133 24.6349 22.6564C22.4885 21.0468 20.5803 19.4141 20.5613 19.3977C20.4623 19.3129 20.3362 19.2662 20.2058 19.2662H13.6502C13.5053 19.266 13.3665 19.2084 13.2641 19.106C13.1617 19.0036 13.104 18.8647 13.1039 18.7199V17.6273C13.104 17.4825 13.1617 17.3436 13.2641 17.2412C13.3665 17.1388 13.5053 17.0812 13.6502 17.081H17.4743C17.5889 17.081 17.7007 17.0449 17.7937 16.9779C17.8867 16.9109 17.9562 16.8163 17.9925 16.7075L18.1081 16.3608C18.134 16.2832 18.1769 16.2124 18.2338 16.1536C18.2907 16.0948 18.3601 16.0495 18.4368 16.0211C18.5136 15.9927 18.5957 15.9819 18.6772 15.9895C18.7586 15.9971 18.8373 16.0229 18.9075 16.065L20.4713 17.0032C20.5216 17.0334 20.5765 17.0553 20.6339 17.068C20.682 17.0787 25.487 18.1628 28.6434 20.2668C29.0662 20.5494 30.2498 21.455 30.6433 22.242C30.675 22.3067 30.7193 22.3645 30.7734 22.4121C30.8276 22.4596 30.8907 22.496 30.959 22.519C31.0273 22.5421 31.0995 22.5514 31.1715 22.5464C31.2434 22.5415 31.3136 22.5223 31.3781 22.4901C31.4426 22.4578 31.5001 22.4131 31.5472 22.3585C31.5943 22.304 31.6302 22.2406 31.6527 22.1721C31.6752 22.1037 31.684 22.0314 31.6785 21.9595C31.6729 21.8876 31.6532 21.8175 31.6205 21.7533C31.1083 20.7295 29.8142 19.7557 29.3869 19.4528L28.0128 16.2466L31.3086 14.5987C31.7182 16.323 32.7706 20.9593 32.7706 23.0903C32.7706 24.2489 32.5695 24.9646 32.1377 25.3423Z" fill="#BC8C44"/>
</g>
</svg>
