<svg width="32" height="32" viewBox="0 0 32 32" fill="none" xmlns="http://www.w3.org/2000/svg">
<g id="Capa_1" clip-path="url(#clip0_1182_15917)">
<g id="Group">
<g id="Group_2">
<path id="Vector" d="M28.2667 25.5841H20.8V23.3052C23.6757 21.7516 25.7189 18.8492 26.0763 15.4508H26.6667C28.1371 15.4508 29.3333 14.2545 29.3333 12.7841C29.3333 11.3137 28.1371 10.1175 26.6667 10.1175H26.1333C26.1333 5.118 22.0661 1.0508 17.0667 1.0508H8.53333C8.08907 1.0508 7.6992 0.779871 7.53973 0.360138C7.45173 0.128138 7.21707 -0.0105289 6.97067 0.0204044C5.99253 0.150538 5.08853 0.677471 4.49013 1.46574C3.88533 2.26254 3.6304 3.25347 3.7712 4.25667C3.968 5.65347 4.97813 6.78414 6.30187 7.2364C6.01867 8.182 5.86667 9.14787 5.86667 10.1175H5.33333C3.86293 10.1175 2.66667 11.3137 2.66667 12.7841C2.66667 14.2545 3.86293 15.4508 5.33333 15.4508H5.92373C6.28107 18.8492 8.32427 21.7516 11.2 23.3052V25.5841H3.73333C1.67467 25.5841 0 27.2588 0 29.3175V31.9841H1.06667V29.3175C1.06667 27.8471 2.26293 26.6508 3.73333 26.6508H11.5803L15.7173 29.2364C15.8037 29.2903 15.9019 29.3175 16 29.3175C16.0981 29.3175 16.1963 29.2903 16.2827 29.2364L20.4197 26.6508H28.2667C29.7371 26.6508 30.9333 27.8471 30.9333 29.3175V31.9841H32V29.3175C32 27.2588 30.3253 25.5841 28.2667 25.5841ZM26.1333 11.1841H26.6667C27.5488 11.1841 28.2667 11.902 28.2667 12.7841C28.2667 13.6663 27.5488 14.3841 26.6667 14.3841H26.1333V11.1841ZM5.86667 14.3841H5.33333C4.4512 14.3841 3.73333 13.6663 3.73333 12.7841C3.73333 11.902 4.4512 11.1841 5.33333 11.1841H5.86667V14.3841ZM4.82773 4.10787C4.7264 3.3884 4.90827 2.67907 5.33973 2.11054C5.6992 1.63747 6.192 1.30414 6.75307 1.15C7.14187 1.74254 7.8112 2.11747 8.53333 2.11747H17.0667C21.4603 2.11747 25.0373 5.67694 25.0661 10.0636C25.0656 10.0636 25.0651 10.0636 25.0645 10.0636C25.0571 10.062 25.0501 10.0588 25.0421 10.0572C24.8864 10.0241 24.736 9.97614 24.592 9.91694C24.5424 9.89667 24.4971 9.86894 24.4485 9.846C24.3499 9.79854 24.2523 9.74894 24.1611 9.68974C24.1093 9.65614 24.0613 9.61774 24.0117 9.58094C23.9317 9.5212 23.8533 9.45827 23.7803 9.39C23.7333 9.34627 23.6891 9.29987 23.6459 9.2524C23.5792 9.1804 23.5173 9.10467 23.4587 9.02574C23.4203 8.974 23.3829 8.92174 23.3483 8.8668C23.2949 8.782 23.2485 8.69294 23.2043 8.60227C23.1771 8.54627 23.1483 8.4908 23.1248 8.43267C23.0843 8.33027 23.0539 8.22307 23.0261 8.11481C23.0123 8.06201 22.9941 8.01134 22.9835 7.95747C22.9525 7.7932 22.9333 7.62414 22.9333 7.45081V6.91747C22.9333 6.62307 22.6944 6.38414 22.4 6.38414H7.5792C7.41227 6.38414 7.2416 6.36867 7.072 6.33827C7.06987 6.33774 7.06827 6.3388 7.06613 6.33827C5.91093 6.13187 4.9872 5.24174 4.82773 4.10787ZM19.7339 25.822L16.0005 28.1553L12.2672 25.822V23.7975C12.2955 23.8087 12.3243 23.8161 12.3525 23.8268C12.6117 23.9281 12.8747 24.0215 13.144 24.1009C13.2075 24.1196 13.2725 24.1329 13.3365 24.1505C13.5813 24.2172 13.8272 24.2807 14.0789 24.3292C14.1584 24.3447 14.2395 24.3527 14.3189 24.366C14.5579 24.406 14.7963 24.4455 15.0405 24.4689C15.1152 24.4759 15.1899 24.4748 15.2645 24.4801C15.5083 24.4977 15.7515 24.5175 16 24.5175C16.2485 24.5175 16.4917 24.4977 16.736 24.4801C16.8107 24.4748 16.8853 24.4759 16.96 24.4689C17.2043 24.446 17.4427 24.4065 17.6816 24.366C17.7616 24.3527 17.8421 24.3447 17.9216 24.3292C18.1733 24.2807 18.4192 24.2172 18.664 24.1505C18.728 24.1329 18.7925 24.1196 18.8565 24.1009C19.1259 24.0215 19.3888 23.9281 19.6485 23.8273C19.6768 23.8161 19.7056 23.8092 19.7339 23.798V25.822ZM19.9787 22.5191C19.6944 22.6583 19.4048 22.7815 19.1115 22.8897C19.0779 22.902 19.0448 22.9148 19.0107 22.9265C18.7131 23.0321 18.4112 23.1207 18.1067 23.1943C18.0811 23.2001 18.0565 23.2081 18.0309 23.214C16.6939 23.5233 15.3061 23.5233 13.9691 23.214C13.9435 23.2081 13.9189 23.2007 13.8933 23.1943C13.5888 23.1212 13.2869 23.0321 12.9893 22.9265C12.9557 22.9148 12.9221 22.902 12.8885 22.8897C12.5952 22.782 12.3056 22.6588 12.0213 22.5191C9.01387 21.0417 6.93333 17.9553 6.93333 14.3841V10.6508V10.1175C6.93333 9.21827 7.072 8.32121 7.34507 7.44334C7.42347 7.44867 7.50133 7.45081 7.5792 7.45081H21.8667C21.8667 7.57401 21.8736 7.69614 21.8853 7.81614C21.8891 7.85614 21.8965 7.89507 21.9019 7.93454C21.912 8.014 21.9227 8.094 21.9381 8.17187C21.9472 8.21827 21.9595 8.26307 21.9701 8.30894C21.9867 8.37881 22.0032 8.44814 22.0235 8.51587C22.0373 8.56334 22.0539 8.6092 22.0699 8.65614C22.0917 8.72067 22.1147 8.78414 22.1397 8.84707C22.1584 8.894 22.1792 8.93934 22.2 8.9852C22.2272 9.04547 22.2555 9.10467 22.2859 9.1628C22.3093 9.20814 22.3333 9.2524 22.3589 9.29614C22.3915 9.35267 22.4251 9.40867 22.4603 9.46307C22.4875 9.5052 22.5147 9.54734 22.5435 9.5884C22.5813 9.64227 22.6208 9.69454 22.6613 9.74627C22.6917 9.7852 22.7216 9.82414 22.7536 9.86147C22.7973 9.91267 22.8432 9.96174 22.8891 10.0108C22.9216 10.0455 22.9536 10.0807 22.9872 10.1137C23.0379 10.1639 23.0917 10.2103 23.1451 10.2577C23.1776 10.2865 23.2091 10.3164 23.2427 10.3436C23.3093 10.398 23.3792 10.4487 23.4501 10.4988C23.4736 10.5153 23.4949 10.5335 23.5189 10.5495C23.6139 10.6135 23.7115 10.6727 23.8123 10.7276C23.8427 10.7441 23.8752 10.758 23.9061 10.774C23.9781 10.8108 24.0501 10.8471 24.1248 10.8796C24.1659 10.8972 24.2085 10.9121 24.2507 10.9281C24.3173 10.9543 24.384 10.9799 24.4523 11.0023C24.4992 11.0172 24.5467 11.0295 24.5941 11.0428C24.6603 11.0615 24.7259 11.0791 24.7936 11.094C24.8437 11.1052 24.8944 11.1137 24.9456 11.1228C24.9861 11.1297 25.0256 11.1399 25.0667 11.1457V14.3841C25.0667 17.9553 22.9861 21.0417 19.9787 22.5191Z" fill="#BC8C44"/>
</g>
</g>
<g id="Group_3">
<g id="Group_4">
<path id="Vector_2" d="M12.2666 13.8506C12.8557 13.8506 13.3333 13.3731 13.3333 12.784C13.3333 12.1948 12.8557 11.7173 12.2666 11.7173C11.6775 11.7173 11.2 12.1948 11.2 12.784C11.2 13.3731 11.6775 13.8506 12.2666 13.8506Z" fill="#BC8C44"/>
</g>
</g>
<g id="Group_5">
<g id="Group_6">
<path id="Vector_3" d="M19.7333 13.8506C20.3224 13.8506 20.8 13.3731 20.8 12.784C20.8 12.1948 20.3224 11.7173 19.7333 11.7173C19.1442 11.7173 18.6666 12.1948 18.6666 12.784C18.6666 13.3731 19.1442 13.8506 19.7333 13.8506Z" fill="#BC8C44"/>
</g>
</g>
</g>
<defs>
<clipPath id="clip0_1182_15917">
<rect width="32" height="32" fill="white"/>
</clipPath>
</defs>
</svg>
