<svg width="32" height="32" viewBox="0 0 32 32" fill="none" xmlns="http://www.w3.org/2000/svg">
<g id="Capa_1" clip-path="url(#clip0_1182_15931)">
<g id="Group">
<g id="Group_2">
<path id="Vector" d="M12.2845 13.8004C12.8708 13.8004 13.3461 13.3251 13.3461 12.7388C13.3461 12.1525 12.8708 11.6772 12.2845 11.6772C11.6982 11.6772 11.2229 12.1525 11.2229 12.7388C11.2229 13.3251 11.6982 13.8004 12.2845 13.8004Z" fill="#BC8C44"/>
</g>
</g>
<g id="Group_3">
<g id="Group_4">
<path id="Vector_2" d="M19.7156 13.8004C20.3019 13.8004 20.7772 13.3251 20.7772 12.7388C20.7772 12.1525 20.3019 11.6772 19.7156 11.6772C19.1293 11.6772 18.6541 12.1525 18.6541 12.7388C18.6541 13.3251 19.1293 13.8004 19.7156 13.8004Z" fill="#BC8C44"/>
</g>
</g>
<g id="Group_5">
<g id="Group_6">
<path id="Vector_3" d="M28.2083 26.0089H27.6775V11.6775C27.6775 5.23841 22.4391 0 16 0C9.56094 0 4.32253 5.23841 4.32253 11.6775V26.0089H3.79173C1.74287 26.0089 0.0761719 27.6756 0.0761719 29.7245V31.8477H1.13776V29.7245C1.13776 28.2611 2.32833 27.0705 3.79173 27.0705H4.85332H7.64318L9.12197 32L10.139 31.6953L8.94044 27.7L15.7266 31.7718C15.8949 31.8726 16.1046 31.8726 16.2728 31.7718L23.0596 27.7L21.861 31.6953L22.878 32L24.3568 27.0705H27.1467H28.2083C29.6717 27.0705 30.8622 28.2611 30.8622 29.7245V31.8477H31.9238V29.7245C31.9238 27.6756 30.2571 26.0089 28.2083 26.0089ZM16 30.698L9.95426 27.0705H11.7536C12.0466 27.0705 12.2844 26.8327 12.2844 26.5397V23.5354C13.38 24.0816 14.6019 24.4027 15.8965 24.416L16 24.4165L16.1051 24.416C17.3992 24.4027 18.6205 24.0816 19.7156 23.536V26.5397C19.7156 26.8327 19.9534 27.0705 20.2464 27.0705H22.0458L16 30.698ZM8.56888 15.7938V12.9933C8.56888 11.3245 9.49512 9.79422 10.9861 8.99962C11.1629 8.90514 11.3433 8.82339 11.5259 8.75492C11.527 8.75439 11.5286 8.75439 11.5297 8.75386C11.7016 8.6891 11.8757 8.63762 12.0509 8.59568C12.1019 8.58348 12.1533 8.57711 12.2043 8.56702C12.3301 8.54207 12.4559 8.51925 12.5822 8.50545C12.6518 8.49802 12.7213 8.49643 12.7908 8.49271C12.8949 8.48687 12.9989 8.48262 13.1029 8.48475C13.2224 8.4874 13.3413 8.49855 13.4602 8.51129C13.5345 8.51925 13.6093 8.52403 13.6831 8.53624C13.8179 8.55853 13.9511 8.59197 14.0833 8.62806C14.1401 8.64346 14.198 8.65354 14.2537 8.67159C14.4267 8.72626 14.5966 8.7942 14.7633 8.87223C14.7781 8.87913 14.794 8.88337 14.8089 8.89081C14.9926 8.97945 15.1709 9.08348 15.3445 9.20079C15.4549 9.27616 15.5632 9.35472 15.6677 9.43805C15.8615 9.59411 16.1385 9.59411 16.3323 9.43805C16.4368 9.35419 16.5446 9.27563 16.6545 9.20079C16.7601 9.12913 16.8705 9.07075 16.9799 9.0097C17.0398 8.97626 17.0972 8.93699 17.1582 8.90673C17.2776 8.84728 17.4013 8.80163 17.5244 8.75439C17.5781 8.73369 17.6301 8.70715 17.6842 8.6891C17.8058 8.64876 17.93 8.62116 18.0536 8.5925C18.1126 8.5787 18.1704 8.55853 18.2304 8.54738C18.3387 8.52721 18.4486 8.51978 18.5579 8.50863C18.6354 8.50067 18.7124 8.48634 18.7904 8.48262C18.87 8.47891 18.9507 8.48634 19.0303 8.4874C19.1391 8.48899 19.2479 8.48581 19.3567 8.4959C19.3923 8.49908 19.4279 8.50863 19.4634 8.51288C19.99 8.57551 20.5149 8.73316 21.0139 8.99962C22.5049 9.79422 23.4311 11.3245 23.4311 12.9933V15.7943C23.4311 19.9218 20.1397 23.3136 16.0955 23.355H16L15.9061 23.3544C11.8603 23.313 8.56888 19.9212 8.56888 15.7938ZM26.6159 26.0089H23.9619H20.7772V22.917C23.0166 21.3597 24.4927 18.7418 24.4927 15.7938V12.9816C24.4927 10.9163 23.3473 9.02775 21.5043 8.05374C20.8918 7.72996 20.2485 7.53887 19.6025 7.46085C19.5489 7.45448 19.4958 7.44068 19.4422 7.4359C19.3021 7.42316 19.1625 7.42687 19.0229 7.42581C18.9268 7.42475 18.8307 7.41626 18.7352 7.42051C18.6243 7.42581 18.5144 7.44545 18.404 7.45819C18.2814 7.47199 18.1577 7.47942 18.0361 7.50225C17.9411 7.52029 17.8482 7.55108 17.7543 7.57444C17.62 7.60735 17.4852 7.63601 17.353 7.68006C17.2633 7.71032 17.1768 7.75278 17.0887 7.78782C16.9565 7.84036 16.8227 7.88814 16.6938 7.95236C16.6009 7.99854 16.5122 8.05799 16.4215 8.10948C16.3084 8.1737 16.1932 8.23103 16.0833 8.30481C16.0722 8.31224 16.0616 8.3202 16.0504 8.32763C16.0499 8.32816 16.0488 8.32869 16.0478 8.32923C16.0319 8.34037 16.0165 8.35099 16.0011 8.3616C15.9857 8.35046 15.9697 8.33984 15.9544 8.32923C15.9533 8.32869 15.9522 8.32816 15.9512 8.3271C15.94 8.31967 15.9289 8.31171 15.9177 8.30428C15.8089 8.23103 15.6937 8.17423 15.5812 8.11001C15.4899 8.05799 15.4013 7.99854 15.3084 7.95236C15.1746 7.88601 15.0355 7.83559 14.8981 7.78145C14.8147 7.74854 14.7335 7.7082 14.6491 7.67953C14.5132 7.63389 14.3736 7.60469 14.2351 7.57072C14.1449 7.54896 14.0568 7.5187 13.9655 7.50172C13.8423 7.47889 13.7181 7.47093 13.5939 7.45713C13.4846 7.44492 13.3758 7.42528 13.2659 7.41997C13.1714 7.41573 13.0764 7.42422 12.9814 7.42528C12.8402 7.42634 12.6995 7.42263 12.5583 7.43537C12.5084 7.44015 12.4585 7.45288 12.4086 7.45872C11.759 7.53622 11.1119 7.72837 10.4967 8.05374C8.65275 9.02775 7.50729 10.9163 7.50729 12.9816V15.7938C7.50729 18.7413 8.98343 21.3597 11.2229 22.9165V26.0089H8.03809H5.38412V11.6775C5.38412 5.82388 10.1464 1.06159 16 1.06159C21.8536 1.06159 26.6159 5.82388 26.6159 11.6775V26.0089Z" fill="#BC8C44"/>
</g>
</g>
</g>
<defs>
<clipPath id="clip0_1182_15931">
<rect width="32" height="32" fill="white"/>
</clipPath>
</defs>
</svg>
