<svg width="32" height="32" viewBox="0 0 32 32" fill="none" xmlns="http://www.w3.org/2000/svg">
<g id="Capa_1" clip-path="url(#clip0_1182_15942)">
<g id="Group">
<g id="Group_2">
<path id="Vector" d="M27.4539 11.7403C27.6379 11.2251 27.7333 10.6816 27.7333 10.1333C27.7333 7.4864 25.5803 5.33333 22.9333 5.33333C22.5669 5.33333 22.2059 5.3744 21.8528 5.45653C21.6411 2.41227 19.0971 0 16 0C12.8501 0 10.2725 2.49493 10.1387 5.61227C9.624 5.4288 9.08053 5.33333 8.53333 5.33333C5.8864 5.33333 3.73333 7.4864 3.73333 10.1333C3.73333 10.7003 3.8352 11.2635 4.03253 11.7947C1.74933 12.1632 0 14.1477 0 16.5333C0 19.1803 2.15307 21.3333 4.8 21.3333C6.2624 21.3333 7.63093 20.6656 8.53333 19.5483C9.43573 20.6656 10.8043 21.3333 12.2667 21.3333V30.9333H10.1333V32H12.8H19.2H21.8667V30.9333H19.7333V21.3333C21.1957 21.3333 22.5643 20.6656 23.4667 19.5483C24.3691 20.6656 25.7376 21.3333 27.2 21.3333C29.8469 21.3333 32 19.1803 32 16.5333C32 13.9717 29.9829 11.8725 27.4539 11.7403ZM18.8229 19.3563C18.7227 19.456 18.6667 19.5915 18.6667 19.7333V20.7632V30.9333H16.5333V24H15.4667V30.9333H13.3333V20.7632V19.7333C13.3333 19.5915 13.2773 19.456 13.1771 19.3563L7.15413 13.3333L8.53333 11.9541L13.4896 16.9104C13.5893 17.0107 13.7248 17.0667 13.8667 17.0667H18.1333C18.2752 17.0667 18.4107 17.0107 18.5104 16.9104L23.4667 11.9541L24.8459 13.3333L18.8229 19.3563ZM13.3333 13.3333C13.3333 11.8629 14.5296 10.6667 16 10.6667C17.4704 10.6667 18.6667 11.8629 18.6667 13.3333C18.6667 14.8037 17.4704 16 16 16C14.5296 16 13.3333 14.8037 13.3333 13.3333ZM27.2 20.2667C25.8437 20.2667 24.592 19.528 23.9333 18.3392C23.8389 18.1691 23.6603 18.064 23.4667 18.064C23.2731 18.064 23.0944 18.1691 23 18.3392C22.3413 19.528 21.0896 20.2667 19.7333 20.2667V19.9541L25.9771 13.7104C26.1856 13.5019 26.1856 13.1648 25.9771 12.9563L23.8437 10.8229C23.6352 10.6144 23.2981 10.6144 23.0896 10.8229L19.5984 14.3141C19.6837 14.0011 19.7333 13.6731 19.7333 13.3333C19.7333 11.2752 18.0581 9.6 16 9.6C13.9419 9.6 12.2667 11.2752 12.2667 13.3333C12.2667 13.6731 12.3163 14.0011 12.4016 14.3141L8.9104 10.8229C8.70187 10.6144 8.3648 10.6144 8.15627 10.8229L6.02293 12.9563C5.8144 13.1648 5.8144 13.5019 6.02293 13.7104L12.2667 19.9541V20.2667C10.9104 20.2667 9.65867 19.528 9 18.3392C8.8112 17.9995 8.25547 17.9995 8.06667 18.3392C7.408 19.528 6.15627 20.2667 4.8 20.2667C2.74187 20.2667 1.06667 18.5915 1.06667 16.5333C1.06667 14.4752 2.74187 12.8 4.78293 12.7995C4.9856 12.8144 5.20427 12.7115 5.30507 12.5349C5.40053 12.3696 5.40053 12.1664 5.30453 12.0011C4.9744 11.432 4.8 10.7861 4.8 10.1333C4.8 8.0752 6.4752 6.4 8.53333 6.4C9.19733 6.4 9.85333 6.5808 10.4304 6.92213C10.6037 7.0256 10.8213 7.02133 10.992 6.91093C11.1616 6.80107 11.2549 6.6048 11.2325 6.40427C11.2123 6.22773 11.2 6.04907 11.2 5.86667C11.2 3.21973 13.3531 1.06667 16 1.06667C18.6469 1.06667 20.8 3.21973 20.8 5.86667C20.8 5.93333 20.7952 5.99893 20.7904 6.064L20.7845 6.15413C20.7733 6.33707 20.8576 6.51253 21.0064 6.6192C21.1557 6.72533 21.3499 6.74827 21.5189 6.67893C21.9717 6.49387 22.4475 6.4 22.9333 6.4C24.9915 6.4 26.6667 8.0752 26.6667 10.1333C26.6667 10.8021 26.4837 11.4613 26.1376 12.0411C26.0325 12.2171 26.0373 12.4384 26.1509 12.6096C26.2651 12.7808 26.4688 12.8715 26.6704 12.8427C26.8757 12.8133 27.0437 12.8 27.2 12.8C29.2581 12.8 30.9333 14.4752 30.9333 16.5333C30.9333 18.5915 29.2581 20.2667 27.2 20.2667Z" fill="#BC8C44"/>
</g>
</g>
<g id="Group_3">
<g id="Group_4">
<path id="Vector_2" d="M24 30.9331H22.9333V31.9998H24V30.9331Z" fill="#BC8C44"/>
</g>
</g>
</g>
<defs>
<clipPath id="clip0_1182_15942">
<rect width="32" height="32" fill="white"/>
</clipPath>
</defs>
</svg>
