<svg width="35" height="35" viewBox="0 0 35 35" fill="none" xmlns="http://www.w3.org/2000/svg">
<g id="Layer_1_1_">
<path id="Vector" d="M8.91395 22.4219H3.82812C3.52585 22.4219 3.28125 22.6667 3.28125 22.9687C3.28125 23.8416 3.62091 24.6657 4.24202 25.2935C4.8658 25.9103 5.68985 26.25 6.5625 26.25H11.4844C11.7007 26.25 11.8961 26.1226 11.9843 25.9253L13.125 23.3583V27.1173L11.5951 28.6475L7.0079 28.1646C6.20094 28.0807 5.38597 28.3432 4.78035 28.8882C4.17526 29.4332 3.82812 30.213 3.82812 31.0277C3.82812 32.6149 5.11948 33.9062 6.70669 33.9062H11.282H23.7175H28.2954C29.8816 33.9062 31.1719 32.6159 31.1719 31.0298C31.1719 29.4436 29.8837 28.1531 28.3008 28.1531C28.1961 28.1531 28.0925 28.1544 27.9921 28.167L23.4069 28.6495L21.875 27.1173V23.3583L23.0157 25.9253C23.1039 26.1226 23.2993 26.25 23.5156 26.25H28.4375C29.3101 26.25 30.1342 25.9103 30.7623 25.2892C31.3791 24.6657 31.7188 23.8416 31.7188 22.9687C31.7188 22.6667 31.4741 22.4219 31.1719 22.4219H26.086L25.0751 19.6501C24.8564 19.0426 24.514 18.5075 24.0974 18.0453C27.8778 18.0283 30.8716 15.283 30.9978 15.1659C31.1089 15.0623 31.1719 14.9173 31.1719 14.7656C31.1719 14.6137 31.1089 14.4687 30.9978 14.3653C30.8848 14.2605 28.4538 12.0396 25.2222 11.5748C27.1899 8.95826 27.3379 5.65862 27.3432 5.50451C27.3486 5.35284 27.2909 5.20571 27.1835 5.09836C27.0762 4.99101 26.9234 4.92746 26.7776 4.93841C26.6229 4.94395 23.3132 5.09232 20.6944 7.06953C20.2383 3.82467 18.0061 1.38152 17.9005 1.2681C17.6933 1.0454 17.3067 1.0454 17.0995 1.2681C16.9939 1.38152 14.7617 3.82467 14.3056 7.06954C11.6868 5.09232 8.37709 4.94396 8.22235 4.93842C8.07014 4.9288 7.92327 4.99102 7.81646 5.09837C7.70912 5.20571 7.65144 5.35284 7.65678 5.50452C7.66205 5.6582 7.80916 8.93994 9.7824 11.5743C6.54848 12.0376 4.11525 14.2605 4.00222 14.3653C3.89114 14.4687 3.82812 14.6137 3.82812 14.7656C3.82812 14.9173 3.89114 15.0623 4.00223 15.1659C4.1284 15.283 7.12196 18.0281 10.9023 18.0453C10.4861 18.5069 10.1442 19.0413 9.92599 19.6477L8.91395 22.4219ZM11.282 32.8125H6.70669C5.72243 32.8125 4.92188 32.0119 4.92188 31.0277C4.92188 30.5152 5.13176 30.0439 5.51254 29.7011C5.84473 29.4017 6.26129 29.2423 6.70029 29.2423C6.76438 29.2423 6.829 29.2455 6.89362 29.2525L23.811 31.0333C24.266 31.0811 24.6094 31.4627 24.6094 31.9203C24.6094 32.4122 24.2094 32.8125 23.7175 32.8125H11.282ZM28.1171 29.2535C28.1806 29.2455 28.2404 29.2466 28.3008 29.2468C29.2808 29.2468 30.0781 30.0466 30.0781 31.0298C30.0781 32.0127 29.2786 32.8125 28.2954 32.8125H25.4817C25.6186 32.543 25.7031 32.2427 25.7031 31.9203C25.7031 30.9014 24.9389 30.0522 23.9252 29.9454L22.7343 29.82L28.1171 29.2535ZM25.1894 23.1562C25.2679 23.3719 25.4735 23.5156 25.7031 23.5156H30.5566C30.4605 23.8905 30.2666 24.235 29.9889 24.5159C29.5713 24.9287 29.0202 25.1562 28.4375 25.1562H23.8708L21.828 20.5591C21.7228 20.3233 21.4718 20.1911 21.2144 20.2464C20.9618 20.2998 20.7812 20.523 20.7812 20.7812V27.3437C20.7812 27.4887 20.8389 27.6278 20.9415 27.7304L22.0076 28.7967L17.5094 29.27L12.9943 28.7947L14.0585 27.7304C14.1611 27.6278 14.2188 27.4887 14.2188 27.3437V20.7812C14.2188 20.523 14.0382 20.2998 13.7856 20.2464C13.5293 20.1911 13.2767 20.3233 13.172 20.5591L11.1292 25.1562H6.5625C5.97984 25.1562 5.4287 24.9287 5.01534 24.5202C4.73442 24.2363 4.53949 23.8908 4.44336 23.5156H9.29688C9.52652 23.5156 9.73213 23.3719 9.81064 23.1562L10.9546 20.0202C11.4967 18.5128 12.9402 17.5 14.5467 17.5H20.4533C22.0598 17.5 23.5033 18.5128 24.0465 20.0226L25.1894 23.1562ZM16.1926 16.4062C16.7635 16.0538 17.2107 15.718 17.5 15.4841C17.7893 15.718 18.2365 16.0537 18.8074 16.4062H16.1926ZM24.0625 16.9531C21.917 16.9531 20.0022 15.9094 18.8886 15.1474C20.3065 14.8927 22.5596 14.2386 24.3191 12.5868C26.7458 12.6803 28.8496 14.0635 29.7652 14.7656C28.8183 15.4925 26.5987 16.9531 24.0625 16.9531ZM23.7031 11.6718C22.1769 13.1983 20.0709 13.8121 18.7464 14.0577C19.5714 12.872 20.7023 10.8187 20.7713 8.42824C22.5576 6.75708 25.0412 6.24392 26.1897 6.09278C26.0353 7.26984 25.5018 9.85388 23.7031 11.6718ZM17.5005 2.49964C18.2274 3.44439 19.6875 5.65886 19.6875 8.20311C19.6875 10.7393 18.2258 12.9597 17.4995 13.9066C16.7726 12.9618 15.3125 10.7474 15.3125 8.20311C15.3125 5.66686 16.7742 3.44652 17.5005 2.49964ZM14.2287 8.42821C14.2977 10.8193 15.4293 12.8732 16.2543 14.0587C14.9297 13.8129 12.8197 13.1951 11.2718 11.6467C9.49768 9.85361 8.96576 7.26931 8.81088 6.09171C9.95787 6.24104 12.4372 6.75147 14.2287 8.42821ZM10.6785 12.5869C12.4232 14.2406 14.6863 14.8939 16.1103 15.1482C14.9965 15.9101 13.0823 16.9531 10.9375 16.9531C8.40126 16.9531 6.18172 15.4925 5.23484 14.7656C6.15007 14.0637 8.25279 12.6812 10.6785 12.5869Z" fill="#BC8C44"/>
<path id="Vector_2" d="M16.9531 18.5938H18.0469V19.6875H16.9531V18.5938Z" fill="#BC8C44"/>
<path id="Vector_3" d="M16.9531 20.7812H18.0469V21.875H16.9531V20.7812Z" fill="#BC8C44"/>
<path id="Vector_4" d="M16.9531 22.9688H18.0469V24.0625H16.9531V22.9688Z" fill="#BC8C44"/>
</g>
</svg>
