<svg width="32" height="32" viewBox="0 0 32 32" fill="none" xmlns="http://www.w3.org/2000/svg">
<g id="Layer_1" clip-path="url(#clip0_1182_15956)">
<path id="Vector" d="M7.07597 13.9C7.07597 14.0326 7.02329 14.1598 6.92952 14.2536C6.83576 14.3473 6.70858 14.4 6.57597 14.4H5.95584C5.82324 14.4 5.69606 14.3473 5.60229 14.2536C5.50852 14.1598 5.45584 14.0326 5.45584 13.9C5.45584 13.7674 5.50852 13.6402 5.60229 13.5464C5.69606 13.4527 5.82324 13.4 5.95584 13.4H6.57597C6.70858 13.4 6.83576 13.4527 6.92952 13.5464C7.02329 13.6402 7.07597 13.7674 7.07597 13.9ZM8.86672 14.4H10.447C10.8367 14.3999 11.2213 14.3117 11.5721 14.142C11.9228 13.9723 12.2307 13.7254 12.4725 13.4199C12.7169 13.5124 12.9349 13.6634 13.1074 13.8597C13.2798 14.056 13.4014 14.2916 13.4616 14.5459C13.4765 14.6101 13.504 14.6706 13.5425 14.7242C13.5809 14.7777 13.6296 14.8231 13.6856 14.8577C13.7417 14.8924 13.804 14.9156 13.8691 14.9261C13.9341 14.9366 14.0006 14.9341 14.0647 14.9188C14.1288 14.9035 14.1892 14.8756 14.2425 14.8369C14.2959 14.7981 14.341 14.7492 14.3753 14.693C14.4096 14.6368 14.4325 14.5743 14.4426 14.5092C14.4527 14.444 14.4499 14.3776 14.4342 14.3136C14.3408 13.9195 14.1564 13.5528 13.8959 13.2427C13.6353 12.9326 13.3058 12.6878 12.9338 12.5279C13.0454 12.1423 13.0659 11.7361 12.9935 11.3413C12.921 10.9464 12.7578 10.5739 12.5165 10.2531C12.2753 9.93223 11.9627 9.67192 11.6036 9.49272C11.2444 9.31352 10.8484 9.22035 10.447 9.22056C10.3144 9.22056 10.1872 9.27324 10.0935 9.36701C9.99971 9.46078 9.94703 9.58795 9.94703 9.72056C9.94703 9.85317 9.99971 9.98035 10.0935 10.0741C10.1872 10.1679 10.3144 10.2206 10.447 10.2206C10.7231 10.2206 10.9945 10.2925 11.2343 10.4293C11.4741 10.5661 11.6741 10.7631 11.8146 11.0007C11.9551 11.2384 12.0313 11.5086 12.0356 11.7846C12.0399 12.0607 11.9722 12.3331 11.8391 12.575C11.8296 12.5896 11.821 12.6047 11.8131 12.6202C11.6726 12.8576 11.4728 13.0543 11.2333 13.191C10.9938 13.3277 10.7228 13.3998 10.447 13.4H8.86672C8.73411 13.4 8.60693 13.4527 8.51317 13.5464C8.4194 13.6402 8.36672 13.7674 8.36672 13.9C8.36672 14.0326 8.4194 14.1598 8.51317 14.2536C8.60693 14.3473 8.73411 14.4 8.86672 14.4ZM12.7488 19.1562C12.7488 19.0236 12.6962 18.8965 12.6024 18.8027C12.5086 18.7089 12.3815 18.6562 12.2488 18.6562H10.3937C9.61058 18.6571 8.85976 18.9686 8.30599 19.5223C7.75222 20.0761 7.44072 20.8269 7.43985 21.6101C7.43985 21.7427 7.49252 21.8698 7.58629 21.9636C7.68006 22.0574 7.80724 22.1101 7.93985 22.1101C8.07245 22.1101 8.19963 22.0574 8.2934 21.9636C8.38717 21.8698 8.43984 21.7427 8.43984 21.6101C8.44049 21.0921 8.64655 20.5955 9.01284 20.2292C9.37912 19.8629 9.87572 19.6569 10.3937 19.6562H12.2486C12.3143 19.6563 12.3793 19.6434 12.44 19.6183C12.5007 19.5931 12.5559 19.5563 12.6023 19.5099C12.6488 19.4635 12.6856 19.4083 12.7108 19.3476C12.7359 19.287 12.7488 19.2219 12.7488 19.1562ZM12.1044 23.6253C11.981 23.674 11.8821 23.7696 11.8293 23.8913C11.7764 24.0129 11.7741 24.1505 11.8228 24.2739C11.8714 24.3973 11.9671 24.4962 12.0887 24.5491C12.2103 24.6019 12.348 24.6042 12.4713 24.5556C12.605 24.5022 12.7515 24.4893 12.8924 24.5183C13.0334 24.5473 13.1628 24.617 13.2646 24.7188C13.3664 24.8206 13.4361 24.95 13.465 25.091C13.494 25.232 13.481 25.3784 13.4276 25.5121C13.4035 25.5732 13.3917 25.6384 13.3928 25.7041C13.3939 25.7697 13.4079 25.8345 13.4341 25.8948C13.4602 25.955 13.498 26.0095 13.5452 26.0551C13.5924 26.1007 13.6482 26.1366 13.7093 26.1607C13.7703 26.1848 13.8356 26.1966 13.9012 26.1955C13.9669 26.1944 14.0317 26.1804 14.0919 26.1542C14.1521 26.1281 14.2066 26.0903 14.2522 26.0431C14.2979 25.9959 14.3338 25.9401 14.3578 25.8791C14.4828 25.5641 14.5128 25.2194 14.4442 24.8875C14.3755 24.5557 14.2113 24.2511 13.9717 24.0115C13.7321 23.7719 13.4276 23.6076 13.0957 23.539C12.7638 23.4704 12.4192 23.5004 12.1042 23.6253H12.1044ZM27.1357 22.9721C27.145 23.0896 27.1512 23.2077 27.1512 23.3268C27.1498 24.4634 26.7073 25.5552 25.9171 26.3721C25.1268 27.189 24.0504 27.6675 22.9144 27.7066C22.786 28.7523 22.2798 29.7151 21.4912 30.4137C20.7026 31.1123 19.6858 31.4986 18.6323 31.5C17.3055 31.5 16.4707 30.9412 15.9994 30.1908C15.5278 30.9412 14.6925 31.5 13.365 31.5C12.3118 31.4984 11.2954 31.1119 10.5071 30.4133C9.71889 29.7147 9.21311 28.7521 9.08497 27.7067C7.94869 27.668 6.8718 27.1898 6.08115 26.3727C5.2905 25.5557 4.84784 24.4637 4.84641 23.3268C4.84641 23.2077 4.85266 23.0893 4.86197 22.9721C4.20683 22.7928 3.60855 22.4486 3.12418 21.9725C2.6398 21.4963 2.28548 20.904 2.09501 20.2521C1.90453 19.6001 1.88426 18.9102 2.03611 18.2482C2.18797 17.5861 2.50689 16.974 2.96247 16.4702C2.48323 15.9406 2.15561 15.2916 2.01409 14.5915C1.87257 13.8914 1.92237 13.1661 2.15826 12.4919C2.39415 11.8177 2.8074 11.2196 3.35454 10.7604C3.90167 10.3013 4.56245 9.99807 5.26734 9.88275C5.05106 8.98286 5.11657 8.03824 5.45501 7.17682C5.79345 6.3154 6.38847 5.57881 7.15947 5.06681C7.7352 4.68589 8.39136 4.44353 9.07647 4.35875C9.18988 3.30002 9.69042 2.3205 10.482 1.60829C11.2735 0.896079 12.3002 0.501386 13.365 0.5C14.6925 0.5 15.5275 1.05881 15.9994 1.80925C16.4707 1.05881 17.3055 0.5 18.6323 0.5C19.6973 0.501167 20.7243 0.895706 21.5162 1.60786C22.308 2.32002 22.8089 3.29959 22.9227 4.3585C23.5513 4.43729 24.1562 4.64809 24.6977 4.97709C25.2391 5.30609 25.7049 5.74585 26.0644 6.26751C26.424 6.78918 26.6692 7.38097 26.784 8.00406C26.8987 8.62715 26.8804 9.26747 26.7303 9.883C27.4351 9.99838 28.0957 10.3015 28.6427 10.7606C29.1897 11.2196 29.6028 11.8176 29.8387 12.4916C30.0747 13.1656 30.1246 13.8908 29.9832 14.5907C29.8419 15.2907 29.5145 15.9396 29.0356 16.4693C29.491 16.9733 29.8097 17.5855 29.9614 18.2476C30.1131 18.9096 30.0927 19.5995 29.9022 20.2515C29.7117 20.9035 29.3575 21.4958 28.8732 21.972C28.3889 22.4483 27.7907 22.7925 27.1357 22.9721ZM26.1512 23.3268C26.1523 22.8497 26.0514 22.3779 25.8552 21.943C25.8282 21.8831 25.8133 21.8185 25.8113 21.7529C25.8092 21.6873 25.8202 21.6219 25.8434 21.5605C25.8904 21.4365 25.9847 21.3362 26.1056 21.2817C26.2265 21.2272 26.3641 21.223 26.4881 21.27C26.6122 21.317 26.7124 21.4113 26.7669 21.5322C26.8337 21.6806 26.8921 21.8327 26.9419 21.9877C27.4249 21.8424 27.863 21.5769 28.2153 21.216C28.5676 20.8551 28.8224 20.4107 28.956 19.9244C29.0895 19.4381 29.0974 18.9258 28.9788 18.4356C28.8603 17.9454 28.6192 17.4933 28.2782 17.1218C27.6283 17.5541 26.865 17.7844 26.0844 17.7836C25.9518 17.7836 25.8246 17.7309 25.7309 17.6372C25.6371 17.5434 25.5844 17.4162 25.5844 17.2836C25.5844 17.151 25.6371 17.0238 25.7309 16.9301C25.8246 16.8363 25.9518 16.7836 26.0844 16.7836C26.5199 16.7834 26.95 16.6876 27.3444 16.503C27.7388 16.3184 28.088 16.0496 28.3672 15.7154C28.6464 15.3812 28.8489 14.9898 28.9604 14.5689C29.0719 14.1479 29.0897 13.7076 29.0125 13.279C28.9353 12.8505 28.7651 12.444 28.5137 12.0884C28.2624 11.7328 27.9361 11.4366 27.5579 11.2208C27.1796 11.0051 26.7586 10.8749 26.3246 10.8395C25.8906 10.8041 25.4541 10.8643 25.0458 11.016C24.922 11.0608 24.7855 11.0549 24.666 10.9996C24.5465 10.9443 24.4536 10.8441 24.4075 10.7208C24.3614 10.5974 24.3659 10.4609 24.4198 10.3408C24.4738 10.2207 24.573 10.1267 24.6958 10.0793C25.0205 9.9581 25.3598 9.88035 25.7048 9.84806C25.9521 9.04308 25.9009 8.17595 25.5605 7.40569C25.2202 6.63543 24.6136 6.01368 23.852 5.65446C23.0903 5.29524 22.2247 5.22264 21.4139 5.44997C20.6031 5.6773 19.9014 6.18932 19.4375 6.89213C19.4015 6.94755 19.355 6.9953 19.3005 7.03262C19.246 7.06995 19.1847 7.09611 19.12 7.10959C19.0553 7.12308 18.9887 7.12362 18.9238 7.11118C18.8589 7.09875 18.7972 7.07358 18.7421 7.03714C18.687 7.0007 18.6397 6.95371 18.6028 6.89888C18.566 6.84405 18.5404 6.78246 18.5275 6.71768C18.5147 6.6529 18.5147 6.58621 18.5278 6.52146C18.5408 6.45671 18.5665 6.39519 18.6035 6.34044C18.9723 5.78296 19.4608 5.31474 20.0334 4.96985C20.606 4.62496 21.2482 4.41207 21.9135 4.34669C21.8 3.55705 21.4059 2.83472 20.8033 2.31194C20.2007 1.78916 19.43 1.50092 18.6323 1.5C16.7073 1.5 16.4995 3.00263 16.4995 3.64869V7.92906C16.4995 8.06167 16.4469 8.18885 16.3531 8.28262C16.2593 8.37638 16.1321 8.42906 15.9995 8.42906C15.8669 8.42906 15.7397 8.37638 15.646 8.28262C15.5522 8.18885 15.4995 8.06167 15.4995 7.92906V3.64869C15.4995 3.00263 15.2915 1.5 13.365 1.5C12.5675 1.50108 11.7971 1.78944 11.1948 2.31227C10.5926 2.83511 10.1989 3.55741 10.0858 4.34688C10.7507 4.41247 11.3927 4.62545 11.9649 4.97034C12.5372 5.31522 13.0254 5.78334 13.394 6.34062C13.4306 6.39538 13.4559 6.45681 13.4687 6.5214C13.4814 6.58598 13.4813 6.65245 13.4683 6.71698C13.4553 6.78151 13.4296 6.84283 13.3929 6.89744C13.3561 6.95204 13.3089 6.99885 13.254 7.03517C13.1991 7.07149 13.1376 7.09661 13.0729 7.10909C13.0083 7.12158 12.9418 7.12117 12.8774 7.1079C12.8129 7.09464 12.7517 7.06877 12.6972 7.03178C12.6428 6.9948 12.5961 6.94742 12.56 6.89237C12.0962 6.18962 11.3945 5.67764 10.5837 5.45034C9.77297 5.22304 8.90742 5.29566 8.14585 5.65487C7.38428 6.01409 6.77774 6.63582 6.43747 7.40604C6.09719 8.17626 6.046 9.04334 6.29328 9.84825C6.63823 9.8806 6.97739 9.95835 7.30197 10.0795C7.42481 10.1269 7.52399 10.2209 7.57797 10.341C7.63195 10.4611 7.63637 10.5976 7.59028 10.721C7.5442 10.8443 7.45131 10.9445 7.3318 10.9998C7.21229 11.055 7.0758 11.0609 6.95197 11.0162C6.54365 10.8642 6.10694 10.8036 5.67266 10.8388C5.23837 10.874 4.81711 11.004 4.43859 11.2198C4.06006 11.4356 3.73351 11.7318 3.48198 12.0876C3.23045 12.4434 3.06006 12.85 2.98284 13.2788C2.90563 13.7076 2.92347 14.1481 3.0351 14.5693C3.14674 14.9905 3.34945 15.382 3.62893 15.7162C3.9084 16.0505 4.25784 16.3194 4.65257 16.5038C5.0473 16.6883 5.4777 16.7839 5.91341 16.7838C6.04602 16.7838 6.17319 16.8365 6.26696 16.9303C6.36073 17.024 6.41341 17.1512 6.41341 17.2838C6.41341 17.4164 6.36073 17.5436 6.26696 17.6374C6.17319 17.7311 6.04602 17.7838 5.91341 17.7838C5.13323 17.7845 4.37028 17.5544 3.72059 17.1224C3.37936 17.4938 3.13806 17.9457 3.01933 18.4358C2.90059 18.9259 2.90833 19.4382 3.0418 19.9245C3.17527 20.4108 3.43011 20.8553 3.7824 21.2161C4.13468 21.577 4.57287 21.8424 5.05584 21.9875C5.10562 21.8325 5.16405 21.6805 5.23084 21.5321C5.28532 21.4112 5.3856 21.3168 5.50961 21.2699C5.63363 21.2229 5.77122 21.2271 5.89213 21.2816C6.01303 21.3361 6.10734 21.4363 6.15432 21.5604C6.20129 21.6844 6.19707 21.822 6.14259 21.9429C5.94642 22.3778 5.84549 22.8496 5.84659 23.3267C5.84764 24.2237 6.20444 25.0837 6.83875 25.7181C7.47305 26.3524 8.33305 26.7092 9.23009 26.7103C9.28172 26.7103 9.33322 26.7085 9.38459 26.7061C9.46559 26.6765 9.55304 26.6689 9.63791 26.6844C10.4497 26.5845 11.1984 26.1956 11.7469 25.5888C11.8358 25.4904 11.9602 25.4313 12.0926 25.4246C12.225 25.4179 12.3547 25.4641 12.4531 25.553C12.5515 25.6419 12.6106 25.7662 12.6173 25.8987C12.624 26.0311 12.5779 26.1608 12.489 26.2592C11.8542 26.961 11.0104 27.4399 10.0824 27.625C10.1894 28.4201 10.581 29.1496 11.1845 29.6782C11.7881 30.2068 12.5627 30.4987 13.365 30.5C15.2915 30.5 15.4995 28.9974 15.4995 28.3513V24.0691C15.4995 23.9365 15.5522 23.8093 15.646 23.7156C15.7397 23.6218 15.8669 23.5691 15.9995 23.5691C16.1321 23.5691 16.2593 23.6218 16.3531 23.7156C16.4469 23.8093 16.4995 23.9365 16.4995 24.0691V28.3513C16.4995 28.9974 16.7073 30.5 18.6323 30.5C19.4348 30.4989 20.2098 30.207 20.8136 29.6784C21.4175 29.1498 21.8094 28.4203 21.9167 27.625C20.9882 27.4405 20.1441 26.9613 19.5098 26.2586C19.4211 26.1601 19.3751 26.0304 19.382 25.8979C19.3889 25.7655 19.4481 25.6412 19.5466 25.5524C19.6451 25.4637 19.7749 25.4177 19.9073 25.4246C20.0397 25.4314 20.164 25.4907 20.2528 25.5892C20.8005 26.1962 21.5489 26.5852 22.3605 26.6844C22.4457 26.6688 22.5335 26.6763 22.6149 26.7061C22.6656 26.7084 22.7164 26.7101 22.7673 26.7101C23.6644 26.7091 24.5244 26.3523 25.1587 25.7181C25.793 25.0838 26.1499 24.2238 26.151 23.3268H26.1512ZM26.5432 13.9C26.5432 13.7674 26.4905 13.6402 26.3968 13.5464C26.303 13.4527 26.1758 13.4 26.0432 13.4H25.4214C25.2888 13.4 25.1616 13.4527 25.0679 13.5464C24.9741 13.6402 24.9214 13.7674 24.9214 13.9C24.9214 14.0326 24.9741 14.1598 25.0679 14.2536C25.1616 14.3473 25.2888 14.4 25.4214 14.4H26.0432C26.1758 14.4 26.303 14.3473 26.3968 14.2536C26.4905 14.1598 26.5432 14.0326 26.5432 13.9ZM17.9361 14.916C18 14.9312 18.0663 14.9336 18.1311 14.9232C18.196 14.9127 18.2581 14.8896 18.314 14.8551C18.3699 14.8206 18.4184 14.7754 18.4568 14.7221C18.4952 14.6688 18.5227 14.6084 18.5377 14.5445C18.5974 14.2904 18.7187 14.0549 18.8909 13.8588C19.0632 13.6626 19.281 13.5119 19.5252 13.4198C19.7673 13.7254 20.0754 13.9723 20.4264 14.142C20.7774 14.3117 21.1622 14.3999 21.552 14.4H23.1323C23.265 14.4 23.3921 14.3473 23.4859 14.2536C23.5797 14.1598 23.6323 14.0326 23.6323 13.9C23.6323 13.7674 23.5797 13.6402 23.4859 13.5464C23.3921 13.4527 23.265 13.4 23.1323 13.4H21.552C21.2783 13.3998 21.0092 13.329 20.7708 13.1945C20.5325 13.0599 20.3328 12.8661 20.1912 12.6319C20.1801 12.6084 20.1671 12.5858 20.1525 12.5644C20.0216 12.3222 19.9559 12.0502 19.9618 11.775C19.9677 11.4998 20.0449 11.2309 20.186 10.9946C20.3271 10.7582 20.5272 10.5626 20.7667 10.4269C21.0062 10.2911 21.2768 10.2199 21.552 10.2203C21.6846 10.2203 21.8118 10.1676 21.9056 10.0738C21.9994 9.98003 22.052 9.85286 22.052 9.72025C22.052 9.58764 21.9994 9.46046 21.9056 9.3667C21.8118 9.27293 21.6846 9.22025 21.552 9.22025C21.1505 9.21977 20.7543 9.31276 20.3948 9.49187C20.0354 9.67098 19.7226 9.9313 19.4812 10.2522C19.2398 10.5731 19.0764 10.9458 19.0039 11.3408C18.9314 11.7358 18.9519 12.1422 19.0637 12.5279C18.6915 12.6877 18.362 12.9325 18.1016 13.2428C17.8413 13.553 17.6573 13.92 17.5646 14.3143C17.5495 14.3782 17.5471 14.4445 17.5576 14.5093C17.5681 14.5741 17.5912 14.6362 17.6257 14.6921C17.6602 14.748 17.7054 14.7965 17.7586 14.8349C17.8119 14.8733 17.8722 14.9009 17.9361 14.916ZM21.6033 18.6562H19.7485C19.6159 18.6562 19.4887 18.7089 19.3949 18.8027C19.3011 18.8965 19.2485 19.0236 19.2485 19.1562C19.2485 19.2889 19.3011 19.416 19.3949 19.5098C19.4887 19.6036 19.6159 19.6562 19.7485 19.6562H21.6033C22.1216 19.6566 22.6185 19.8625 22.9851 20.2288C23.3517 20.5951 23.5581 21.0918 23.5589 21.6101C23.5589 21.7427 23.6116 21.8698 23.7054 21.9636C23.7991 22.0574 23.9263 22.1101 24.0589 22.1101C24.1915 22.1101 24.3187 22.0574 24.4125 21.9636C24.5062 21.8698 24.5589 21.7427 24.5589 21.6101C24.5578 20.8267 24.246 20.0758 23.6919 19.522C23.1378 18.9683 22.3867 18.6569 21.6033 18.6562ZM19.8929 23.6253C19.5779 23.5004 19.2332 23.4704 18.9014 23.539C18.5695 23.6076 18.265 23.7719 18.0254 24.0115C17.7858 24.2511 17.6215 24.5557 17.5529 24.8875C17.4843 25.2194 17.5143 25.5641 17.6392 25.8791C17.6879 26.0024 17.7835 26.1014 17.9052 26.1542C18.0268 26.207 18.1645 26.2094 18.2878 26.1607C18.4112 26.1121 18.5101 26.0164 18.563 25.8948C18.6158 25.7731 18.6181 25.6355 18.5695 25.5121C18.5161 25.3784 18.5031 25.232 18.532 25.091C18.561 24.95 18.6307 24.8206 18.7325 24.7188C18.8342 24.617 18.9636 24.5473 19.1046 24.5183C19.2456 24.4893 19.392 24.5022 19.5257 24.5556C19.5868 24.5797 19.652 24.5915 19.7177 24.5904C19.7833 24.5893 19.8481 24.5752 19.9083 24.5491C19.9686 24.5229 20.0231 24.4851 20.0687 24.4379C20.1143 24.3907 20.1502 24.335 20.1743 24.2739C20.1984 24.2128 20.2102 24.1476 20.2091 24.0819C20.208 24.0163 20.194 23.9515 20.1678 23.8913C20.1417 23.831 20.1039 23.7766 20.0567 23.7309C20.0095 23.6853 19.9537 23.6494 19.8927 23.6253H19.8929ZM18.4041 16.9452C18.4041 16.8126 18.3514 16.6854 18.2576 16.5916C18.1639 16.4979 18.0367 16.4452 17.9041 16.4452C17.5358 16.4452 17.1725 16.53 16.8422 16.6929C16.5119 16.8558 16.2235 17.0925 15.9993 17.3846C15.7749 17.0924 15.4862 16.8557 15.1557 16.6928C14.8251 16.5299 14.4616 16.4452 14.0931 16.4452C13.9605 16.4452 13.8333 16.4979 13.7395 16.5916C13.6458 16.6854 13.5931 16.8126 13.5931 16.9452C13.5931 17.0778 13.6458 17.205 13.7395 17.2987C13.8333 17.3925 13.9605 17.4452 14.0931 17.4452C14.4657 17.4454 14.823 17.5934 15.0866 17.8567C15.3502 18.12 15.4987 18.4772 15.4993 18.8498V20.2919C15.4993 20.4245 15.552 20.5517 15.6458 20.6454C15.7396 20.7392 15.8667 20.7919 15.9993 20.7919C16.132 20.7919 16.2591 20.7392 16.3529 20.6454C16.4467 20.5517 16.4993 20.4245 16.4993 20.2919V18.85C16.4998 18.4776 16.6479 18.1206 16.9112 17.8573C17.1745 17.594 17.5315 17.4459 17.9039 17.4454C17.9696 17.4455 18.0347 17.4325 18.0954 17.4074C18.1561 17.3823 18.2112 17.3454 18.2577 17.299C18.3041 17.2525 18.341 17.1974 18.3661 17.1367C18.3912 17.0759 18.4041 17.0109 18.4041 16.9452ZM1.82172 1.63331C1.72776 1.54048 1.60089 1.4886 1.46881 1.48899C1.33673 1.48939 1.21017 1.54203 1.11677 1.63542C1.02337 1.72881 0.970713 1.85537 0.970306 1.98745C0.969899 2.11953 1.02177 2.24641 1.11459 2.34037L2.88959 4.11538C2.93601 4.16182 2.99112 4.19867 3.05177 4.22382C3.11243 4.24897 3.17744 4.26193 3.24311 4.26195C3.30877 4.26197 3.37379 4.24906 3.43447 4.22396C3.49514 4.19885 3.55027 4.16204 3.59672 4.11562C3.64317 4.06921 3.68002 4.0141 3.70517 3.95345C3.73032 3.89279 3.74327 3.82778 3.7433 3.76211C3.74332 3.69645 3.73041 3.63143 3.7053 3.57075C3.68019 3.51008 3.64338 3.45495 3.59697 3.4085L1.82172 1.63331ZM3.40922 28.4016L1.63222 30.1766C1.58577 30.223 1.54891 30.2781 1.52376 30.3387C1.4986 30.3994 1.48564 30.4644 1.48561 30.5301C1.48555 30.6627 1.53818 30.7899 1.63191 30.8837C1.72564 30.9775 1.85279 31.0302 1.9854 31.0303C2.11802 31.0304 2.24522 30.9777 2.33903 30.884L4.11597 29.109C4.20885 29.0151 4.26079 28.8882 4.26045 28.7561C4.26012 28.6241 4.20753 28.4975 4.11418 28.404C4.02083 28.3106 3.89429 28.2579 3.76221 28.2574C3.63013 28.257 3.50323 28.3088 3.40922 28.4016ZM29.1078 27.8828C29.0141 27.7889 28.887 27.7361 28.7543 27.736C28.6217 27.7359 28.4944 27.7885 28.4005 27.8822C28.3067 27.976 28.2539 28.1031 28.2538 28.2358C28.2537 28.3684 28.3062 28.4957 28.4 28.5896L30.175 30.3666C30.2214 30.413 30.2765 30.4499 30.3371 30.475C30.3978 30.5002 30.4628 30.5132 30.5285 30.5132C30.5941 30.5132 30.6591 30.5003 30.7198 30.4752C30.7805 30.4501 30.8356 30.4133 30.8821 30.3669C30.9286 30.3205 30.9654 30.2654 30.9906 30.2048C31.0157 30.1441 31.0287 30.0791 31.0287 30.0135C31.0288 29.9478 31.0159 29.8828 30.9908 29.8221C30.9657 29.7614 30.9289 29.7063 30.8825 29.6598L29.1078 27.8828ZM29.6583 1.11594L27.8833 2.89094C27.8365 2.93727 27.7992 2.99241 27.7737 3.05319C27.7482 3.11398 27.735 3.1792 27.7348 3.24512C27.7346 3.31104 27.7474 3.37634 27.7725 3.43728C27.7977 3.49821 27.8346 3.55358 27.8812 3.60018C27.9278 3.64679 27.9832 3.68372 28.0441 3.70885C28.1051 3.73398 28.1704 3.74682 28.2363 3.74661C28.3022 3.74641 28.3674 3.73318 28.4282 3.70767C28.489 3.68217 28.5441 3.64489 28.5905 3.598L30.3655 1.823C30.4592 1.72922 30.5119 1.60203 30.5119 1.46942C30.5119 1.3368 30.4592 1.20961 30.3654 1.11584C30.2717 1.02207 30.1445 0.969397 30.0119 0.969403C29.8792 0.969408 29.7521 1.0221 29.6583 1.11588L29.6583 1.11594ZM1.00391 15.4991H0.998657C0.865582 15.4998 0.738214 15.5533 0.644483 15.6477C0.550753 15.7422 0.498311 15.87 0.498659 16.0031C0.499006 16.1361 0.552115 16.2636 0.646337 16.3576C0.74056 16.4516 0.868205 16.5044 1.00128 16.5044C1.13436 16.5044 1.262 16.4516 1.35623 16.3576C1.45045 16.2636 1.50356 16.1361 1.50391 16.0031C1.50425 15.87 1.45181 15.7422 1.35808 15.6477C1.26435 15.5533 1.13698 15.4998 1.00391 15.4991ZM30.9987 15.4991H30.9933C30.8603 15.4998 30.7329 15.5533 30.6391 15.6478C30.5454 15.7422 30.493 15.87 30.4933 16.0031C30.4937 16.1362 30.5468 16.2637 30.641 16.3577C30.7352 16.4517 30.8629 16.5045 30.996 16.5045C31.1291 16.5045 31.2568 16.4517 31.351 16.3577C31.4452 16.2637 31.4983 16.1362 31.4987 16.0031C31.499 15.87 31.4466 15.7422 31.3529 15.6478C31.2591 15.5533 31.1317 15.4998 30.9987 15.4991Z" fill="#BC8C44"/>
</g>
<defs>
<clipPath id="clip0_1182_15956">
<rect width="32" height="32" fill="white"/>
</clipPath>
</defs>
</svg>
