<svg width="33" height="33" viewBox="0 0 33 33" fill="none" xmlns="http://www.w3.org/2000/svg">
<g id="Icon" clip-path="url(#clip0_1119_1934)">
<path id="Vector" d="M30.8609 0.763138C29.6423 0.316566 27.9472 0.090332 25.8232 0.090332C23.6991 0.090332 22.004 0.316566 20.7854 0.763138C19.9507 1.06872 19.3899 1.87662 19.3899 2.77405V7.89917C19.3899 10.7083 19.747 12.5322 20.0467 13.5663C20.3078 14.4707 21.1537 15.1011 22.1037 15.1011H23.6788V19.4838C23.6788 19.8387 23.8053 20.1828 24.0213 20.4622H18.1526C18.6571 19.4071 19.3905 17.3924 19.3905 14.5854C19.3905 13.3915 18.4191 12.4206 17.2257 12.4206C16.5132 12.4206 15.8903 12.9251 15.7445 13.6204C15.3944 15.2872 14.9173 16.6124 14.327 17.5592C13.6167 18.7 12.7493 19.6092 12.1462 20.171C11.5752 20.7045 10.8198 20.9983 10.0211 20.9983H7.4467C7.26068 20.6793 6.91864 20.4622 6.52354 20.4622H1.16253C0.571214 20.4622 0.090332 20.943 0.090332 21.5344V30.6663C0.090332 31.2576 0.571214 31.7385 1.16253 31.7385H6.52354C6.91918 31.7385 7.26175 31.5203 7.44724 31.2008L10.4741 31.1879H10.4875C10.9721 31.1879 11.4583 31.3026 11.8931 31.5198C12.857 32.0012 13.9362 32.2564 15.0127 32.2564H20.653C21.6475 32.2564 22.5009 31.5165 22.5964 30.5714C22.6425 30.1082 22.516 29.645 22.2452 29.274C22.7309 28.9722 23.0746 28.4699 23.1325 27.8909C23.1786 27.4277 23.0521 26.9645 22.7813 26.5935C23.267 26.2917 23.6107 25.7894 23.6686 25.2104C23.7029 24.8651 23.6412 24.5215 23.4965 24.2149H27.6223C28.6168 24.2149 29.4702 23.475 29.5657 22.5299C29.6187 22.0008 29.4451 21.4716 29.0902 21.0797C28.7347 20.6873 28.2281 20.4622 27.6984 20.4622H27.6239C27.8394 20.1828 27.9665 19.8387 27.9665 19.4838V15.1011H29.5415C30.491 15.1011 31.3375 14.4702 31.5986 13.5668C31.8982 12.5316 32.2553 10.7083 32.2553 7.89917V2.77405C32.2553 1.87662 31.6945 1.06872 30.8598 0.763138H30.8609ZM6.52354 30.6663H1.16253V21.5344H6.52354V30.6663ZM28.2957 21.7992C28.45 21.9697 28.5224 22.1911 28.4994 22.4232C28.4592 22.8264 28.0737 23.1427 27.6228 23.1427H21.8024C21.5059 23.1427 21.2663 23.3823 21.2663 23.6788C21.2663 23.9752 21.5059 24.2149 21.8024 24.2149C22.0324 24.2149 22.2441 24.3092 22.3985 24.4797C22.5529 24.6502 22.6253 24.8716 22.6023 25.1037C22.5621 25.5069 22.1766 25.8232 21.7257 25.8232H21.2663C20.9698 25.8232 20.7302 26.0628 20.7302 26.3593C20.7302 26.6557 20.9698 26.8954 21.2663 26.8954C21.4963 26.8954 21.708 26.9897 21.8624 27.1602C22.0168 27.3307 22.0892 27.5521 22.0662 27.7842C22.026 28.1874 21.6405 28.5037 21.1896 28.5037H20.7302C20.4337 28.5037 20.1941 28.7433 20.1941 29.0398C20.1941 29.3362 20.4337 29.5759 20.7302 29.5759C20.9602 29.5759 21.1719 29.6702 21.3263 29.8407C21.4807 30.0112 21.5531 30.2326 21.5301 30.4647C21.4899 30.8679 21.1044 31.1842 20.6535 31.1842H15.0132C14.1019 31.1842 13.1889 30.9687 12.3724 30.5607C11.7886 30.269 11.1372 30.1157 10.4875 30.1157H10.4692L7.59574 30.128V22.0705H10.0205C11.0922 22.0705 12.107 21.6743 12.8769 20.9554C13.5272 20.349 14.4643 19.3664 15.2362 18.1269C15.893 17.0729 16.4167 15.6313 16.7925 13.8413C16.8354 13.636 17.0129 13.4934 17.2246 13.4934C17.8272 13.4934 18.3172 13.9834 18.3172 14.586C18.3172 18.4218 16.8172 20.6739 16.8033 20.6954C16.6907 20.8594 16.6784 21.0722 16.7706 21.2486C16.8633 21.4245 17.0461 21.5349 17.245 21.5349H27.699C27.929 21.5349 28.1407 21.6292 28.2951 21.7997L28.2957 21.7992ZM26.8954 19.4838C26.8954 19.6237 26.8391 19.7609 26.7399 19.8596L26.1373 20.4622H25.509L24.9064 19.8596C24.8072 19.7604 24.751 19.6237 24.751 19.4838V15.1011H26.8954V19.4838ZM31.1842 7.89917C31.1842 10.5829 30.8502 12.3 30.5698 13.2693C30.4406 13.7169 30.0181 14.0295 29.5432 14.0295H22.1037C21.6287 14.0295 21.2063 13.7169 21.0771 13.2688C20.7967 12.3 20.4627 10.5829 20.4627 7.89917V2.77405C20.4627 2.3248 20.7409 1.92165 21.1543 1.77047C21.9112 1.49277 23.3351 1.16253 25.8237 1.16253C28.3123 1.16253 29.7362 1.49277 30.4931 1.77047C30.9065 1.92165 31.1847 2.3248 31.1847 2.77405L31.1842 7.89917Z" fill="#BC8C44"/>
<path id="Vector_2" d="M29.272 2.53722C28.3338 2.33619 27.1737 2.23486 25.8232 2.23486C24.4728 2.23486 23.3137 2.33619 22.375 2.53722C21.8883 2.64069 21.5344 3.08137 21.5344 3.58423V7.05923C21.5344 7.65055 22.0153 8.13143 22.6066 8.13143H29.0398C29.6312 8.13143 30.112 7.65055 30.112 7.05923V3.58423C30.112 3.08137 29.7587 2.64069 29.272 2.53722ZM29.0398 7.05977H22.6066L22.5991 3.58584C23.4644 3.40088 24.5495 3.30706 25.8232 3.30706C27.097 3.30706 28.1826 3.40088 29.0393 3.58101V3.58476L29.0398 7.05977Z" fill="#BC8C44"/>
<path id="Vector_3" d="M23.6789 9.2041C22.7921 9.2041 22.0706 9.92569 22.0706 10.8124C22.0706 11.6991 22.7921 12.4207 23.6789 12.4207C24.5656 12.4207 25.2872 11.6991 25.2872 10.8124C25.2872 9.92569 24.5656 9.2041 23.6789 9.2041ZM23.6789 11.3485C23.3829 11.3485 23.1428 11.1083 23.1428 10.8124C23.1428 10.5165 23.3829 10.2763 23.6789 10.2763C23.9748 10.2763 24.215 10.5165 24.215 10.8124C24.215 11.1083 23.9748 11.3485 23.6789 11.3485Z" fill="#BC8C44"/>
<path id="Vector_4" d="M27.9677 9.2041C27.081 9.2041 26.3594 9.92569 26.3594 10.8124C26.3594 11.6991 27.081 12.4207 27.9677 12.4207C28.8544 12.4207 29.576 11.6991 29.576 10.8124C29.576 9.92569 28.8544 9.2041 27.9677 9.2041ZM27.9677 11.3485C27.6717 11.3485 27.4316 11.1083 27.4316 10.8124C27.4316 10.5165 27.6717 10.2763 27.9677 10.2763C28.2636 10.2763 28.5038 10.5165 28.5038 10.8124C28.5038 11.1083 28.2636 11.3485 27.9677 11.3485Z" fill="#BC8C44"/>
</g>
<defs>
<clipPath id="clip0_1119_1934">
<rect width="32.166" height="32.166" fill="white" transform="translate(0.090332 0.090332)"/>
</clipPath>
</defs>
</svg>
