<svg width="32" height="32" viewBox="0 0 32 32" fill="none" xmlns="http://www.w3.org/2000/svg">
<g id="Layer_1">
<path id="Vector" d="M31.1594 21.1877C31.1066 20.81 30.9509 20.4541 30.7092 20.1591C30.4676 19.864 30.1495 19.6411 29.7896 19.5148C29.4218 19.3772 29.0274 19.3254 28.6365 19.3633C28.2456 19.4012 27.8686 19.5279 27.534 19.7336L23.1866 22.3665C23.0145 21.7262 22.6574 21.1509 22.16 20.7125C21.6625 20.2741 21.0468 19.9922 20.39 19.9021L16.365 19.3516C15.0787 18.3922 13.2532 17.9829 10.9352 18.1354C9.07996 18.2573 7.44009 18.7037 6.73984 18.8944L1.18359 20.3795C1.05685 20.4133 0.948474 20.4956 0.881832 20.6086C0.815191 20.7216 0.79562 20.8562 0.827339 20.9835L2.6879 28.4469C2.70396 28.5113 2.73268 28.5719 2.7724 28.6251C2.81211 28.6783 2.86202 28.723 2.91922 28.7567C2.97641 28.7904 3.03975 28.8124 3.10553 28.8214C3.17131 28.8303 3.23821 28.8261 3.30234 28.8089L8.11246 27.5214L17.8294 28.9242C17.8909 28.933 17.9535 28.9304 18.014 28.9163L24.7467 27.3512C24.8139 27.3356 24.8771 27.3063 24.9324 27.2651L30.3687 23.2099C30.99 22.7393 31.2853 21.9815 31.1594 21.1877ZM29.7678 22.4106L24.4187 26.4009L17.8792 27.921L8.15371 26.517C8.13007 26.5136 8.10622 26.5119 8.08234 26.5119C8.03868 26.5119 7.9952 26.5176 7.95303 26.5289L3.53521 27.7114L1.91678 21.2185L6.99559 19.861L7.00253 19.8591C12.163 18.4543 14.6654 19.2806 15.856 20.2212C15.9261 20.2766 16.0097 20.3122 16.0982 20.3243L20.2551 20.8931C21.4102 21.0493 22.2863 22.0344 22.2952 23.1825V23.1937C22.2954 23.2222 22.289 23.2503 22.2766 23.2759C22.2642 23.3016 22.246 23.324 22.2235 23.3415C22.2023 23.3618 22.1766 23.377 22.1485 23.3859C22.1205 23.3947 22.0907 23.397 22.0617 23.3926L14.3595 22.4406C14.2279 22.4243 14.0952 22.461 13.9907 22.5426C13.8861 22.6241 13.8182 22.7439 13.8019 22.8755C13.7857 23.0071 13.8223 23.1398 13.9039 23.2444C13.9855 23.349 14.1052 23.4168 14.2368 23.4331L21.944 24.3854L21.9522 24.3863C22.2405 24.4174 22.5305 24.3445 22.7699 24.1806C23.0092 24.0167 23.1821 23.7727 23.2573 23.4926L28.0511 20.5894C28.2566 20.4621 28.4885 20.3835 28.729 20.3596C28.9696 20.3357 29.2124 20.3671 29.439 20.4514L29.4475 20.4545C29.6387 20.5196 29.8079 20.6371 29.9357 20.7935C30.0636 20.9499 30.1451 21.139 30.171 21.3394C30.2398 21.7739 30.0918 22.1651 29.7678 22.4106ZM8.90909 11.2708H10.2739C10.7372 12.0744 11.3638 12.8922 12.1539 13.724C13.5325 15.174 15.4073 16.6302 17.4329 17.8235L17.6865 17.9729L17.9401 17.8237C19.969 16.6308 21.8458 15.1748 23.225 13.7237C24.0142 12.8935 24.6405 12.0758 25.1038 11.2706H26.4643C26.5969 11.2706 26.7241 11.2179 26.8178 11.1241C26.9116 11.0303 26.9643 10.9032 26.9643 10.7706C26.9643 10.6379 26.9116 10.5108 26.8178 10.417C26.7241 10.3232 26.5969 10.2706 26.4643 10.2706H25.5972C25.8216 9.73624 25.9702 9.17309 26.0383 8.59756C26.2128 7.06274 25.7293 5.63774 24.677 4.58524C23.7593 3.67404 22.5358 3.13643 21.244 3.07683C19.9522 3.01723 18.6843 3.4399 17.6867 4.26274C16.6891 3.4399 15.4212 3.01723 14.1294 3.07683C12.8376 3.13643 11.6141 3.67404 10.6965 4.58524C9.65209 5.62968 9.1684 7.05399 9.33509 8.59774C9.40454 9.1735 9.55406 9.73673 9.77934 10.2711H8.90909C8.77648 10.2711 8.6493 10.3238 8.55554 10.4176C8.46177 10.5113 8.40909 10.6385 8.40909 10.7711C8.40909 10.9037 8.46177 11.0309 8.55554 11.1247C8.6493 11.2184 8.77648 11.2711 8.90909 11.2711V11.2708ZM17.687 16.8107C15.3287 15.3857 12.8457 13.3912 11.4437 11.2708H14.5567C14.6444 11.2708 14.7307 11.2477 14.8067 11.2038C14.8827 11.16 14.9459 11.0968 14.9898 11.0208L15.9449 9.36399L16.9307 13.0272C16.9579 13.1279 17.0159 13.2176 17.0966 13.2837C17.1773 13.3499 17.2766 13.3891 17.3807 13.3959C17.3918 13.3967 17.4029 13.3971 17.4138 13.3971C17.5125 13.3969 17.6089 13.3677 17.691 13.3129C17.773 13.2581 17.837 13.1803 17.8749 13.0892L18.9624 10.4789L19.8298 11.9806C19.8737 12.0566 19.9368 12.1197 20.0128 12.1636C20.0888 12.2075 20.175 12.2306 20.2628 12.2306C20.3505 12.2306 20.4368 12.2075 20.5128 12.1636C20.5888 12.1197 20.6519 12.0566 20.6958 11.9806L21.1052 11.2711H23.9337C22.5337 13.3924 20.0483 15.3867 17.687 16.8107ZM10.329 8.48774C10.2347 7.61449 10.3447 6.35124 11.4035 5.29243C12.192 4.51023 13.2576 4.07132 14.3683 4.07132C15.4789 4.07132 16.5446 4.51023 17.333 5.29243L17.6867 5.64599L18.0402 5.29243C18.8287 4.51023 19.8943 4.07131 21.005 4.07131C22.1156 4.07131 23.1813 4.51023 23.9698 5.29243C25.0367 6.35943 25.1432 7.61743 25.0445 8.48618C24.9666 9.10712 24.7844 9.71043 24.5054 10.2706H20.8168C20.7291 10.2706 20.6428 10.2937 20.5668 10.3376C20.4907 10.3815 20.4276 10.4446 20.3837 10.5206L20.2628 10.7301L19.323 9.10299C19.2763 9.02227 19.2081 8.95618 19.1259 8.9122C19.0437 8.86822 18.9508 8.8481 18.8578 8.85411C18.7648 8.86011 18.6753 8.89201 18.5994 8.94619C18.5235 9.00038 18.4643 9.07469 18.4285 9.16074L17.5156 11.3517L16.5968 7.93862C16.5711 7.84324 16.5176 7.75763 16.4432 7.6926C16.3689 7.62757 16.2769 7.58604 16.1789 7.57324C16.0809 7.56044 15.9814 7.57695 15.8928 7.62069C15.8042 7.66443 15.7306 7.73343 15.6812 7.81899L14.2678 10.2707H10.8711C10.5916 9.71102 10.4083 9.10828 10.329 8.48774Z" fill="#BC8C44"/>
</g>
</svg>
