<svg width="35" height="35" viewBox="0 0 35 35" fill="none" xmlns="http://www.w3.org/2000/svg">
<g id="Layer_3">
<path id="Vector" d="M34.2929 21.4882L31.8899 19.0858C28.0734 15.2695 22.8972 13.1255 17.5 13.1255C12.1028 13.1255 6.92658 15.2695 3.11008 19.0858L0.707115 21.4882C0.604591 21.5908 0.546997 21.7299 0.546997 21.8749C0.546997 22.0199 0.604591 22.159 0.707115 22.2615L3.11008 24.6639C6.92658 28.4803 12.1028 30.6243 17.5 30.6243C22.8972 30.6243 28.0734 28.4803 31.8899 24.6639L34.2929 22.261C34.3953 22.1584 34.4527 22.0195 34.4527 21.8746C34.4527 21.7297 34.3953 21.5908 34.2929 21.4882ZM31.1172 23.8912C27.5057 27.5027 22.6074 29.5316 17.5 29.5316C12.3926 29.5316 7.49433 27.5027 3.88282 23.8912L1.86704 21.8749L3.88282 19.8585C7.49433 16.2471 12.3926 14.2181 17.5 14.2181C22.6074 14.2181 27.5057 16.2471 31.1172 19.8585L33.133 21.8749L31.1172 23.8912Z" fill="#BC8C44"/>
<path id="Vector_2" d="M17.5 12.0311C20.03 12.0241 22.5362 12.519 24.8736 13.4871C27.2109 14.4552 29.3331 15.8773 31.1172 17.671L31.89 16.8983C28.0734 13.082 22.8973 10.938 17.5 10.938C12.1028 10.938 6.92661 13.082 3.11011 16.8983L3.88284 17.671C5.66695 15.8773 7.78911 14.4552 10.1265 13.4871C12.4639 12.519 14.9701 12.0241 17.5 12.0311Z" fill="#BC8C44"/>
<path id="Vector_3" d="M17.5 15.3125C16.2021 15.3125 14.9333 15.6974 13.8541 16.4185C12.7749 17.1396 11.9337 18.1645 11.437 19.3636C10.9403 20.5628 10.8104 21.8823 11.0636 23.1553C11.3168 24.4283 11.9418 25.5976 12.8596 26.5154C13.7774 27.4332 14.9467 28.0582 16.2197 28.3114C17.4927 28.5646 18.8122 28.4347 20.0114 27.938C21.2105 27.4413 22.2354 26.6001 22.9565 25.5209C23.6776 24.4417 24.0625 23.1729 24.0625 21.875C24.0606 20.1351 23.3686 18.467 22.1383 17.2367C20.908 16.0064 19.2399 15.3144 17.5 15.3125ZM17.5 27.3438C16.4184 27.3438 15.3611 27.023 14.4617 26.4221C13.5624 25.8212 12.8615 24.9671 12.4475 23.9678C12.0336 22.9685 11.9253 21.8689 12.1363 20.8081C12.3473 19.7473 12.8682 18.7728 13.633 18.008C14.3978 17.2432 15.3723 16.7223 16.4331 16.5113C17.4939 16.3003 18.5935 16.4086 19.5928 16.8225C20.5921 17.2365 21.4462 17.9374 22.0471 18.8367C22.648 19.7361 22.9688 20.7934 22.9688 21.875C22.9672 23.3249 22.3905 24.715 21.3652 25.7402C20.34 26.7655 18.9499 27.3422 17.5 27.3438Z" fill="#BC8C44"/>
<path id="Vector_4" d="M20.6226 20.2558C20.5366 20.3974 20.4196 20.5176 20.2803 20.6073C20.141 20.6971 19.9832 20.754 19.8187 20.7738C19.6543 20.7936 19.4874 20.7758 19.3308 20.7217C19.1742 20.6676 19.032 20.5787 18.9148 20.4616C18.7976 20.3445 18.7086 20.2023 18.6544 20.0457C18.6002 19.8892 18.5822 19.7224 18.6019 19.5579C18.6216 19.3934 18.6784 19.2355 18.768 19.0962C18.8577 18.9569 18.9778 18.8397 19.1193 18.7536C19.2071 18.7002 19.2781 18.6232 19.3242 18.5314C19.3702 18.4395 19.3895 18.3366 19.3797 18.2343C19.37 18.132 19.3316 18.0345 19.269 17.953C19.2064 17.8716 19.1221 17.8094 19.0258 17.7736C18.0913 17.4267 17.0663 17.4098 16.1209 17.7256C15.1755 18.0415 14.3665 18.6712 13.8282 19.5101C13.2899 20.349 13.0547 21.3468 13.1615 22.3378C13.2684 23.3289 13.7109 24.2536 14.4157 24.9585C15.1204 25.6634 16.045 26.1061 17.0361 26.2132C18.0271 26.3202 19.0249 26.0852 19.8639 25.5471C20.703 25.009 21.3328 24.2001 21.6489 23.2548C21.9649 22.3095 21.9482 21.2845 21.6016 20.3499C21.5658 20.2537 21.5036 20.1695 21.4222 20.107C21.3408 20.0444 21.2435 20.006 21.1413 19.9962C21.0391 19.9864 20.9362 20.0056 20.8444 20.0515C20.7526 20.0974 20.6761 20.1682 20.6226 20.2558ZM17.5 25.1564C16.6298 25.1564 15.7952 24.8107 15.1798 24.1953C14.5644 23.58 14.2187 22.7454 14.2187 21.8751C14.2187 21.0049 14.5644 20.1703 15.1798 19.555C15.7952 18.9396 16.6298 18.5939 17.5 18.5939C17.5951 18.5939 17.6898 18.5983 17.7838 18.6054C17.5478 19.0223 17.455 19.505 17.5195 19.9797C17.584 20.4544 17.8024 20.8948 18.1411 21.2336C18.4798 21.5723 18.9202 21.7908 19.3949 21.8554C19.8695 21.92 20.3523 21.8272 20.7692 21.5913C20.7769 21.6854 20.7812 21.78 20.7812 21.8751C20.7804 22.7451 20.4344 23.5792 19.8192 24.1944C19.2041 24.8095 18.37 25.1555 17.5 25.1564Z" fill="#BC8C44"/>
<path id="Vector_5" d="M16.9531 4.92188H18.0469V9.84375H16.9531V4.92188Z" fill="#BC8C44"/>
<path id="Vector_6" d="M26.9529 11.6465L30.2335 8.36584L31.0068 9.13912L27.7262 12.4198L26.9529 11.6465Z" fill="#BC8C44"/>
<path id="Vector_7" d="M3.98682 9.13623L4.7601 8.36295L8.04074 11.6436L7.26746 12.4169L3.98682 9.13623Z" fill="#BC8C44"/>
<path id="Vector_8" d="M22.4448 10.1992L24.0849 5.82576L25.1091 6.20986L23.4691 10.5833L22.4448 10.1992Z" fill="#BC8C44"/>
<path id="Vector_9" d="M9.87415 6.20703L10.8984 5.82293L12.5385 10.1964L11.5142 10.5805L9.87415 6.20703Z" fill="#BC8C44"/>
</g>
</svg>
