<svg width="26" height="35" viewBox="0 0 26 35" fill="none" xmlns="http://www.w3.org/2000/svg">
<g id="Group">
<path id="Vector" d="M7.18754 11.7709C7.50004 11.7709 7.70837 11.5626 7.70837 11.2501C7.70837 10.8334 7.86462 10.4689 8.12504 10.2084C10.1042 8.22927 11.4584 5.83344 11.9792 3.28135C12.0313 3.02094 11.875 2.70844 11.5625 2.65635C11.3021 2.60427 10.9896 2.76052 10.9375 3.07302C10.4167 5.46885 9.16671 7.65636 7.34379 9.47927C6.87504 9.94802 6.61462 10.573 6.61462 11.3022C6.66671 11.5105 6.92712 11.7709 7.18754 11.7709Z" fill="#BC8C44"/>
<path id="Vector_2" d="M19.9479 19.5312C20.5208 18.8021 20.8333 18.0208 20.8333 17.1875C20.8333 16.3542 20.5208 15.5729 19.9479 14.8437C20.8854 13.9062 21.4063 12.7604 21.4583 11.4583C21.5104 9.94792 20.9375 8.48958 19.7917 7.44792C17.9167 5.72917 16.8229 3.17708 16.8229 0.520833C16.8229 0.208333 16.6146 0 16.3021 0H9.21875C8.90625 0 8.69792 0.208333 8.69792 0.520833C8.69792 3.07292 7.60417 5.625 5.625 7.60417C4.63542 8.59375 4.11459 9.84375 4.11459 11.25C4.11459 12.6562 4.6875 13.9583 5.625 14.8437C5.05209 15.5729 4.73959 16.3542 4.73959 17.1875C4.73959 18.0208 5.05209 18.8021 5.625 19.5312C4.6875 20.4688 4.16667 21.6146 4.11459 22.9167C4.0625 24.4271 4.63542 25.8854 5.78125 26.9271C7.65625 28.6458 8.75 31.1979 8.75 33.8542C8.75 34.1667 8.95834 34.375 9.27084 34.375H16.4063C16.7188 34.375 16.9271 34.1667 16.9271 33.8542C16.9271 31.3021 18.0208 28.75 20 26.7708C20.9896 25.7812 21.5104 24.5312 21.5104 23.125C21.4583 21.7188 20.8854 20.4688 19.9479 19.5312ZM16.3021 18.0208C15.9375 18.0208 15.5208 18.0729 15.1563 18.1771C13.4896 18.5417 11.9271 18.5417 10.4167 18.1771C10.1042 18.0729 9.73959 18.0729 9.42709 18.0208C8.33334 17.9687 7.29167 18.2812 6.35417 18.8542C5.9375 18.3333 5.72917 17.7604 5.72917 17.1354C5.72917 16.5625 5.9375 15.9896 6.35417 15.4688C7.13542 15.9896 8.125 16.3021 9.16667 16.3021C9.58334 16.3021 9.94792 16.25 10.3125 16.1458C11.9792 15.7812 13.5417 15.7812 15.0521 16.1458C15.3646 16.25 15.7292 16.25 16.0417 16.3021C17.1354 16.3542 18.1771 16.0417 19.1146 15.4688C19.5313 15.9896 19.7396 16.5625 19.7396 17.1875C19.7396 17.7604 19.5313 18.3333 19.1146 18.8542C18.3333 18.3333 17.3438 18.0208 16.3021 18.0208ZM6.35417 8.33333C8.38542 6.30208 9.58334 3.69792 9.73959 1.04167H15.8333C15.9896 3.80208 17.1354 6.40625 19.1146 8.22917C20 9.0625 20.4688 10.2083 20.4167 11.4062C20.3646 12.5 19.8958 13.4896 19.0625 14.2187C18.2292 14.9479 17.1875 15.3646 16.0938 15.3125C15.8333 15.3125 15.5729 15.2604 15.3125 15.2083C13.6458 14.7917 11.9271 14.7917 10.1042 15.2083C9.79167 15.2604 9.47917 15.3125 9.16667 15.3125C6.92709 15.3125 5.10417 13.4896 5.10417 11.25C5.10417 10.1042 5.57292 9.11458 6.35417 8.33333ZM19.1667 26.0417C17.1354 28.0729 15.9375 30.6771 15.7813 33.3333H9.6875C9.53125 30.5729 8.38542 27.9688 6.40625 26.1458C5.52084 25.3125 5.05209 24.1667 5.10417 22.9687C5.15625 21.875 5.625 20.8854 6.45834 20.1562C7.29167 19.4271 8.33334 19.0104 9.42709 19.0625C9.6875 19.0625 9.94792 19.1146 10.2083 19.1667C11.875 19.5833 13.5938 19.5833 15.4167 19.1667C15.7292 19.1146 16.0417 19.0625 16.3542 19.0625C18.5938 19.0625 20.4167 20.8854 20.4167 23.125C20.4167 24.2708 19.9479 25.2604 19.1667 26.0417Z" fill="#BC8C44"/>
<path id="Vector_3" d="M18.3333 22.604C18.0208 22.604 17.8124 22.8123 17.8124 23.1248C17.8124 23.5415 17.6562 23.9061 17.3958 24.1665C15.4166 26.1457 14.0624 28.5415 13.5416 31.0936C13.4895 31.354 13.6458 31.6665 13.9583 31.7186H14.0624C14.3229 31.7186 14.5312 31.5623 14.5833 31.3019C15.1041 28.9061 16.3541 26.7186 18.177 24.8957C18.6458 24.4269 18.9062 23.8019 18.9062 23.0728C18.8541 22.8644 18.5937 22.604 18.3333 22.604Z" fill="#BC8C44"/>
<path id="Vector_4" d="M25 16.6665H23.2292C22.9167 16.6665 22.7084 16.8748 22.7084 17.1873C22.7084 17.4998 22.9167 17.7082 23.2292 17.7082H25C25.3125 17.7082 25.5209 17.4998 25.5209 17.1873C25.5209 16.8748 25.3125 16.6665 25 16.6665Z" fill="#BC8C44"/>
<path id="Vector_5" d="M21.3542 15.0523C21.4062 15.2606 21.6146 15.4169 21.875 15.4169H22.0312L23.5417 14.9481C23.8021 14.844 23.9583 14.5835 23.9062 14.271C23.8021 14.0106 23.5417 13.8544 23.2292 13.9065L21.7187 14.3752C21.4062 14.4794 21.25 14.7919 21.3542 15.0523Z" fill="#BC8C44"/>
<path id="Vector_6" d="M1.97918 14.9478L3.48959 15.4166H3.64584C3.85418 15.4166 4.06251 15.2603 4.16668 15.052C4.27084 14.7916 4.11459 14.4791 3.80209 14.3749L2.29168 13.9062C2.03126 13.802 1.71876 13.9582 1.61459 14.2707C1.56251 14.5832 1.71876 14.8437 1.97918 14.9478Z" fill="#BC8C44"/>
<path id="Vector_7" d="M2.8125 17.1873C2.8125 16.8748 2.60417 16.6665 2.29167 16.6665H0.520833C0.208333 16.6665 0 16.8748 0 17.1873C0 17.4998 0.208333 17.7082 0.520833 17.7082H2.29167C2.55208 17.7082 2.8125 17.4998 2.8125 17.1873Z" fill="#BC8C44"/>
<path id="Vector_8" d="M4.16668 19.3228C4.06251 19.0624 3.80209 18.9061 3.48959 18.9582L1.97918 19.427C1.71876 19.5311 1.56251 19.7916 1.61459 20.1041C1.66668 20.3124 1.87501 20.4686 2.13543 20.4686H2.29168L3.80209 19.9999C4.11459 19.8957 4.27084 19.5832 4.16668 19.3228Z" fill="#BC8C44"/>
<path id="Vector_9" d="M23.5417 19.4272L22.0312 18.9584C21.7708 18.8542 21.4583 19.0105 21.3542 19.323C21.25 19.6355 21.4062 19.8959 21.7187 20.0001L23.2292 20.4688H23.3854C23.5937 20.4688 23.8021 20.3126 23.9062 20.1042C23.9583 19.7917 23.8021 19.5313 23.5417 19.4272Z" fill="#BC8C44"/>
</g>
</svg>
