<svg width="32" height="32" viewBox="0 0 32 32" fill="none" xmlns="http://www.w3.org/2000/svg">
<g id="Layer_1_1_">
<path id="Vector" d="M13.3631 8H12.1567C10.9546 8 9.82471 8.46802 8.9751 9.31812L3.14649 15.1465C3.05274 15.2402 3 15.3674 3 15.5C3 15.6326 3.05274 15.7598 3.14649 15.8535L5.64648 18.3535C5.84179 18.5488 6.15821 18.5488 6.35352 18.3535L11 13.707V18.9155L7.02783 30.3357C6.97461 30.4885 6.99854 30.6577 7.09229 30.7898C7.18653 30.9216 7.33838 31 7.5 31H12C12.2129 31 12.4023 30.8652 12.4722 30.6643L16.0278 20.4426L20.0342 30.6821C20.1094 30.8738 20.2939 31 20.5 31H25C25.165 31 25.3198 30.9185 25.4131 30.782C25.5063 30.6453 25.5259 30.4717 25.4658 30.3179L21 18.9058V13.707L25.6465 18.3535C25.8418 18.5488 26.1582 18.5488 26.3535 18.3535L28.8535 15.8535C28.9473 15.7598 29 15.6326 29 15.5C29 15.3674 28.9473 15.2402 28.8535 15.1465L23.0249 9.31812C22.1753 8.46802 21.0454 8 19.8433 8H18.6369C19.4704 7.26639 20 6.19504 20 5C20 2.79444 18.2056 1 16 1C13.7944 1 12 2.79444 12 5C12 6.19504 12.5296 7.26639 13.3631 8ZM19.8433 9C20.7783 9 21.6567 9.36401 22.3179 10.0251L27.793 15.5L26 17.293L20.8535 12.1465C20.7105 12.0034 20.4956 11.9612 20.3086 12.0381C20.1216 12.1155 20 12.2978 20 12.5V19C20 19.0623 20.0117 19.124 20.0342 19.1821L24.2676 30H20.8413L16.4658 18.8179C16.3906 18.626 16.2056 18.5 16 18.5C15.9971 18.5 15.9937 18.5 15.9902 18.5C15.7813 18.5041 15.5967 18.6379 15.5278 18.8357L11.6445 30H8.20312L11.9722 19.1643C11.9907 19.1113 12 19.0559 12 19V12.5C12 12.2978 11.8784 12.1155 11.6914 12.0381C11.5044 11.9609 11.2896 12.0034 11.1465 12.1465L6 17.293L4.20703 15.5L9.68213 10.0251C10.3433 9.36401 11.2217 9 12.1567 9H19.8433ZM16 2C17.6543 2 19 3.34571 19 5C19 6.65429 17.6543 8 16 8C14.3457 8 13 6.65429 13 5C13 3.34571 14.3457 2 16 2Z" fill="#BC8C44"/>
<path id="Vector_2" d="M15.6558 16.3629C15.7524 16.4544 15.876 16.5001 16 16.5001C16.124 16.5001 16.2476 16.4544 16.3442 16.3629L18.4883 14.3279C18.8184 14.0152 19 13.5972 19 13.1512C19 12.7051 18.8184 12.2872 18.4888 11.9744C17.8262 11.3465 16.7476 11.3455 16.085 11.9744C16.0845 11.9744 16.0845 11.9744 16.0845 11.9747L16 12.0547L15.915 11.9744C15.2534 11.346 14.1743 11.3455 13.5117 11.9744C13.1816 12.2872 13 12.7051 13 13.1512C13 13.5972 13.1816 14.0152 13.5112 14.3279L15.6558 16.3629ZM14.1997 12.7C14.3413 12.5655 14.5273 12.4983 14.7134 12.4983C14.8994 12.4983 15.0854 12.5655 15.227 12.6998L15.6558 13.1067C15.8491 13.2898 16.1509 13.2898 16.3442 13.1067L16.7729 12.6998C17.0561 12.4312 17.5166 12.4315 17.8008 12.7C17.9292 12.8221 18 12.9822 18 13.1512C18 13.3201 17.9292 13.4803 17.8003 13.6024L16 15.3108L14.1992 13.6024C14.0708 13.4803 14 13.3201 14 13.1512C14 12.9822 14.0708 12.8221 14.1997 12.7Z" fill="#BC8C44"/>
<path id="Vector_3" d="M26.3647 5.86377C26.1201 5.61377 25.8652 5.37158 25.6079 5.14404L24.9458 5.89355C25.1851 6.10498 25.4224 6.33056 25.6509 6.56347L26.3647 5.86377Z" fill="#BC8C44"/>
<path id="Vector_4" d="M26.9072 8.04687L27.7148 7.45654C27.5093 7.17578 27.292 6.8999 27.0684 6.63623L26.3057 7.28272C26.5137 7.52832 26.7163 7.7854 26.9072 8.04687Z" fill="#BC8C44"/>
<path id="Vector_5" d="M23.0576 3.33496C22.7539 3.16528 22.4409 3.00513 22.1274 2.85889L21.7046 3.76514C21.9961 3.90112 22.2876 4.05005 22.5703 4.20801L23.0576 3.33496Z" fill="#BC8C44"/>
<path id="Vector_6" d="M27.9385 9.69433L28.8223 9.22607C28.6592 8.9187 28.4839 8.61426 28.3003 8.32129L27.4526 8.85205C27.6235 9.12475 27.7871 9.4082 27.9385 9.69433Z" fill="#BC8C44"/>
<path id="Vector_7" d="M29.4805 15.2734L30.4795 15.2202C30.4605 14.8716 30.4297 14.5217 30.3867 14.1802L29.3945 14.3047C29.4346 14.6226 29.4634 14.9485 29.4805 15.2734Z" fill="#BC8C44"/>
<path id="Vector_8" d="M28.7212 11.4724L29.6636 11.1365C29.5469 10.8098 29.417 10.4832 29.2769 10.1655L28.3618 10.5693C28.4922 10.8645 28.6133 11.1685 28.7212 11.4724Z" fill="#BC8C44"/>
<path id="Vector_9" d="M29.0562 22.311L28.1567 21.875C28.0166 22.1636 27.8633 22.4526 27.7012 22.7341L28.5674 23.2336C28.7417 22.9314 28.9063 22.6211 29.0562 22.311Z" fill="#BC8C44"/>
<path id="Vector_10" d="M29.8276 20.3726L28.8745 20.0713C28.7764 20.3809 28.667 20.6887 28.5483 20.9858L29.4771 21.3564C29.6045 21.0364 29.7227 20.7053 29.8276 20.3726Z" fill="#BC8C44"/>
<path id="Vector_11" d="M28.0132 24.1187L27.1851 23.5581C27.0054 23.8237 26.8125 24.0876 26.6113 24.3428L27.3965 24.9619C27.6128 24.6877 27.8203 24.4041 28.0132 24.1187Z" fill="#BC8C44"/>
<path id="Vector_12" d="M25.3018 25.7798L25.9912 26.5044C26.2417 26.2661 26.4873 26.0151 26.7217 25.7583L25.9824 25.0845C25.7646 25.3237 25.5356 25.5576 25.3018 25.7798Z" fill="#BC8C44"/>
<path id="Vector_13" d="M29.2393 13.345L30.2197 13.1497C30.1519 12.8074 30.0703 12.4653 29.9785 12.1328L29.0146 12.3999C29.1001 12.7087 29.1758 13.0266 29.2393 13.345Z" fill="#BC8C44"/>
<path id="Vector_14" d="M30.3115 18.3423L29.3242 18.1816C29.2725 18.5002 29.2085 18.8208 29.1343 19.1345L30.1069 19.3655C30.187 19.0286 30.2559 18.6843 30.3115 18.3423Z" fill="#BC8C44"/>
<path id="Vector_15" d="M30.4976 16.2637L29.4976 16.2466C29.4922 16.5693 29.4746 16.8958 29.4458 17.2168L30.4419 17.3062C30.4727 16.9612 30.4917 16.6106 30.4976 16.2637Z" fill="#BC8C44"/>
<path id="Vector_16" d="M24.8022 4.48095C24.5288 4.27148 24.2422 4.06811 23.9507 3.87646L23.4019 4.7124C23.6733 4.89062 23.9399 5.08007 24.1948 5.2749L24.8022 4.48095Z" fill="#BC8C44"/>
<path id="Vector_17" d="M2.55273 17.2002C2.52441 16.8809 2.50732 16.554 2.50195 16.2285L1.50195 16.2456C1.5083 16.5947 1.52637 16.9453 1.55664 17.2881L2.55273 17.2002Z" fill="#BC8C44"/>
<path id="Vector_18" d="M2.60742 14.2881L1.61523 14.1621C1.57226 14.5034 1.54053 14.8533 1.52148 15.2019L2.51953 15.2566C2.5376 14.9316 2.5669 14.6057 2.60742 14.2881Z" fill="#BC8C44"/>
<path id="Vector_19" d="M2.99023 12.3828L2.02637 12.1157C1.93457 12.4473 1.85303 12.7888 1.78369 13.1311L2.76416 13.3289C2.82861 13.0098 2.90429 12.6916 2.99023 12.3828Z" fill="#BC8C44"/>
<path id="Vector_20" d="M10.311 3.7583L9.88916 2.85156C9.57373 2.99805 9.26074 3.15771 8.9585 3.32617L9.44483 4.19971C9.72608 4.04322 10.0176 3.89478 10.311 3.7583Z" fill="#BC8C44"/>
<path id="Vector_21" d="M4.55664 8.8374L3.70898 8.30615C3.5249 8.60034 3.34863 8.9043 3.18652 9.20996L4.06933 9.6792C4.2207 9.39477 4.38476 9.11157 4.55664 8.8374Z" fill="#BC8C44"/>
<path id="Vector_22" d="M3.64453 10.5535L2.72949 10.1499C2.58789 10.4714 2.45752 10.7979 2.34277 11.1201L3.28418 11.4561C3.39112 11.1567 3.51221 10.853 3.64453 10.5535Z" fill="#BC8C44"/>
<path id="Vector_23" d="M7.0669 5.88232L6.40479 5.13281C6.14307 5.36401 5.88867 5.60571 5.64746 5.85156L6.36133 6.55176C6.58594 6.323 6.82324 6.09765 7.0669 5.88232Z" fill="#BC8C44"/>
<path id="Vector_24" d="M6.69043 25.7732C6.45313 25.5466 6.22461 25.3125 6.01074 25.0771L5.27051 25.7495C5.50049 26.0024 5.74561 26.2537 6 26.4963L6.69043 25.7732Z" fill="#BC8C44"/>
<path id="Vector_25" d="M5.70508 7.27002L4.94336 6.62207C4.71826 6.88648 4.50049 7.16236 4.2959 7.4419L5.10254 8.03272C5.29297 7.77271 5.4956 7.51612 5.70508 7.27002Z" fill="#BC8C44"/>
<path id="Vector_26" d="M3.44678 20.9741C3.32764 20.6736 3.21777 20.3652 3.12109 20.0576L2.16699 20.3584C2.27148 20.6887 2.38916 21.02 2.51709 21.3428L3.44678 20.9741Z" fill="#BC8C44"/>
<path id="Vector_27" d="M8.61279 4.70313L8.06494 3.86621C7.77686 4.05469 7.49024 4.25781 7.2124 4.46924L7.81885 5.26465C8.07715 5.06738 8.34424 4.87842 8.61279 4.70313Z" fill="#BC8C44"/>
<path id="Vector_28" d="M1.68555 18.3247C1.74024 18.6658 1.80908 19.0107 1.88965 19.3501L2.8623 19.1196C2.7876 18.8037 2.72363 18.4829 2.67285 18.166L1.68555 18.3247Z" fill="#BC8C44"/>
<path id="Vector_29" d="M4.29297 22.7244C4.13281 22.446 3.97998 22.1567 3.83838 21.8643L2.93799 22.3003C3.09033 22.614 3.25439 22.9246 3.42676 23.2234L4.29297 22.7244Z" fill="#BC8C44"/>
<path id="Vector_30" d="M5.38135 24.3337C5.18311 24.082 4.99023 23.8181 4.80811 23.5488L3.97998 24.1089C4.17529 24.3982 4.38281 24.6821 4.59619 24.9529L5.38135 24.3337Z" fill="#BC8C44"/>
<path id="Vector_31" d="M16.521 30.4907C16.8691 30.478 17.2197 30.4526 17.5635 30.415L17.4541 29.4209C17.1348 29.4561 16.8086 29.4795 16.4849 29.4912L16.521 30.4907Z" fill="#BC8C44"/>
<path id="Vector_32" d="M15.4756 30.491L15.5127 29.4915C15.1909 29.4797 14.8643 29.4561 14.5425 29.4209L14.4341 30.415C14.7798 30.4526 15.1304 30.4783 15.4756 30.491Z" fill="#BC8C44"/>
</g>
</svg>
