<svg width="32" height="32" viewBox="0 0 32 32" fill="none" xmlns="http://www.w3.org/2000/svg">
<g id="Capa_1" clip-path="url(#clip0_1182_16007)">
<g id="Group">
<g id="Group_2">
<path id="Vector" d="M31.8436 12.4232L19.5768 0.156401C19.3683 -0.0521338 19.0312 -0.0521338 18.8227 0.156401L16.6893 2.28975L16.6989 2.29935C16.6685 2.32975 16.6328 2.35322 16.6104 2.39055L4.37724 22.6019L0.156401 26.8228C-0.0521338 27.0313 -0.0521338 27.3684 0.156401 27.5769L4.4231 31.8436C4.5271 31.9476 4.66364 31.9999 4.80017 31.9999C4.93671 31.9999 5.07324 31.9476 5.17724 31.8436L9.39808 27.6228L29.6094 15.3896C29.6468 15.3672 29.6708 15.3309 29.7006 15.3011L29.7102 15.3107L31.8436 13.1773C32.0521 12.9688 32.0521 12.6317 31.8436 12.4232ZM4.80017 30.7124L1.28761 27.1998L2.13348 26.354L5.64605 29.8665L4.80017 30.7124ZM6.40019 29.1124L2.88762 25.5998L4.80017 23.6873L8.31274 27.1998L6.40019 29.1124ZM9.14848 26.5273L5.47271 22.8515L17.1709 3.52443L28.4756 14.8291L9.14848 26.5273ZM29.3337 14.1789L17.8211 2.66629L19.2003 1.28708L30.7129 12.7997L29.3337 14.1789Z" fill="#BC8C44"/>
</g>
</g>
<g id="Group_3">
<g id="Group_4">
<path id="Vector_2" d="M24.3235 12.347L22.8153 10.8382C20.5278 8.55069 16.8056 8.55069 14.5181 10.8382C12.2312 13.1257 12.2312 16.8478 14.5187 19.1348L16.0275 20.6436C16.1315 20.7476 16.2675 20.7999 16.404 20.7999C16.5405 20.7999 16.6771 20.7476 16.7811 20.6436L24.3235 13.1011C24.5321 12.8926 24.5321 12.5555 24.3235 12.347ZM16.404 19.5124L15.2723 18.3806C13.4013 16.5097 13.4013 13.4643 15.2728 11.5923C17.1443 9.7203 20.1896 9.7203 22.0617 11.5923L23.1929 12.7241L16.404 19.5124Z" fill="#BC8C44"/>
</g>
</g>
</g>
<defs>
<clipPath id="clip0_1182_16007">
<rect width="32" height="32" fill="white"/>
</clipPath>
</defs>
</svg>
