<svg width="32" height="32" viewBox="0 0 32 32" fill="none" xmlns="http://www.w3.org/2000/svg">
<g id="Layer_2" clip-path="url(#clip0_1119_1982)">
<path id="Vector" d="M15.8204 26.3512C14.3661 26.3512 13.044 25.7121 12.4515 24.7233C12.3124 24.4903 12.3881 24.1884 12.6211 24.0487C12.8547 23.9106 13.1561 23.9858 13.2957 24.2184C13.7072 24.9057 14.7215 25.3679 15.8204 25.3679C16.935 25.3679 17.9292 24.9156 18.353 24.2159C18.4946 23.9838 18.796 23.9106 19.0286 24.0502C19.2606 24.1908 19.3349 24.4932 19.1942 24.7258C18.5954 25.713 17.2713 26.3512 15.8204 26.3512Z" fill="#BC8C44"/>
<path id="Vector_2" d="M23.7937 31.5258C23.545 31.5258 23.3394 31.3444 23.307 31.1054C22.9092 29.3015 22.9269 27.3697 23.3576 25.3627C23.4147 25.0977 23.6728 24.9266 23.9417 24.9851C24.2072 25.0417 24.3764 25.3032 24.3193 25.5692C23.9162 27.4484 23.9009 29.2498 24.2741 30.924C24.2825 30.9589 24.2859 30.9953 24.2859 31.0312C24.2859 31.3031 24.0661 31.5263 23.7942 31.5263L23.7937 31.5258Z" fill="#BC8C44"/>
<path id="Vector_3" d="M7.85391 31.5258C7.58202 31.5258 7.36224 31.3099 7.36224 31.038V31.0307C7.36224 30.9948 7.36618 30.9589 7.37404 30.9235C7.74722 29.2498 7.73247 27.4484 7.32881 25.5687C7.27178 25.3032 7.44091 25.0417 7.70641 24.9846C7.97437 24.9261 8.23348 25.0972 8.29051 25.3622C8.72318 27.3771 8.73842 29.3162 8.33624 31.1265C8.29199 31.3527 8.09286 31.5258 7.8544 31.5258H7.85391Z" fill="#BC8C44"/>
<path id="Vector_4" d="M28.1155 31.557H3.53207C3.26018 31.557 3.04041 31.3373 3.04041 31.0654C3.04041 27.2274 7.19795 24.0832 12.4057 23.8959V22.707C12.4057 22.4351 12.6255 22.2153 12.8974 22.2153C13.1693 22.2153 13.389 22.4351 13.389 22.707V24.3787C13.389 24.6506 13.1693 24.8703 12.8974 24.8703C8.24127 24.8703 4.41167 27.3867 4.05177 30.5737H27.5958C27.2359 27.3872 23.4063 24.8703 18.7502 24.8703C18.4783 24.8703 18.2585 24.6506 18.2585 24.3787V22.707C18.2585 22.4351 18.4783 22.2153 18.7502 22.2153C19.0221 22.2153 19.2419 22.4351 19.2419 22.707V23.8959C24.4496 24.0832 28.6072 27.2274 28.6072 31.0654C28.6072 31.3373 28.3874 31.557 28.1155 31.557Z" fill="#BC8C44"/>
<path id="Vector_5" d="M23.4398 19.757H22.4068C22.1349 19.757 21.9152 19.5372 21.9152 19.2653C21.9152 18.9935 22.1349 18.7737 22.4068 18.7737H23.4398C23.842 18.7737 24.1822 18.2781 24.1822 17.692V16.9053C24.1822 16.3193 23.8425 15.8237 23.4398 15.8237H23.1989C22.927 15.8237 22.7072 15.6034 22.7072 15.332C22.7072 15.0606 22.927 14.8403 23.1989 14.8403H23.4398C24.3917 14.8403 25.1656 15.7666 25.1656 16.9053V17.692C25.1656 18.8307 24.3917 19.757 23.4398 19.757Z" fill="#BC8C44"/>
<path id="Vector_6" d="M9.24044 19.757H8.20745C7.25558 19.757 6.48169 18.8307 6.48169 17.692V16.9053C6.48169 15.7666 7.25558 14.8403 8.20745 14.8403H8.44836C8.72026 14.8403 8.94003 15.0606 8.94003 15.332C8.94003 15.6034 8.72026 15.8237 8.44836 15.8237H8.20745C7.80526 15.8237 7.46503 16.3193 7.46503 16.9053V17.692C7.46503 18.2781 7.80477 18.7737 8.20745 18.7737H9.24044C9.51233 18.7737 9.73211 18.9935 9.73211 19.2653C9.73211 19.5372 9.51233 19.757 9.24044 19.757Z" fill="#BC8C44"/>
<path id="Vector_7" d="M23.2972 14.3487C23.0253 14.3487 22.8055 14.1284 22.8055 13.857C22.8055 13.5856 23.0253 13.3654 23.2972 13.3654C24.1335 13.3654 24.6739 12.5231 24.6739 11.2197C24.6739 8.04061 21.5419 5.45394 17.6922 5.45394C14.6227 5.45394 12.2184 4.13873 12.2184 2.45919C12.2184 1.66613 11.8202 1.07367 11.4647 1.07367C9.03046 1.07367 6.97382 5.71993 6.97382 11.2197C6.97382 12.5231 7.51416 13.3654 8.35049 13.3654C8.62238 13.3654 8.84215 13.5856 8.84215 13.857C8.84215 14.1284 8.62238 14.3487 8.35049 14.3487C7.17589 14.3487 5.99048 13.3811 5.99048 11.2197C5.99048 4.97899 8.39523 0.090332 11.4647 0.090332C12.4387 0.090332 13.2018 1.13119 13.2018 2.45919C13.2018 3.41057 15.046 4.47061 17.6922 4.47061C22.0843 4.47061 25.6572 7.4983 25.6572 11.2197C25.6572 13.3811 24.4718 14.3487 23.2972 14.3487Z" fill="#BC8C44"/>
<path id="Vector_8" d="M12.8738 16.3153C11.771 16.3153 10.9071 15.6673 10.9071 14.8403C10.9071 14.5689 11.1269 14.3486 11.3988 14.3486C11.6707 14.3486 11.8904 14.5689 11.8904 14.8403C11.8904 15.0409 12.2735 15.332 12.8738 15.332C13.4648 15.332 13.8571 15.036 13.8571 14.8403C13.8571 14.5689 14.0769 14.3486 14.3488 14.3486C14.6207 14.3486 14.8405 14.5689 14.8405 14.8403C14.8405 15.6673 13.9766 16.3153 12.8738 16.3153Z" fill="#BC8C44"/>
<path id="Vector_9" d="M18.7733 16.3153C17.671 16.3153 16.8071 15.6673 16.8071 14.8403C16.8071 14.5689 17.0269 14.3486 17.2988 14.3486C17.5707 14.3486 17.7905 14.5689 17.7905 14.8403C17.7905 15.0409 18.173 15.332 18.7733 15.332C19.3736 15.332 19.7566 15.0409 19.7566 14.8403C19.7566 14.5689 19.9764 14.3486 20.2483 14.3486C20.5202 14.3486 20.74 14.5689 20.74 14.8403C20.74 15.6673 19.8761 16.3153 18.7733 16.3153Z" fill="#BC8C44"/>
<path id="Vector_10" d="M1.66871 25.6573C1.39682 25.6573 1.17704 25.4375 1.17704 25.1656C1.17704 23.5544 0.925799 21.9344 0.659806 20.2185C0.380047 18.4136 0.0904541 16.5472 0.0904541 14.5948C0.0904541 12.6423 0.380047 10.7755 0.659806 8.97057C0.925799 7.25563 1.17704 5.63558 1.17704 4.02389C1.17704 3.75249 1.39682 3.53223 1.66871 3.53223C3.01736 3.53223 4.12164 4.61783 4.57988 5.14637C5.05286 5.00428 6.01752 4.73288 7.34404 4.45214C7.61249 4.3951 7.87061 4.56571 7.92716 4.83121C7.9837 5.09672 7.81358 5.35779 7.54808 5.41433C5.71858 5.80128 4.57398 6.17789 4.56267 6.18183C4.36305 6.24869 4.13639 6.1774 4.01053 6.00433C4.00069 5.99155 3.17961 4.87989 2.15202 4.58636C2.10384 6.08104 1.87423 7.56292 1.63233 9.12151C1.35798 10.8896 1.07428 12.7181 1.07428 14.5953C1.07428 16.4724 1.35798 18.3005 1.63233 20.069C1.87374 21.6271 2.10334 23.1085 2.15202 24.6032C2.59993 24.4739 3.00359 24.1926 3.29269 23.9463C3.72831 23.5716 4.00708 23.1906 4.00954 23.1867C4.13541 23.0131 4.35961 22.9403 4.56218 23.0082C4.5843 23.0156 6.79927 23.7388 10.0423 24.2275C10.3108 24.2683 10.4956 24.5186 10.4553 24.7875C10.4145 25.056 10.1638 25.2369 9.8953 25.2005C7.26045 24.8028 5.32181 24.2659 4.58086 24.0432C4.42943 24.2187 4.20768 24.4566 3.93235 24.6931C3.18993 25.3249 2.40818 25.6578 1.6692 25.6578L1.66871 25.6573Z" fill="#BC8C44"/>
<path id="Vector_11" d="M29.9789 25.6573C28.6298 25.6573 27.5255 24.5712 27.0678 24.0427C26.5584 24.1951 25.4797 24.4975 23.9958 24.8018C23.2701 24.9508 22.5095 25.083 21.7351 25.1951C21.4642 25.2369 21.2164 25.0481 21.1781 24.7792C21.1392 24.5102 21.3256 24.261 21.594 24.2221C22.3497 24.1125 23.0912 23.9837 23.7977 23.8386C25.8012 23.4271 27.0732 23.0111 27.086 23.0072C27.287 22.9418 27.5117 23.0126 27.6371 23.1852C27.6469 23.198 28.468 24.3096 29.4956 24.6037C29.5438 23.109 29.7734 21.6271 30.0153 20.0685C30.2897 18.3 30.5734 16.472 30.5734 14.5948C30.5734 12.7176 30.2897 10.8891 30.0153 9.12102C29.7739 7.56292 29.5443 6.08153 29.4956 4.58686C29.0477 4.71616 28.6441 4.9974 28.355 5.24372C27.9193 5.61838 27.6406 5.99942 27.6381 6.00335C27.5117 6.17642 27.289 6.24919 27.085 6.18183C27.0343 6.16511 21.9721 4.51556 15.8233 4.51556C15.2304 4.51556 14.6025 4.5313 13.9043 4.56424C13.6433 4.57653 13.4028 4.36708 13.39 4.09617C13.3778 3.82477 13.5867 3.59467 13.8581 3.58188C14.5715 3.54845 15.2146 3.53223 15.8233 3.53223C21.3064 3.53223 25.8317 4.7732 27.0673 5.14637C27.2187 4.97085 27.4404 4.73386 27.7153 4.49688C28.4567 3.86509 29.239 3.53223 29.9784 3.53223C30.2503 3.53223 30.4701 3.75249 30.4701 4.02389C30.4701 5.63509 30.7214 7.25514 30.9873 8.97057C31.2671 10.7755 31.5567 12.6423 31.5567 14.5948C31.5567 16.5472 31.2671 18.414 30.9873 20.2185C30.7214 21.9339 30.4701 23.5539 30.4701 25.1656C30.4701 25.4375 30.2508 25.6573 29.9789 25.6573Z" fill="#BC8C44"/>
<path id="Vector_12" d="M15.8238 23.8134C11.4863 23.8134 7.95715 20.2842 7.95715 15.9467V11.7675C7.95715 11.4961 8.17693 11.2759 8.44882 11.2759C8.72071 11.2759 8.94049 11.4961 8.94049 11.7675V15.9467C8.94049 19.7424 12.0282 22.8301 15.8238 22.8301C19.6195 22.8301 22.7072 19.7424 22.7072 15.9467V11.7675C22.7072 11.4961 22.927 11.2759 23.1989 11.2759C23.4708 11.2759 23.6905 11.4961 23.6905 11.7675V15.9467C23.6905 20.2842 20.1613 23.8134 15.8238 23.8134Z" fill="#BC8C44"/>
<path id="Vector_13" d="M23.1989 12.0747C19.6259 12.0747 14.8916 10.7187 13.5661 10.316C13.0671 10.9287 11.6997 12.0747 8.44882 12.0747C8.17693 12.0747 7.95715 11.8545 7.95715 11.5831C7.95715 11.3117 8.17693 11.0914 8.44882 11.0914C12.0955 11.0914 12.9142 9.54314 12.922 9.52741C13.0307 9.31058 13.2859 9.197 13.5155 9.27125C13.5725 9.28944 19.2478 11.0914 23.1989 11.0914C23.4708 11.0914 23.6905 11.3117 23.6905 11.5831C23.6905 11.8545 23.4708 12.0747 23.1989 12.0747Z" fill="#BC8C44"/>
<path id="Vector_14" d="M15.8224 20.4946C15.0288 20.4946 14.3198 20.2389 13.9732 19.8288C13.7982 19.6214 13.8237 19.3106 14.0312 19.1361C14.2402 18.9601 14.5499 18.9866 14.724 19.1941C14.8277 19.317 15.2176 19.5117 15.8219 19.5117C16.4301 19.5117 16.815 19.3205 16.9247 19.1921C17.1022 18.9861 17.4124 18.963 17.6179 19.1385C17.8244 19.315 17.8485 19.6253 17.6715 19.8318C17.321 20.2409 16.6125 20.4955 15.8214 20.4955L15.8224 20.4946Z" fill="#BC8C44"/>
</g>
<defs>
<clipPath id="clip0_1119_1982">
<rect width="31.4668" height="31.4668" fill="white" transform="translate(0.0904541 0.090332)"/>
</clipPath>
</defs>
</svg>
