<svg width="36" height="36" viewBox="0 0 36 36" fill="none" xmlns="http://www.w3.org/2000/svg">
<g id="Group">
<g id="Page-1_3_">
<g id="_x30_04---Blood-Test">
<path id="Shape_38_" d="M12.9265 32.1351C8.10238 32.1296 4.19296 28.2202 4.1875 23.3961C4.1875 23.0743 3.92666 22.8135 3.60492 22.8135C3.28317 22.8135 3.02234 23.0743 3.02234 23.3961C3.02844 28.8635 7.45912 33.2942 12.9266 33.3003C13.2483 33.3003 13.5092 33.0395 13.5092 32.7177C13.5092 32.396 13.2483 32.1351 12.9265 32.1351Z" fill="#BC8C44"/>
<path id="Shape_37_" d="M25.1612 14.6569C24.4775 14.6577 23.7955 14.7254 23.125 14.8591C20.0471 7.80259 14.4145 1.72316 13.7684 1.0363C13.3006 0.577093 12.5512 0.577093 12.0835 1.0363C10.9171 2.27197 0.691902 13.388 0.691902 23.396C0.687013 27.821 3.0745 31.9031 6.93376 34.0681C10.793 36.2331 15.5211 36.1429 19.295 33.8321C23.0234 36.3522 27.9441 36.2125 31.5236 33.4849C35.103 30.7573 36.5431 26.05 35.1024 21.7866C33.6616 17.5231 29.6614 14.6542 25.1612 14.6569ZM12.9265 34.4654C6.81585 34.4586 1.86385 29.5066 1.85706 23.3959C1.85706 13.8412 11.7974 3.03803 12.9224 1.83963C13.5482 2.49974 18.9675 8.35313 21.9807 15.1532C18.3626 16.2995 15.6481 19.3141 14.8863 23.0322C14.1244 26.7504 15.4346 30.5897 18.3104 33.0665C16.6649 33.9855 14.8113 34.4671 12.9265 34.4654ZM25.1612 34.4654C20.013 34.4654 15.8396 30.292 15.8396 25.1438C15.8396 19.9956 20.013 15.8222 25.1612 15.8222C30.3094 15.8222 34.4828 19.9956 34.4828 25.1438C34.4767 30.2894 30.3069 34.4593 25.1612 34.4654Z" fill="#BC8C44"/>
<path id="Shape_36_" d="M29.2395 20.4829C29.2395 18.5551 27.4101 16.9873 25.1612 16.9873C22.9124 16.9873 21.083 18.5551 21.083 20.4829C21.083 22.4107 22.9124 23.9785 25.1612 23.9785C27.4101 23.9785 29.2395 22.4107 29.2395 20.4829ZM25.1612 22.8133C23.555 22.8133 22.2482 21.7681 22.2482 20.4828C22.2482 19.1976 23.555 18.1524 25.1612 18.1524C26.7675 18.1524 28.0742 19.1976 28.0742 20.4828C28.0742 21.7681 26.7675 22.8133 25.1612 22.8133Z" fill="#BC8C44"/>
<path id="Shape_35_" d="M26.5012 20.0648C25.6933 20.6222 24.625 20.6222 23.8172 20.0648C23.585 19.8605 23.2337 19.8732 23.0169 20.0937C22.8001 20.3142 22.7933 20.6657 23.0015 20.8944C23.5987 21.4123 24.3714 21.6821 25.1613 21.6482C25.9509 21.6822 26.7237 21.4126 27.321 20.8949C27.5464 20.6702 27.5476 20.3056 27.3239 20.0793C27.0997 19.8505 26.7333 19.844 26.5012 20.0648Z" fill="#BC8C44"/>
<path id="Shape_34_" d="M17.8944 24.3125C16.5317 25.6752 16.7164 28.0778 18.3063 29.6684C19.1107 30.495 20.2088 30.9709 21.362 30.9926C22.2199 31.0083 23.0483 30.6797 23.6622 30.0802C25.0249 28.7169 24.8402 26.3143 23.2503 24.7244C21.6604 23.1344 19.2571 22.9498 17.8944 24.3125ZM22.8384 29.2564C21.9295 30.1647 20.2662 29.9795 19.1301 28.8446C17.994 27.7097 17.8099 26.0481 18.7182 25.1363C19.1142 24.7543 19.6469 24.5472 20.1968 24.5612C21.041 24.5867 21.8416 24.9423 22.4264 25.5517C23.562 26.6843 23.7466 28.3482 22.8384 29.2564Z" fill="#BC8C44"/>
<path id="Shape_33_" d="M20.7783 27.1962C20.4189 26.873 20.1872 26.4317 20.1252 25.9524C20.1231 25.6306 19.8606 25.3715 19.5388 25.3735C19.2171 25.3756 18.9579 25.6382 18.96 25.9599C19.1439 27.5648 20.4102 28.8309 22.0152 29.0145C22.3321 29.0142 22.5896 28.7587 22.5925 28.4418C22.5952 28.1229 22.3432 27.86 22.0245 27.8493C21.5441 27.7885 21.1017 27.5566 20.7783 27.1962Z" fill="#BC8C44"/>
<path id="Shape_32_" d="M27.0721 24.7242C25.4822 26.3141 25.2975 28.7168 26.6603 30.0801C27.2741 30.6796 28.1025 31.0082 28.9604 30.9924C30.1136 30.9707 31.2117 30.4948 32.0162 29.6682C33.6061 28.0777 33.7907 25.675 32.428 24.3123C31.0653 22.9496 28.6626 23.1348 27.0721 24.7242ZM31.1923 28.8443C30.0562 29.9792 28.3958 30.1645 27.484 29.2562C26.5722 28.3479 26.7604 26.684 27.8959 25.5479C28.4813 24.9399 29.2818 24.5856 30.1255 24.561C30.6757 24.5474 31.2084 24.7552 31.6041 25.1378C32.5125 26.0449 32.3272 27.7071 31.1923 28.8443Z" fill="#BC8C44"/>
<path id="Shape_31_" d="M28.3073 27.8492C27.9856 27.8492 27.7247 28.11 27.7247 28.4318C27.7247 28.7535 27.9856 29.0144 28.3073 29.0144C29.9125 28.8307 31.1789 27.5643 31.3625 25.9592C31.3622 25.6423 31.1067 25.3847 30.7898 25.3818H30.7799C30.4649 25.3845 30.2079 25.635 30.1973 25.9499C30.0211 26.9132 29.2697 27.6684 28.3073 27.8492Z" fill="#BC8C44"/>
</g>
</g>
</g>
</svg>
