<svg width="36" height="36" viewBox="0 0 36 36" fill="none" xmlns="http://www.w3.org/2000/svg">
<g id="Capa_1" clip-path="url(#clip0_1119_2016)">
<g id="Group">
<g id="Group_2">
<path id="Vector" d="M6.51008 3.50719C6.46871 3.26269 6.27723 3.07121 6.03272 3.02984C5.08325 2.8712 4.33932 2.12705 4.18098 1.17751C4.1273 0.860239 3.82656 0.64647 3.5093 0.700149C3.26479 0.741519 3.07331 0.933001 3.03194 1.17751C2.8736 2.12705 2.12966 2.87127 1.18019 3.02984C0.862925 3.08351 0.649155 3.38425 0.702834 3.70152C0.744204 3.94602 0.935686 4.1375 1.18019 4.17887C2.12966 4.33751 2.8736 5.08166 3.03194 6.0312C3.08562 6.34847 3.38635 6.56224 3.70362 6.50856C3.94813 6.46719 4.13961 6.27571 4.18098 6.0312C4.33932 5.08166 5.08325 4.33751 6.03272 4.17887C6.34999 4.12527 6.56376 3.82453 6.51008 3.50719ZM3.60646 4.43642C3.37929 4.1131 3.09771 3.83153 2.7744 3.60436C3.09771 3.37718 3.37929 3.09561 3.60646 2.77229C3.83363 3.09561 4.11521 3.37718 4.43852 3.60436C4.11514 3.8316 3.83363 4.1131 3.60646 4.43642Z" fill="#BC8C44"/>
</g>
</g>
<g id="Group_3">
<g id="Group_4">
<path id="Vector_2" d="M23.8406 4.18621C22.7135 4.18614 21.5983 4.41506 20.5624 4.8592C19.0362 5.5094 17.3107 5.5094 15.7845 4.8592C11.5624 3.04904 6.67236 5.00429 4.8622 9.22636C4.41813 10.2622 4.18914 11.3775 4.18921 12.5045C4.18804 15.936 5.15245 19.2985 6.97207 22.2078L7.13872 22.4753L9.65472 33.5461C9.98561 35.0041 11.4358 35.9178 12.8938 35.587C13.9664 35.3435 14.785 34.4755 14.9652 33.3906L16.7133 22.9059C16.8485 22.0991 17.6122 21.5548 18.419 21.69C19.0421 21.7946 19.5304 22.2828 19.6348 22.9059L21.3828 33.39C21.6289 34.865 23.024 35.8613 24.4991 35.6154C25.5831 35.4346 26.4502 34.6166 26.6939 33.545L29.2093 22.4741L29.376 22.2067C31.195 19.2976 32.159 15.9354 32.1577 12.5045C32.158 7.91075 28.4342 4.18657 23.8406 4.18621ZM28.3866 21.5908L28.1675 21.9404C28.1331 21.9958 28.108 22.0564 28.0929 22.1198L25.5565 33.2851C25.3677 34.1157 24.5412 34.636 23.7106 34.4471C23.1003 34.3083 22.6344 33.8144 22.5313 33.1971L20.7833 22.713C20.5426 21.2717 19.1791 20.2982 17.7377 20.539C16.6231 20.7251 15.7497 21.5984 15.5636 22.713L13.8156 33.1977C13.6764 34.0377 12.8825 34.6059 12.0425 34.4666C11.4242 34.3641 10.9294 33.8976 10.7909 33.2863L8.25396 22.1204C8.23889 22.057 8.21376 21.9964 8.17938 21.941L7.96029 21.5913C6.25662 18.8668 5.35369 15.7179 5.35456 12.5045C5.35908 8.55621 8.55863 5.35666 12.5069 5.35215C13.4758 5.35113 14.4346 5.54778 15.3247 5.93016C17.1445 6.70658 19.2024 6.70658 21.0222 5.93016C24.6533 4.37427 28.8583 6.05653 30.4142 9.6877C30.7956 10.5778 30.9923 11.5361 30.9923 12.5045C30.9931 15.7177 30.0901 18.8663 28.3866 21.5908Z" fill="#BC8C44"/>
</g>
</g>
<g id="Group_5">
<g id="Group_6">
<path id="Vector_3" d="M10.5986 8.26585L10.4821 7.69482C9.31671 7.92848 7.10254 9.20104 7.10254 12.3446H8.26789C8.26789 9.38983 10.6161 8.85785 10.7151 8.83629L10.5986 8.26585Z" fill="#BC8C44"/>
</g>
</g>
<g id="Group_7">
<g id="Group_8">
<path id="Vector_4" d="M12.9293 7.68311H11.7639V8.84846H12.9293V7.68311Z" fill="#BC8C44"/>
</g>
</g>
<g id="Group_9">
<g id="Group_10">
<path id="Vector_5" d="M35.6439 27.9794C35.6025 27.7349 35.411 27.5434 35.1665 27.502C34.217 27.3434 33.4731 26.5992 33.3148 25.6497C33.2611 25.3324 32.9604 25.1186 32.6431 25.1723C32.3986 25.2137 32.2071 25.4052 32.1657 25.6497C32.0074 26.5992 31.2635 27.3434 30.314 27.502C29.9967 27.5557 29.7829 27.8564 29.8366 28.1737C29.878 28.4182 30.0695 28.6097 30.314 28.651C31.2635 28.8097 32.0074 29.5538 32.1657 30.5034C32.2194 30.8206 32.5201 31.0344 32.8374 30.9807C33.0819 30.9394 33.2734 30.7479 33.3148 30.5034C33.4731 29.5538 34.217 28.8097 35.1665 28.651C35.4838 28.5974 35.6975 28.2967 35.6439 27.9794ZM32.7402 28.9086C32.5131 28.5853 32.2315 28.3037 31.9082 28.0765C32.2315 27.8494 32.5131 27.5678 32.7402 27.2445C32.9674 27.5678 33.249 27.8494 33.5723 28.0765C33.2489 28.3038 32.9674 28.5853 32.7402 28.9086Z" fill="#BC8C44"/>
</g>
</g>
</g>
<defs>
<clipPath id="clip0_1119_2016">
<rect width="34.9631" height="34.9631" fill="white" transform="translate(0.691895 0.691895)"/>
</clipPath>
</defs>
</svg>
