<svg width="35" height="36" viewBox="0 0 35 36" fill="none" xmlns="http://www.w3.org/2000/svg">
<g id="Capa_1" clip-path="url(#clip0_1119_2036)">
<g id="Group">
<g id="Group_2">
<path id="Vector" fill-rule="evenodd" clip-rule="evenodd" d="M24.3741 1.65029C24.5209 1.21931 24.3424 0.744555 23.9476 0.517838C23.5527 0.290742 23.0525 0.375389 22.7544 0.719496C19.5039 4.46896 11.2527 13.987 8.21391 17.4928C7.8672 17.8925 7.78591 18.4578 8.00559 18.9388C8.22533 19.4202 8.70561 19.729 9.23481 19.729H17.556C16.7537 22.1845 14.102 30.2653 12.7127 34.0766C12.5555 34.5076 12.7282 34.9889 13.1234 35.2223C13.5183 35.4552 14.0236 35.3732 14.3247 35.0268L30.6067 16.3122C30.9541 15.9125 31.0365 15.3469 30.8168 14.8651C30.5975 14.3834 30.1168 14.0742 29.5872 14.0742H20.6139C21.2455 11.8686 23.2196 5.0321 24.3741 1.65029ZM23.0845 2.02422C21.6539 6.36734 19.3508 14.4754 19.3508 14.4754C19.3037 14.6418 19.3372 14.821 19.4417 14.959C19.5459 15.097 19.7089 15.1783 19.8819 15.1783H29.5872C29.684 15.1783 29.772 15.2346 29.8121 15.323C29.8522 15.4109 29.8371 15.5143 29.7738 15.5876L14.0255 33.6887C15.7541 28.8414 18.8415 19.3477 18.8415 19.3477C18.8963 19.1795 18.8673 18.9955 18.7635 18.8523C18.6593 18.7095 18.4934 18.6249 18.3167 18.6249H9.23481C9.13804 18.6249 9.05004 18.5686 9.00993 18.4803C8.96983 18.3923 8.98455 18.2893 9.04782 18.2161L23.0845 2.02422Z" fill="#BC8C44"/>
<path id="Vector_2" fill-rule="evenodd" clip-rule="evenodd" d="M3.08968 9.63525C1.93666 9.63525 1.00073 10.5715 1.00073 11.7246C1.00073 12.8776 1.93661 13.8135 3.08968 13.8135C4.24275 13.8135 5.17863 12.8776 5.17863 11.7246C5.17863 10.5715 4.24275 9.63525 3.08968 9.63525ZM3.08968 10.7393C3.63328 10.7393 4.07454 11.181 4.07454 11.7246C4.07454 12.2682 3.63328 12.7094 3.08968 12.7094C2.54608 12.7094 2.10482 12.2682 2.10482 11.7246C2.10482 11.181 2.54613 10.7393 3.08968 10.7393Z" fill="#BC8C44"/>
<path id="Vector_3" fill-rule="evenodd" clip-rule="evenodd" d="M31.8585 22.6929C30.7055 22.6929 29.7695 23.6291 29.7695 24.7822C29.7695 25.9352 30.7054 26.8711 31.8585 26.8711C33.0115 26.8711 33.9474 25.9353 33.9474 24.7822C33.9474 23.6291 33.0115 22.6929 31.8585 22.6929ZM31.8585 23.797C32.4021 23.797 32.8433 24.2386 32.8433 24.7822C32.8433 25.3258 32.4021 25.7671 31.8585 25.7671C31.3149 25.7671 30.8736 25.3258 30.8736 24.7822C30.8736 24.2386 31.3149 23.797 31.8585 23.797Z" fill="#BC8C44"/>
<path id="Vector_4" fill-rule="evenodd" clip-rule="evenodd" d="M9.68921 1.18681V4.26056C9.68921 4.56527 9.93687 4.8126 10.2413 4.8126C10.546 4.8126 10.7933 4.56527 10.7933 4.26056V1.18681C10.7933 0.882103 10.546 0.634766 10.2413 0.634766C9.93687 0.634766 9.68921 0.882049 9.68921 1.18681Z" fill="#BC8C44"/>
<path id="Vector_5" fill-rule="evenodd" clip-rule="evenodd" d="M31.0117 5.05693V8.13106C31.0117 8.43576 31.2594 8.6831 31.5638 8.6831C31.8685 8.6831 32.1158 8.43576 32.1158 8.13106V5.05693C32.1158 4.75222 31.8685 4.50488 31.5638 4.50488C31.2594 4.50488 31.0117 4.75222 31.0117 5.05693Z" fill="#BC8C44"/>
<path id="Vector_6" fill-rule="evenodd" clip-rule="evenodd" d="M6.56616 25.2439V28.3181C6.56616 28.6225 6.81382 28.8701 7.11821 28.8701C7.42291 28.8701 7.67025 28.6225 7.67025 28.3181V25.2439C7.67025 24.9392 7.42291 24.6919 7.11821 24.6919C6.81382 24.6918 6.56616 24.9392 6.56616 25.2439Z" fill="#BC8C44"/>
<path id="Vector_7" fill-rule="evenodd" clip-rule="evenodd" d="M23.4321 31.2102V34.2844C23.4321 34.5888 23.6795 34.8364 23.9842 34.8364C24.2889 34.8364 24.5362 34.5888 24.5362 34.2844V31.2102C24.5362 30.9055 24.2889 30.6582 23.9842 30.6582C23.6795 30.6582 23.4321 30.9055 23.4321 31.2102Z" fill="#BC8C44"/>
<path id="Vector_8" fill-rule="evenodd" clip-rule="evenodd" d="M8.70439 3.27548H11.7785C12.0832 3.27548 12.3306 3.02814 12.3306 2.72343C12.3306 2.41872 12.0832 2.17139 11.7785 2.17139H8.70439C8.39968 2.17139 8.15234 2.41872 8.15234 2.72343C8.15234 3.02814 8.39968 3.27548 8.70439 3.27548Z" fill="#BC8C44"/>
<path id="Vector_9" fill-rule="evenodd" clip-rule="evenodd" d="M30.0269 7.14608H33.101C33.4057 7.14608 33.6531 6.89874 33.6531 6.59404C33.6531 6.28965 33.4057 6.04199 33.101 6.04199H30.0269C29.7222 6.04199 29.4749 6.28965 29.4749 6.59404C29.4749 6.8988 29.7221 7.14608 30.0269 7.14608Z" fill="#BC8C44"/>
<path id="Vector_10" fill-rule="evenodd" clip-rule="evenodd" d="M5.58134 27.3331H8.65547C8.96018 27.3331 9.20752 27.0858 9.20752 26.781C9.20752 26.4763 8.96018 26.229 8.65547 26.229H5.58134C5.27663 26.229 5.0293 26.4763 5.0293 26.781C5.0293 27.0858 5.27663 27.3331 5.58134 27.3331Z" fill="#BC8C44"/>
<path id="Vector_11" fill-rule="evenodd" clip-rule="evenodd" d="M22.4473 33.2989H25.5211C25.8258 33.2989 26.0732 33.0516 26.0732 32.7469C26.0732 32.4422 25.8258 32.1948 25.5211 32.1948H22.4473C22.1426 32.1948 21.8953 32.4422 21.8953 32.7469C21.8953 33.0516 22.1425 33.2989 22.4473 33.2989Z" fill="#BC8C44"/>
</g>
</g>
</g>
<defs>
<clipPath id="clip0_1119_2036">
<rect width="34.9631" height="34.9631" fill="white" transform="translate(-0.00732422 0.391113)"/>
</clipPath>
</defs>
</svg>
