<svg width="35" height="35" viewBox="0 0 35 35" fill="none" xmlns="http://www.w3.org/2000/svg">
<g id="Frame">
<g id="Group">
<path id="Vector" d="M12.917 19.6533C12.9188 19.7767 12.969 19.8944 13.0569 19.9811C13.1448 20.0677 13.2633 20.1163 13.3867 20.1163H13.3937C13.5183 20.1144 13.6371 20.0632 13.724 19.9738C13.8108 19.8844 13.8587 19.7642 13.8569 19.6396V19.5926C13.8572 19.1613 13.9465 18.7348 14.1192 18.3396C14.292 17.9445 14.5444 17.5892 14.8608 17.2962C14.9524 17.2116 15.0066 17.0941 15.0115 16.9696C15.0164 16.845 14.9717 16.7236 14.8871 16.632C14.8025 16.5405 14.685 16.4863 14.5605 16.4813C14.4359 16.4764 14.3145 16.5211 14.223 16.6057C13.8114 16.9869 13.483 17.4489 13.2583 17.9629C13.0336 18.4768 12.9174 19.0316 12.917 19.5926V19.6533Z" fill="#BC8C44"/>
<path id="Vector_2" d="M5.17323 11.4262C4.71449 11.2269 4.21104 11.1529 3.71434 11.2119C3.21764 11.2708 2.74551 11.4607 2.34621 11.7619C1.94691 12.0631 1.63476 12.465 1.44167 12.9264C1.24858 13.3878 1.18148 13.8923 1.24722 14.3881C1.31297 14.8839 1.5092 15.3534 1.81586 15.7486C2.12253 16.1438 2.52862 16.4504 2.99262 16.6372C3.45663 16.8239 3.96191 16.8842 4.45682 16.8117C4.95172 16.7391 5.4185 16.5365 5.80944 16.2245L11.1338 18.5209C10.8847 19.8824 11.1185 21.2881 11.795 22.4955L7.39713 26.6783C6.72125 26.4427 5.98581 26.4411 5.3089 26.6737C4.632 26.9063 4.0529 27.3596 3.66462 27.9609C3.27633 28.5622 3.10139 29.2766 3.16787 29.9892C3.23436 30.7019 3.53842 31.3715 4.03123 31.8906C4.52403 32.4097 5.17699 32.7481 5.88525 32.8515C6.5935 32.9549 7.31595 32.8173 7.93659 32.4607C8.55722 32.1042 9.04003 31.5494 9.30747 30.8855C9.57492 30.2216 9.61148 29.487 9.41129 28.7998L13.8124 24.6155C14.7579 25.2148 15.8546 25.5321 16.9741 25.5302C18.0495 25.5289 19.1044 25.2359 20.0266 24.6826C20.9487 24.1294 21.7036 23.3364 22.2109 22.3881L28.1083 23.8415C28.2747 24.5369 28.6698 25.1562 29.2303 25.6C29.7909 26.0438 30.4843 26.2864 31.1992 26.2889C31.9142 26.2913 32.6092 26.0535 33.1728 25.6135C33.7364 25.1735 34.1358 24.557 34.3069 23.8628C34.478 23.1686 34.4109 22.4371 34.1163 21.7856C33.8218 21.1341 33.3169 20.6005 32.6827 20.2704C32.0484 19.9403 31.3217 19.8329 30.6191 19.9654C29.9166 20.0979 29.2789 20.4626 28.8085 21.001L22.9097 19.5479C22.9055 18.8677 22.7845 18.1933 22.5519 17.5541L24.3513 16.3838C25.2361 17.0571 26.3487 17.3589 27.4525 17.2251C28.5564 17.0912 29.5646 16.5323 30.2629 15.667C30.9612 14.8017 31.2947 13.6982 31.1924 12.591C31.0901 11.4837 30.5601 10.46 29.7151 9.7373L30.8049 7.164C31.1454 7.08006 31.4618 6.91795 31.7288 6.69052C31.9958 6.46308 32.2061 6.17659 32.3432 5.85373C32.4949 5.49552 32.5519 5.10426 32.5084 4.71766C32.465 4.33106 32.3227 3.96217 32.0952 3.64657C31.8678 3.33097 31.5628 3.0793 31.2098 2.91583C30.8568 2.75236 30.4676 2.6826 30.0798 2.71329C29.692 2.74398 29.3186 2.87408 28.9957 3.09103C28.6728 3.30799 28.4112 3.60449 28.2362 3.95194C28.0612 4.29939 27.9787 4.68606 27.9966 5.07468C28.0145 5.4633 28.1323 5.84074 28.3385 6.17062L27.2605 8.71867C27.1531 8.71088 27.0457 8.70551 26.9353 8.70551C26.2693 8.70406 25.6122 8.8584 25.0165 9.15621C24.4209 9.45402 23.9031 9.88704 23.5046 10.4207C23.1061 10.9543 22.838 11.5737 22.7217 12.2294C22.6053 12.8852 22.6439 13.559 22.8345 14.1972L21.102 15.3251C20.3591 14.6039 19.4395 14.091 18.4355 13.8379V7.7653C19.0709 7.43743 19.5777 6.90557 19.8745 6.25512C20.1713 5.60466 20.241 4.87333 20.0723 4.17853C19.9036 3.48374 19.5063 2.86578 18.9443 2.42386C18.3822 1.98194 17.688 1.7417 16.973 1.7417C16.258 1.7417 15.5638 1.98194 15.0017 2.42386C14.4396 2.86578 14.0424 3.48374 13.8737 4.17853C13.705 4.87333 13.7746 5.60466 14.0715 6.25512C14.3683 6.90557 14.8751 7.43743 15.5104 7.7653V13.8395C14.1752 14.1767 12.9997 14.9697 12.1868 16.0814L6.86808 13.785C6.82543 13.2752 6.64527 12.7866 6.34679 12.3712C6.04832 11.9559 5.64272 11.6293 5.17323 11.4262ZM3.30812 15.75C2.96558 15.6026 2.67445 15.357 2.47155 15.0442C2.26865 14.7313 2.1631 14.3654 2.16827 13.9925C2.17343 13.6197 2.28907 13.2567 2.50055 12.9496C2.71204 12.6425 3.00986 12.4051 3.35634 12.2673C3.70282 12.1295 4.08239 12.0976 4.44702 12.1756C4.81164 12.2536 5.14494 12.438 5.40474 12.7054C5.66454 12.9729 5.83916 13.3114 5.90652 13.6782C5.97387 14.0449 5.93093 14.4234 5.78312 14.7657C5.58469 15.2238 5.21285 15.5846 4.74898 15.7692C4.28512 15.9538 3.76703 15.9471 3.30812 15.7505V15.75ZM7.9004 31.3208C7.46799 31.7318 6.89001 31.9542 6.2936 31.9391C5.6972 31.924 5.13122 31.6726 4.72018 31.2402C4.30914 30.8078 4.08671 30.2298 4.10181 29.6334C4.11692 29.037 4.36834 28.471 4.80074 28.06C5.23315 27.6489 5.81113 27.4265 6.40754 27.4416C7.00395 27.4567 7.56993 27.7081 7.98097 28.1405C8.39201 28.573 8.61444 29.1509 8.59933 29.7473C8.58422 30.3437 8.33281 30.9097 7.9004 31.3208ZM8.26993 27.1442L13.5962 22.0825C13.6966 21.987 13.8309 21.9353 13.9695 21.9388C14.1081 21.9423 14.2396 22.0007 14.3351 22.1011C14.4306 22.2016 14.4823 22.3359 14.4788 22.4745C14.4753 22.6131 14.4169 22.7446 14.3164 22.8401L8.99047 27.9023C8.79103 27.6141 8.54815 27.3586 8.27047 27.1447L8.26993 27.1442ZM31.7435 20.9137C32.1756 21.02 32.5664 21.252 32.8666 21.5805C33.1668 21.9089 33.3628 22.319 33.4299 22.7589C33.497 23.1987 33.4321 23.6486 33.2435 24.0516C33.0549 24.4546 32.751 24.7926 32.3702 25.0229C31.9895 25.2531 31.549 25.3653 31.1045 25.3452C30.66 25.325 30.2315 25.1736 29.8731 24.9099C29.5147 24.6462 29.2426 24.2821 29.0911 23.8637C28.9397 23.4453 28.9157 22.9914 29.0222 22.5594C29.0929 22.2727 29.2193 22.0027 29.3944 21.7649C29.5694 21.527 29.7896 21.326 30.0424 21.1733C30.2952 21.0206 30.5756 20.9192 30.8675 20.8749C31.1595 20.8306 31.4573 20.8442 31.744 20.9151L31.7435 20.9137ZM28.0262 22.8527L20.8931 21.0955C20.7599 21.0612 20.6456 20.9756 20.575 20.8575C20.5045 20.7394 20.4833 20.5982 20.5162 20.4646C20.5491 20.331 20.6333 20.2158 20.7506 20.1439C20.8679 20.072 21.0089 20.0493 21.1428 20.0807L28.277 21.8386C28.1383 22.161 28.0537 22.5041 28.0267 22.854L28.0262 22.8527ZM28.3326 10.5883C28.3123 10.637 28.2821 10.681 28.2439 10.7174C28.2058 10.7538 28.1605 10.7819 28.1109 10.8C28.0614 10.818 28.0086 10.8256 27.956 10.8222C27.9034 10.8188 27.852 10.8046 27.8051 10.7804C27.7173 10.7365 27.6492 10.6611 27.6144 10.5693C27.5796 10.4775 27.5806 10.376 27.6172 10.2849V10.2835L29.055 6.88874C29.2764 7.02814 29.5203 7.12809 29.7758 7.18415C27.3048 13.0107 29.9146 6.85893 28.3331 10.5897L28.3326 10.5883ZM29.0381 4.45805C29.1399 4.21601 29.3115 4.00972 29.5308 3.8654C29.7502 3.72108 30.0076 3.64524 30.2701 3.64752C30.5327 3.6498 30.7887 3.73011 31.0056 3.87822C31.2224 4.02633 31.3903 4.23557 31.4879 4.47934C31.5856 4.72311 31.6085 4.99041 31.5539 5.24726C31.4993 5.50411 31.3695 5.73892 31.1811 5.92184C30.9927 6.10475 30.7541 6.22753 30.4958 6.27455C30.2374 6.32158 29.9709 6.29073 29.7301 6.18593C29.4105 6.04705 29.1586 5.78771 29.029 5.46421C28.8995 5.14071 28.9027 4.77916 29.0381 4.45805ZM26.8676 9.64599C26.8139 9.77758 26.8195 9.75099 26.7419 9.95133C26.6101 10.2771 26.6128 10.6419 26.7495 10.9657C26.8861 11.2895 27.1456 11.5459 27.471 11.6787C27.7964 11.8115 28.1612 11.8099 28.4854 11.6742C28.8096 11.5384 29.0668 11.2797 29.2005 10.9547L29.3265 10.6574C29.8607 11.2075 30.1891 11.925 30.2563 12.6889C30.3235 13.4528 30.1255 14.2166 29.6956 14.8516C29.2656 15.4866 28.63 15.9541 27.8958 16.1754C27.1615 16.3967 26.3734 16.3582 25.6642 16.0665C24.955 15.7748 24.3679 15.2477 24.0018 14.5738C23.6357 13.8999 23.513 13.1205 23.6543 12.3668C23.7956 11.613 24.1922 10.9309 24.7775 10.4354C25.3628 9.93984 26.1009 9.66106 26.8676 9.64599ZM23.2048 15.0786C23.3328 15.3055 23.4811 15.5203 23.6479 15.7204L22.155 16.6907C22.0251 16.4663 21.8838 16.2488 21.7315 16.0389L23.2048 15.0786ZM14.7241 4.93393C14.7237 4.48895 14.8553 4.05387 15.1023 3.68371C15.3492 3.31355 15.7004 3.02494 16.1114 2.8544C16.5224 2.68386 16.9747 2.63904 17.4112 2.72563C17.8477 2.81221 18.2487 3.02629 18.5634 3.34081C18.8782 3.65532 19.0926 4.05612 19.1796 4.49252C19.2665 4.92891 19.2221 5.38129 19.0519 5.79243C18.8817 6.20356 18.5934 6.55498 18.2234 6.80224C17.8535 7.04949 17.4185 7.18146 16.9735 7.18146C16.3775 7.18075 15.806 6.94379 15.3844 6.5225C14.9628 6.10122 14.7253 5.52996 14.7241 4.93393ZM17.4967 8.07924V15.4266C17.4967 15.5652 17.4416 15.6982 17.3436 15.7962C17.2456 15.8942 17.1127 15.9492 16.9741 15.9492C16.8355 15.9492 16.7025 15.8942 16.6045 15.7962C16.5065 15.6982 16.4515 15.5652 16.4515 15.4266V8.07924C16.7977 8.13392 17.1504 8.13392 17.4967 8.07924ZM15.5115 14.8103V15.428C15.5115 15.8159 15.6656 16.1879 15.9399 16.4621C16.2142 16.7364 16.5862 16.8905 16.9741 16.8905C17.3619 16.8905 17.734 16.7364 18.0082 16.4621C18.2825 16.1879 18.4366 15.8159 18.4366 15.428V14.8103C19.4144 15.1107 20.2766 15.7034 20.9073 16.5087C21.538 17.314 21.9068 18.2932 21.9641 19.3145L21.3682 19.1676C20.9932 19.0801 20.5989 19.1439 20.2706 19.3451C19.9424 19.5463 19.7067 19.8688 19.6146 20.2427C19.5226 20.6165 19.5815 21.0116 19.7788 21.3423C19.976 21.6729 20.2956 21.9125 20.6683 22.0092L21.2631 22.1558C20.5945 23.2749 19.515 24.0885 18.2549 24.4229C16.9948 24.7573 15.654 24.586 14.5184 23.9457L14.9631 23.5222C15.2445 23.2549 15.4081 22.8868 15.418 22.4989C15.428 22.111 15.2834 21.735 15.0162 21.4537C14.7489 21.1723 14.3808 21.0087 13.9929 20.9987C13.6049 20.9888 13.229 21.1334 12.9476 21.4006L12.501 21.8241C12.1774 21.1739 11.9991 20.461 11.9786 19.735C11.9581 19.009 12.0958 18.2872 12.3823 17.6197C12.6687 16.9523 13.097 16.3552 13.6373 15.8698C14.1777 15.3845 14.8172 15.0226 15.5115 14.8092V14.8103ZM11.3793 17.6033L6.46847 15.4862C6.60466 15.2635 6.70838 15.0225 6.7765 14.7705L11.6873 16.8905C11.5944 17.0707 11.4348 17.4464 11.3793 17.6033Z" fill="#BC8C44"/>
</g>
</g>
</svg>
