<svg width="35" height="35" viewBox="0 0 35 35" fill="none" xmlns="http://www.w3.org/2000/svg">
<g id="Layer_1">
<g id="Layer_1_2">
<g id="259382256">
<g id="259383288">
<path id="Vector" d="M10.5764 26.3274C10.4821 26.3274 10.3895 26.3027 10.3078 26.2556L3.00177 22.0372C2.9202 21.9901 2.85245 21.9224 2.80531 21.8409C2.75818 21.7593 2.73331 21.6668 2.73322 21.5726V13.136C2.73319 13.0417 2.758 12.949 2.80514 12.8674C2.85229 12.7857 2.9201 12.7179 3.00177 12.6707L10.3078 8.45038C10.3895 8.40324 10.4821 8.37842 10.5764 8.37842C10.6706 8.37842 10.7633 8.40324 10.8449 8.45038L18.1509 12.6687C18.2326 12.7159 18.3004 12.7837 18.3476 12.8653C18.3947 12.947 18.4195 13.0397 18.4195 13.134V21.5726C18.4194 21.6668 18.3945 21.7593 18.3474 21.8409C18.3003 21.9224 18.2325 21.9901 18.1509 22.0372L10.8449 26.2556C10.7632 26.3027 10.6706 26.3274 10.5764 26.3274ZM3.80743 21.2624L10.5764 25.1679L17.3453 21.2598V13.4462L10.5764 9.53802L3.80743 13.4462V21.2624Z" fill="#BC8C44"/>
</g>
<g id="259383144">
<path id="Vector_2" d="M25.1891 26.3274C25.0948 26.3277 25.0021 26.3029 24.9205 26.2556L17.6138 22.0372C17.4945 21.964 17.4084 21.8471 17.374 21.7114C17.3396 21.5757 17.3595 21.432 17.4295 21.3107C17.4996 21.1895 17.6141 21.1004 17.7489 21.0624C17.8836 21.0244 18.0279 21.0406 18.1509 21.1074L25.1891 25.1679L31.958 21.2624V13.4462L25.1891 9.53802L18.1509 13.6006C18.0279 13.6674 17.8836 13.6835 17.7489 13.6455C17.6141 13.6076 17.4996 13.5185 17.4295 13.3972C17.3595 13.276 17.3396 13.1322 17.374 12.9965C17.4084 12.8608 17.4945 12.7439 17.6138 12.6707L24.9205 8.45038C25.0022 8.40324 25.0948 8.37842 25.1891 8.37842C25.2834 8.37842 25.376 8.40324 25.4576 8.45038L32.7637 12.6707C32.8453 12.7179 32.9131 12.7857 32.9603 12.8674C33.0074 12.949 33.0322 13.0417 33.0322 13.136V21.572C33.0322 21.6663 33.0074 21.7589 32.9603 21.8406C32.9131 21.9223 32.8453 21.9901 32.7637 22.0372L25.4576 26.2556C25.376 26.3027 25.2833 26.3274 25.1891 26.3274Z" fill="#BC8C44"/>
</g>
<g id="259383168">
<path id="Vector_3" d="M18.7216 13.188C18.5792 13.188 18.4426 13.1314 18.3418 13.0307C18.2411 12.9299 18.1845 12.7933 18.1845 12.6509V8.42115C18.1845 8.39856 18.182 8.37605 18.1771 8.35401C18.1619 8.2851 18.1604 8.21388 18.1727 8.1444C18.1851 8.07492 18.2109 8.00855 18.2489 7.94907C18.2869 7.8896 18.3362 7.83818 18.394 7.79776C18.4519 7.75734 18.5171 7.72871 18.586 7.7135C18.6549 7.69829 18.7261 7.69681 18.7956 7.70912C18.8651 7.72144 18.9315 7.74732 18.9909 7.78529C19.0504 7.82326 19.1018 7.87257 19.1422 7.9304C19.1827 7.98824 19.2113 8.05348 19.2265 8.12238C19.248 8.22028 19.2588 8.32023 19.2587 8.42047V12.6502C19.2588 12.7208 19.245 12.7907 19.218 12.856C19.1911 12.9212 19.1515 12.9805 19.1017 13.0304C19.0518 13.0804 18.9925 13.12 18.9273 13.147C18.8621 13.1741 18.7922 13.188 18.7216 13.188ZM17.0432 13.188C16.9007 13.188 16.7641 13.1314 16.6634 13.0307C16.5626 12.9299 16.506 12.7933 16.506 12.6509V8.42115C16.506 8.32091 16.5168 8.22096 16.5383 8.12305C16.5534 8.05397 16.582 7.98855 16.6224 7.93051C16.6628 7.87248 16.7142 7.82297 16.7738 7.78481C16.8333 7.74666 16.8998 7.72061 16.9694 7.70814C17.039 7.69567 17.1104 7.69704 17.1794 7.71216C17.2485 7.72728 17.3139 7.75586 17.372 7.79627C17.43 7.83667 17.4795 7.88811 17.5177 7.94765C17.5558 8.00719 17.5819 8.07366 17.5944 8.14327C17.6068 8.21287 17.6055 8.28426 17.5903 8.35334C17.5857 8.37541 17.5835 8.39792 17.5836 8.42047V12.6502C17.5837 12.721 17.5698 12.7912 17.5427 12.8566C17.5155 12.922 17.4758 12.9814 17.4256 13.0314C17.3754 13.0814 17.3159 13.1209 17.2503 13.1478C17.1848 13.1747 17.1146 13.1883 17.0438 13.188H17.0432Z" fill="#BC8C44"/>
</g>
<g id="259383072">
<path id="Vector_4" d="M17.8824 8.95715C17.3944 8.95715 16.9174 8.81245 16.5116 8.54133C16.1058 8.27022 15.7896 7.88487 15.6029 7.43402C15.4161 6.98317 15.3672 6.48707 15.4624 6.00845C15.5577 5.52983 15.7926 5.0902 16.1377 4.74513C16.4828 4.40007 16.9224 4.16507 17.401 4.06987C17.8796 3.97467 18.3757 4.02353 18.8266 4.21028C19.2774 4.39703 19.6628 4.71327 19.9339 5.11902C20.205 5.52478 20.3497 6.00181 20.3497 6.48981C20.349 7.14397 20.0888 7.77114 19.6263 8.2337C19.1637 8.69626 18.5365 8.95644 17.8824 8.95715ZM17.8824 5.09735C17.6068 5.09735 17.3374 5.17907 17.1083 5.33218C16.8792 5.48529 16.7007 5.70291 16.5952 5.95751C16.4898 6.21211 16.4623 6.49225 16.5161 6.76251C16.5699 7.03277 16.7026 7.281 16.8975 7.47581C17.0924 7.67061 17.3407 7.80324 17.611 7.85692C17.8813 7.9106 18.1614 7.88291 18.416 7.77737C18.6705 7.67182 18.8881 7.49316 19.0411 7.26397C19.1941 7.03478 19.2756 6.76537 19.2755 6.48981C19.275 6.12055 19.128 5.76658 18.8668 5.50555C18.6057 5.24451 18.2516 5.09771 17.8824 5.09735Z" fill="#BC8C44"/>
</g>
<g id="259383120">
<path id="Vector_5" d="M5.39325 27.5011C5.28907 27.501 5.18714 27.4707 5.09989 27.4138C5.01264 27.3568 4.94384 27.2758 4.90185 27.1804C4.85987 27.0851 4.84653 26.9796 4.86344 26.8768C4.88036 26.774 4.92681 26.6783 4.99713 26.6014C5.01235 26.5849 5.02564 26.5666 5.03675 26.547L6.74945 23.5809C6.78368 23.5178 6.83019 23.4623 6.88622 23.4175C6.94226 23.3728 7.0067 23.3397 7.07573 23.3202C7.14477 23.3007 7.217 23.2953 7.28817 23.3042C7.35934 23.3131 7.428 23.3362 7.49011 23.3721C7.55222 23.4079 7.60651 23.4559 7.64979 23.5131C7.69307 23.5703 7.72445 23.6356 7.74208 23.7051C7.75972 23.7746 7.76325 23.847 7.75247 23.9179C7.74169 23.9888 7.71682 24.0568 7.67932 24.118L5.96662 27.0848C5.91637 27.1717 5.85695 27.253 5.78937 27.3272C5.73901 27.3821 5.67779 27.4258 5.60959 27.4558C5.5414 27.4857 5.46773 27.5011 5.39325 27.5011ZM3.97461 26.682C3.89021 26.682 3.807 26.6621 3.73171 26.624C3.65642 26.5858 3.59119 26.5305 3.5413 26.4624C3.4914 26.3943 3.45825 26.3155 3.44453 26.2322C3.43082 26.1489 3.43692 26.0636 3.46234 25.9831C3.49246 25.8874 3.53299 25.7953 3.58319 25.7085L5.2959 22.7423C5.33117 22.6812 5.37812 22.6276 5.43409 22.5847C5.49005 22.5417 5.55393 22.5102 5.62207 22.492C5.69022 22.4737 5.76129 22.469 5.83123 22.4782C5.90118 22.4874 5.96863 22.5103 6.02973 22.5456C6.09083 22.5808 6.14438 22.6278 6.18734 22.6838C6.23029 22.7397 6.2618 22.8036 6.28007 22.8717C6.29833 22.9399 6.303 23.011 6.2938 23.0809C6.2846 23.1509 6.26171 23.2183 6.22644 23.2794L4.51306 26.2456C4.50214 26.2649 4.49336 26.2854 4.48688 26.3067C4.45248 26.4156 4.38427 26.5107 4.29215 26.5782C4.20004 26.6456 4.08881 26.682 3.97461 26.682Z" fill="#BC8C44"/>
</g>
<g id="259383480">
<path id="Vector_6" d="M3.80609 30.534C3.37429 30.5341 2.95016 30.4199 2.57678 30.203C2.05816 29.9037 1.66607 29.426 1.47361 28.859C1.28116 28.292 1.30147 27.6743 1.53076 27.1212C1.76004 26.568 2.18266 26.1171 2.71983 25.8526C3.25699 25.588 3.87204 25.5278 4.45032 25.6832C5.0286 25.8385 5.53063 26.1989 5.86284 26.6971C6.19505 27.1953 6.33475 27.7973 6.25591 28.3909C6.17707 28.9844 5.88506 29.5291 5.43432 29.9233C4.98358 30.3175 4.40488 30.5343 3.80609 30.5333V30.534ZM3.11389 29.2738C3.35244 29.4113 3.62641 29.4751 3.90117 29.4569C4.17593 29.4388 4.43914 29.3396 4.65753 29.1719C4.87593 29.0042 5.03969 28.7755 5.12812 28.5147C5.21656 28.2539 5.22569 27.9728 5.15437 27.7068C5.08304 27.4409 4.93447 27.202 4.72742 27.0205C4.52037 26.839 4.26415 26.7229 3.99115 26.687C3.71814 26.651 3.44061 26.6968 3.19364 26.8186C2.94667 26.9404 2.74135 27.1326 2.60364 27.3711C2.41921 27.6911 2.36936 28.0713 2.46503 28.428C2.56071 28.7848 2.79408 29.089 3.11389 29.2738Z" fill="#BC8C44"/>
</g>
<g id="259383576">
<path id="Vector_7" d="M30.2795 20.568C30.1371 20.568 30.0005 20.5114 29.8997 20.4107C29.799 20.3099 29.7424 20.1733 29.7424 20.0309V14.6772C29.7424 14.5348 29.799 14.3982 29.8997 14.2975C30.0005 14.1967 30.1371 14.1401 30.2795 14.1401C30.422 14.1401 30.5586 14.1967 30.6593 14.2975C30.7601 14.3982 30.8167 14.5348 30.8167 14.6772V20.0309C30.8167 20.1733 30.7601 20.3099 30.6593 20.4107C30.5586 20.5114 30.422 20.568 30.2795 20.568Z" fill="#BC8C44"/>
</g>
<g id="259383648">
<path id="Vector_8" d="M20.0986 20.568C19.9562 20.568 19.8196 20.5114 19.7188 20.4107C19.6181 20.3099 19.5615 20.1733 19.5615 20.0309V14.6772C19.5615 14.5348 19.6181 14.3982 19.7188 14.2975C19.8196 14.1967 19.9562 14.1401 20.0986 14.1401C20.2411 14.1401 20.3777 14.1967 20.4784 14.2975C20.5792 14.3982 20.6357 14.5348 20.6357 14.6772V20.0309C20.6357 20.1733 20.5792 20.3099 20.4784 20.4107C20.3777 20.5114 20.2411 20.568 20.0986 20.568Z" fill="#BC8C44"/>
</g>
<g id="259382592">
<path id="Vector_9" d="M15.6668 19.6008C15.5244 19.6008 15.3877 19.5442 15.287 19.4435C15.1863 19.3428 15.1297 19.2062 15.1297 19.0637V15.645C15.1297 15.5026 15.1863 15.366 15.287 15.2652C15.3877 15.1645 15.5244 15.1079 15.6668 15.1079C15.8093 15.1079 15.9459 15.1645 16.0466 15.2652C16.1473 15.366 16.2039 15.5026 16.2039 15.645V19.0637C16.2039 19.2062 16.1473 19.3428 16.0466 19.4435C15.9459 19.5442 15.8093 19.6008 15.6668 19.6008Z" fill="#BC8C44"/>
</g>
<g id="259382304">
<path id="Vector_10" d="M5.4859 19.6008C5.34345 19.6008 5.20683 19.5442 5.10611 19.4435C5.00538 19.3428 4.94879 19.2062 4.94879 19.0637V15.645C4.94879 15.5026 5.00538 15.366 5.10611 15.2652C5.20683 15.1645 5.34345 15.1079 5.4859 15.1079C5.62835 15.1079 5.76497 15.1645 5.86569 15.2652C5.96642 15.366 6.02301 15.5026 6.02301 15.645V19.0637C6.02301 19.2062 5.96642 19.3428 5.86569 19.4435C5.76497 19.5442 5.62835 19.6008 5.4859 19.6008Z" fill="#BC8C44"/>
</g>
<g id="259382640">
<path id="Vector_11" d="M9.51086 23.1538C9.41659 23.1538 9.32397 23.1291 9.24231 23.082L6.28149 21.3726C6.15809 21.3014 6.06804 21.1841 6.03115 21.0464C6.01289 20.9783 6.00822 20.9072 6.01742 20.8373C6.02662 20.7673 6.04951 20.6999 6.08478 20.6388C6.12004 20.5777 6.167 20.5241 6.22296 20.4812C6.27893 20.4382 6.34281 20.4067 6.41095 20.3884C6.54857 20.3515 6.6952 20.3708 6.8186 20.4421L9.77942 22.1514C9.88187 22.2105 9.96196 22.3018 10.0072 22.411C10.0525 22.5203 10.0605 22.6414 10.0299 22.7557C9.99927 22.8699 9.93181 22.9709 9.83797 23.0429C9.74412 23.1148 9.62914 23.1538 9.51086 23.1538Z" fill="#BC8C44"/>
</g>
<g id="259382976">
<path id="Vector_12" d="M14.6013 14.3369C14.507 14.3371 14.4144 14.3123 14.3328 14.2651L11.3719 12.5557C11.3108 12.5204 11.2573 12.4735 11.2143 12.4175C11.1714 12.3616 11.1399 12.2977 11.1216 12.2295C11.1033 12.1614 11.0987 12.0903 11.1079 12.0204C11.1171 11.9504 11.14 11.883 11.1752 11.8219C11.2105 11.7608 11.2575 11.7072 11.3134 11.6643C11.3694 11.6213 11.4333 11.5898 11.5014 11.5715C11.5695 11.5533 11.6406 11.5486 11.7106 11.5578C11.7805 11.567 11.848 11.5899 11.9091 11.6252L14.8699 13.3345C14.9723 13.3936 15.0524 13.4849 15.0977 13.5941C15.143 13.7034 15.1509 13.8245 15.1203 13.9388C15.0897 14.053 15.0223 14.154 14.9284 14.226C14.8346 14.2979 14.7196 14.3369 14.6013 14.3369Z" fill="#BC8C44"/>
</g>
<g id="259382928">
<path id="Vector_13" d="M28.7031 27.1961C28.6048 27.1962 28.5083 27.1692 28.4243 27.1182C28.3402 27.0671 28.2718 26.994 28.2264 26.9068C28.18 26.8177 28.1435 26.7238 28.1177 26.6268L27.494 24.2991C27.4757 24.2308 27.4711 24.1596 27.4804 24.0895C27.4896 24.0195 27.5126 23.9519 27.548 23.8907C27.5834 23.8295 27.6305 23.7759 27.6866 23.7329C27.7427 23.6899 27.8067 23.6584 27.875 23.6401C27.9433 23.6219 28.0145 23.6173 28.0845 23.6265C28.1546 23.6358 28.2222 23.6588 28.2834 23.6942C28.3446 23.7296 28.3982 23.7766 28.4412 23.8327C28.4842 23.8888 28.5157 23.9529 28.5339 24.0212L29.1577 26.3489C29.1636 26.3702 29.1717 26.3909 29.1818 26.4106C29.2245 26.4925 29.2454 26.5839 29.2424 26.6762C29.2395 26.7685 29.2128 26.8584 29.165 26.9374C29.1171 27.0163 29.0497 27.0816 28.9693 27.127C28.8889 27.1723 28.7981 27.1961 28.7058 27.1961H28.7031ZM30.2849 26.7718C30.1464 26.772 30.0133 26.7186 29.9132 26.6229C29.8131 26.5272 29.7539 26.3966 29.7478 26.2582C29.7466 26.2356 29.7432 26.2131 29.7377 26.1911L28.9992 23.429C28.9714 23.2946 28.9962 23.1546 29.0684 23.0379C29.1405 22.9211 29.2547 22.8364 29.3874 22.8012C29.52 22.766 29.6611 22.7829 29.7817 22.8484C29.9023 22.914 29.9933 23.0232 30.0358 23.1537L30.7744 25.9158C30.8006 26.0127 30.8159 26.1122 30.82 26.2126C30.8262 26.3548 30.7756 26.4937 30.6795 26.5987C30.5833 26.7037 30.4493 26.7662 30.3071 26.7725L30.2849 26.7718Z" fill="#BC8C44"/>
</g>
<g id="259382352">
<path id="Vector_14" d="M29.9439 30.6061C29.3154 30.6065 28.7104 30.3679 28.2514 29.9386C27.7925 29.5094 27.5139 28.9217 27.4723 28.2947C27.4307 27.6676 27.6291 27.0482 28.0273 26.5621C28.4255 26.076 28.9937 25.7595 29.6166 25.6768C30.2396 25.5941 30.8706 25.7515 31.3818 26.1169C31.8931 26.4824 32.2462 27.0286 32.3695 27.6448C32.4929 28.2609 32.3773 28.901 32.0461 29.4351C31.715 29.9691 31.1931 30.3573 30.5864 30.5208C30.3769 30.5773 30.1608 30.606 29.9439 30.6061ZM29.9506 26.7449C29.7524 26.7448 29.5565 26.787 29.3759 26.8687C29.1953 26.9503 29.0343 27.0696 28.9035 27.2185C28.7727 27.3674 28.6752 27.5425 28.6176 27.732C28.5599 27.9216 28.5433 28.1214 28.569 28.3179C28.5947 28.5144 28.662 28.7031 28.7665 28.8715C28.871 29.0399 29.0102 29.1841 29.1748 29.2943C29.3395 29.4046 29.5258 29.4785 29.7213 29.511C29.9168 29.5435 30.1169 29.5339 30.3084 29.4829C30.6349 29.3958 30.9186 29.193 31.1066 28.9123C31.2947 28.6315 31.3742 28.292 31.3304 27.9569C31.2866 27.6219 31.1225 27.3142 30.8686 27.0912C30.6148 26.8682 30.2885 26.7451 29.9506 26.7449Z" fill="#BC8C44"/>
</g>
</g>
</g>
</g>
</svg>
