<svg width="33" height="32" viewBox="0 0 33 32" fill="none" xmlns="http://www.w3.org/2000/svg">
<g id="Layer_1" clip-path="url(#clip0_1265_1148)">
<path id="Vector" d="M32.0217 15.7151L24.4009 2.92987C24.3183 2.7916 24.1923 2.68439 24.0426 2.62479C23.8929 2.56519 23.7278 2.55653 23.5728 2.60013L9.00073 6.71452C8.85172 6.75645 8.71991 6.84471 8.62439 6.96653L1.03111 16.6203C0.967772 16.7013 0.922139 16.7947 0.897169 16.8944C0.872198 16.9941 0.868445 17.0979 0.886153 17.1992L2.36589 25.6421C2.3829 25.7384 2.41893 25.8304 2.47188 25.9127C2.52483 25.995 2.59363 26.0659 2.67428 26.1213L7.32845 29.3011C7.4502 29.384 7.59412 29.4282 7.7414 29.4279H7.75213L25.9964 29.1435C26.1668 29.1404 26.3308 29.0782 26.4605 28.9676L31.8676 24.3418C31.9484 24.2731 32.0133 24.1876 32.0577 24.0913C32.1022 23.995 32.1252 23.8902 32.1251 23.7841V16.0903C32.125 15.9582 32.0893 15.8286 32.0217 15.7151ZM23.9982 4.16152L30.774 15.5291L25.2568 15.365L21.4711 11.4806L23.9982 4.16152ZM24.443 15.9292L19.6011 24.749L10.9697 23.5855L12.2383 16.7047L20.8157 12.2072L24.443 15.9292ZM23.1086 3.74589L20.513 11.2631L12.0993 15.6749L9.66786 7.54088L23.1086 3.74589ZM8.85966 8.24684L11.2997 16.4098L10.0643 23.1104L2.14618 16.7822L8.85966 8.24684ZM7.43653 28.1921L3.31015 25.3729L2.00365 17.9185L9.7651 24.1215L7.43653 28.1921ZM8.41924 28.4408L10.6571 24.5289L19.7193 25.7503L24.4512 28.1909L8.41924 28.4408ZM26.1353 27.9606L21.4881 25.5639L30.2366 24.4519L26.1353 27.9606ZM31.1485 23.3515L20.7573 24.6722L25.3293 16.3441L31.1485 16.5172V23.3515Z" fill="#BC8C44"/>
</g>
<defs>
<clipPath id="clip0_1265_1148">
<rect width="31.25" height="31.25" fill="white" transform="translate(0.875 0.375)"/>
</clipPath>
</defs>
</svg>
