<svg width="51" height="50" viewBox="0 0 51 50" fill="none" xmlns="http://www.w3.org/2000/svg">
<g id="Layer 7">
<path id="Vector" d="M25.5 4.39686C21.4251 4.39686 17.4417 5.60522 14.0535 7.86912C10.6653 10.133 8.02457 13.3508 6.46517 17.1155C4.90577 20.8803 4.49775 25.0229 5.29273 29.0195C6.08771 33.0161 8.04997 36.6872 10.9314 39.5686C13.8128 42.45 17.4839 44.4123 21.4805 45.2073C25.4771 46.0022 29.6197 45.5942 33.3845 44.0348C37.1492 42.4754 40.367 39.8347 42.6309 36.4465C44.8948 33.0583 46.1031 29.0749 46.1031 25C46.0985 19.5371 43.9263 14.2993 40.0635 10.4365C36.2007 6.57366 30.9629 4.40149 25.5 4.39686ZM25.5 44.5542C21.6325 44.5542 17.8519 43.4074 14.6363 41.2587C11.4206 39.1101 8.91428 36.0561 7.43427 32.4831C5.95426 28.91 5.56702 24.9783 6.32153 21.1852C7.07603 17.392 8.93839 13.9078 11.6731 11.1731C14.4078 8.4384 17.892 6.57605 21.6852 5.82154C25.4783 5.06704 29.41 5.45428 32.9831 6.93429C36.5561 8.4143 39.6101 10.9206 41.7587 14.1363C43.9073 17.3519 45.0542 21.1326 45.0542 25C45.0496 30.1847 42.9879 35.1557 39.3218 38.8218C35.6557 42.4879 30.6847 44.5496 25.5 44.5542ZM29.4073 19.9913C30.2863 19.993 31.1461 19.7338 31.8777 19.2465C32.6092 18.7593 33.1798 18.0658 33.5169 17.2541C33.8541 16.4423 33.9428 15.5487 33.7717 14.6865C33.6007 13.8243 33.1776 13.0323 32.556 12.4108C31.9345 11.7892 31.1424 11.3661 30.2802 11.1951C29.418 11.024 28.5245 11.1127 27.7127 11.4498C26.9009 11.787 26.2075 12.3575 25.7202 13.0891C25.233 13.8207 24.9738 14.6804 24.9755 15.5594C24.9778 16.7341 25.4455 17.86 26.2761 18.6907C27.1067 19.5213 28.2327 19.989 29.4073 19.9913ZM29.4073 12.1678C30.0785 12.1661 30.7351 12.3636 31.294 12.7352C31.8529 13.1068 32.289 13.6359 32.547 14.2555C32.805 14.875 32.8735 15.5573 32.7436 16.2157C32.6137 16.8742 32.2914 17.4794 31.8174 17.9546C31.3434 18.4298 30.7391 18.7537 30.081 18.8852C29.4228 19.0168 28.7404 18.9502 28.1202 18.6937C27.4999 18.4373 26.9697 18.0026 26.5967 17.4446C26.2236 16.8867 26.0245 16.2306 26.0245 15.5594C26.0245 14.6615 26.3806 13.8001 27.0148 13.1643C27.6489 12.5285 28.5093 12.1702 29.4073 12.1678ZM37.8164 26.4248C37.2313 26.4231 36.6589 26.5951 36.1717 26.9191C35.6845 27.2431 35.3044 27.7044 35.0797 28.2447C34.855 28.7849 34.7958 29.3797 34.9095 29.9536C35.0232 30.5276 35.3048 31.0548 35.7185 31.4685C36.1322 31.8823 36.6595 32.1638 37.2334 32.2776C37.8074 32.3913 38.4022 32.332 38.9424 32.1073C39.4826 31.8826 39.944 31.5026 40.2679 31.0154C40.5919 30.5282 40.764 29.9557 40.7622 29.3706C40.7599 28.5901 40.4488 27.8421 39.8969 27.2902C39.3449 26.7382 38.597 26.4271 37.8164 26.4248ZM37.8164 31.2762C37.4392 31.278 37.0699 31.1677 36.7554 30.9593C36.4408 30.751 36.1952 30.454 36.0497 30.1059C35.9041 29.7579 35.8651 29.3745 35.9376 29.0043C36.0102 28.634 36.191 28.2937 36.4571 28.0263C36.7233 27.7589 37.0628 27.5766 37.4327 27.5023C37.8026 27.4281 38.1862 27.4653 38.5349 27.6093C38.8836 27.7532 39.1817 27.9975 39.3915 28.311C39.6013 28.6246 39.7133 28.9934 39.7133 29.3706C39.711 29.8738 39.5107 30.3559 39.1557 30.7125C38.8007 31.0691 38.3196 31.2716 37.8164 31.2762ZM12.965 25.3934C12.4464 25.3934 11.9394 25.5472 11.5081 25.8353C11.0769 26.1235 10.7407 26.533 10.5423 27.0122C10.3438 27.4914 10.2919 28.0186 10.393 28.5273C10.4942 29.036 10.744 29.5033 11.1107 29.87C11.4775 30.2368 11.9447 30.4865 12.4534 30.5877C12.9621 30.6889 13.4894 30.637 13.9686 30.4385C14.4477 30.24 14.8573 29.9039 15.1455 29.4727C15.4336 29.0414 15.5874 28.5344 15.5874 28.0157C15.5874 27.3202 15.3111 26.6532 14.8193 26.1614C14.3275 25.6696 13.6605 25.3934 12.965 25.3934ZM12.965 29.6329C12.6483 29.6329 12.3387 29.5388 12.0754 29.3627C11.8122 29.1865 11.6071 28.9362 11.4863 28.6433C11.3655 28.3505 11.3343 28.0285 11.3968 27.7179C11.4592 27.4074 11.6124 27.1224 11.837 26.899C12.0616 26.6756 12.3475 26.524 12.6583 26.4633C12.9692 26.4025 13.2911 26.4354 13.5833 26.5579C13.8754 26.6803 14.1246 26.8867 14.2993 27.1509C14.4741 27.4151 14.5664 27.7252 14.5647 28.042C14.5647 28.2516 14.5232 28.4592 14.4427 28.6528C14.3622 28.8464 14.2443 29.0222 14.0956 29.17C13.947 29.3179 13.7706 29.4349 13.5765 29.5143C13.3825 29.5937 13.1747 29.634 12.965 29.6329ZM14.2587 16.8357C13.7401 16.8357 13.2331 16.9895 12.8018 17.2776C12.3706 17.5658 12.0345 17.9753 11.836 18.4545C11.6375 18.9337 11.5856 19.461 11.6867 19.9697C11.7879 20.4783 12.0377 20.9456 12.4044 21.3123C12.7712 21.6791 13.2384 21.9289 13.7471 22.03C14.2558 22.1312 14.7831 22.0793 15.2623 21.8808C15.7415 21.6823 16.151 21.3462 16.4392 20.915C16.7273 20.4837 16.8811 19.9767 16.8811 19.458C16.8811 18.7626 16.6048 18.0955 16.113 17.6037C15.6212 17.112 14.9542 16.8357 14.2587 16.8357ZM14.2587 21.0402C13.9451 21.0419 13.638 20.9504 13.3765 20.7772C13.1149 20.604 12.9108 20.357 12.79 20.0676C12.6691 19.7781 12.6371 19.4593 12.6978 19.1515C12.7586 18.8438 12.9095 18.5611 13.1313 18.3393C13.3531 18.1175 13.6358 17.9667 13.9435 17.9059C14.2512 17.8451 14.5701 17.8772 14.8595 17.998C15.149 18.1188 15.396 18.323 15.5692 18.5845C15.7423 18.846 15.8339 19.1531 15.8322 19.4668C15.8299 19.8834 15.6634 20.2823 15.3688 20.5768C15.0742 20.8714 14.6753 21.0379 14.2587 21.0402ZM32.0734 29.1346C30.7537 28.0085 29.0502 27.4354 27.3182 27.535C27.3504 27.3415 27.3651 27.1454 27.3619 26.9493C27.3657 26.4083 27.246 25.8736 27.012 25.3858C26.7781 24.898 26.4359 24.47 26.0117 24.1343C25.5874 23.7987 25.0922 23.5642 24.5636 23.4487C24.0351 23.3332 23.4872 23.3398 22.9616 23.468C22.436 23.5961 21.9465 23.8425 21.5304 24.1882C21.1143 24.534 20.7826 24.9701 20.5604 25.4634C20.3383 25.9567 20.2315 26.4941 20.2483 27.0348C20.2651 27.5756 20.405 28.1054 20.6573 28.5839C21.3234 29.9388 21.5113 31.4793 21.1906 32.9545C21.0376 33.7779 21.0376 34.6224 21.1906 35.4458C21.4447 36.8162 22.1175 38.0741 23.1163 39.0463C24.1151 40.0185 25.3907 40.6571 26.7675 40.8741C27.1007 40.9192 27.4365 40.9425 27.7727 40.9441C29.1472 40.9538 30.4911 40.5385 31.6206 39.7552C32.7501 38.9719 33.6099 37.8588 34.0826 36.5681C34.5552 35.2774 34.6176 33.8722 34.2611 32.5447C33.9045 31.2172 33.1466 30.0323 32.0909 29.1521L32.0734 29.1346ZM31.4703 38.5052C30.5799 39.2749 29.4715 39.7476 28.2997 39.8574C27.1279 39.9672 25.9511 39.7088 24.9331 39.118C23.9152 38.5273 23.1069 37.6337 22.621 36.5618C22.135 35.4899 21.9955 34.293 22.222 33.1381C22.5836 31.4359 22.3588 29.6614 21.5839 28.1032C21.4064 27.7657 21.3082 27.3923 21.2966 27.0113C21.2851 26.6302 21.3605 26.2515 21.5172 25.904C21.674 25.5565 21.9078 25.2492 22.201 25.0056C22.4943 24.762 22.8392 24.5884 23.2096 24.498C23.5799 24.4077 23.966 24.4029 24.3385 24.4841C24.711 24.5653 25.0601 24.7303 25.3592 24.9666C25.6584 25.2029 25.8998 25.5043 26.065 25.8478C26.2303 26.1914 26.3151 26.5681 26.3129 26.9493C26.3158 27.2862 26.2472 27.6198 26.1119 27.9283C26.079 28.0183 26.0714 28.1156 26.0899 28.2096C26.1084 28.3036 26.1523 28.3907 26.2168 28.4615C26.2835 28.5368 26.3682 28.594 26.4629 28.6276C26.5577 28.6612 26.6595 28.6703 26.7587 28.6539C27.5793 28.515 28.4204 28.5582 29.2224 28.7802C30.0245 29.0022 30.768 29.3978 31.4003 29.9388C32.0283 30.4597 32.5349 31.1114 32.8849 31.8484C33.2348 32.5854 33.4195 33.3899 33.4262 34.2058C33.4328 35.0216 33.2612 35.8291 32.9234 36.5717C32.5856 37.3143 32.0896 37.9742 31.4703 38.5052ZM25.5 50C20.5555 50 15.722 48.5338 11.6107 45.7867C7.49951 43.0397 4.2952 39.1352 2.40301 34.5671C0.510817 29.9989 0.0157336 24.9723 0.980364 20.1227C1.94499 15.2732 4.32601 10.8187 7.82232 7.32234C11.3186 3.82603 15.7732 1.44501 20.6227 0.480379C25.4723 -0.484251 30.4989 0.010832 35.0671 1.90302C39.6352 3.79521 43.5397 6.99952 46.2867 11.1108C49.0338 15.222 50.5 20.0555 50.5 25C50.493 31.6283 47.8569 37.9831 43.17 42.67C38.4831 47.3569 32.1283 49.9931 25.5 50ZM25.5 1.04896C20.7629 1.04896 16.1322 2.45367 12.1935 5.08544C8.25477 7.71722 5.18491 11.4579 3.37211 15.8343C1.55931 20.2108 1.085 25.0266 2.00916 29.6726C2.93332 34.3187 5.21443 38.5863 8.56404 41.936C11.9137 45.2856 16.1813 47.5667 20.8274 48.4908C25.4734 49.415 30.2892 48.9407 34.6657 47.1279C39.0421 45.3151 42.7828 42.2452 45.4146 38.3065C48.0463 34.3678 49.451 29.7371 49.451 25C49.4441 18.6499 46.9185 12.5619 42.4283 8.07173C37.9381 3.58154 31.8501 1.0559 25.5 1.04896Z" fill="#BC8C44"/>
</g>
</svg>
