<svg width="33" height="32" viewBox="0 0 33 32" fill="none" xmlns="http://www.w3.org/2000/svg">
<g id="Icons" clip-path="url(#clip0_1265_769)">
<path id="Vector" d="M7.48229 19.9375C7.53418 19.9433 7.58634 19.9463 7.63854 19.9464C7.73327 19.9453 7.82759 19.9338 7.91979 19.912C8.67734 21.4889 9.11779 23.1992 9.21615 24.9459C7.41667 28.4605 7.14271 30.9042 7.12813 31.0521C7.12092 31.1203 7.12726 31.1893 7.14678 31.2551C7.16631 31.3208 7.19863 31.3821 7.2419 31.4353C7.28516 31.4886 7.33852 31.5327 7.3989 31.5653C7.45928 31.5978 7.5255 31.6181 7.59375 31.625C7.6111 31.626 7.62849 31.626 7.64584 31.625C7.7754 31.6257 7.90056 31.578 7.99686 31.4913C8.09317 31.4047 8.15371 31.2852 8.16667 31.1563C8.32184 30.142 8.5837 29.1469 8.94792 28.1875C10.8114 27.7598 12.7136 27.523 14.625 27.4808C14.6584 27.6085 14.7111 27.7304 14.7813 27.8422C15.5547 29.0318 17.2026 31.0938 19.5443 31.537C19.8629 31.5965 20.1863 31.626 20.5104 31.625C22.4984 31.625 24.3354 30.548 25.3313 29.8365C25.6047 29.6415 25.7922 29.3484 25.8546 29.0184C25.917 28.6884 25.8495 28.3471 25.6661 28.0657C24.8917 26.8756 23.2432 24.8136 20.9031 24.3709C18.563 23.9282 16.275 25.2454 15.1219 26.0704C14.9824 26.1699 14.8639 26.2959 14.7729 26.4412C12.9682 26.4648 11.1698 26.6599 9.40209 27.024C10.5065 24.4731 11.9807 22.0989 13.7771 19.9776C14.1797 19.4938 14.5708 19.0401 14.9521 18.6047C16.2325 18.2416 17.553 18.0385 18.8833 18C18.8927 18.238 18.9618 18.4698 19.0844 18.674C19.9443 20.0964 21.7964 22.5802 24.537 23.2318C25.0221 23.3458 25.5189 23.4026 26.0172 23.4011C28.2339 23.4011 30.3036 22.3427 31.4573 21.6204C31.7754 21.4246 32.0028 21.1106 32.0894 20.7472C32.176 20.3839 32.1148 20.0011 31.9193 19.6829C31.0583 18.2605 29.2057 15.7766 26.4667 15.125C23.7276 14.4735 20.9552 15.8542 19.5458 16.7365C19.4509 16.7966 19.3635 16.8677 19.2854 16.9485C18.2393 16.953 17.1957 17.0531 16.1677 17.2474C16.713 16.6516 17.2328 16.0964 17.724 15.573C18.2969 14.9636 18.8438 14.3782 19.3734 13.7907C19.4594 13.806 19.5465 13.814 19.6339 13.8146C19.7353 13.8147 19.8364 13.8049 19.9359 13.7855C21.8068 13.4256 25.2188 12.4198 27.0484 9.73233C28.8781 7.04483 28.5635 3.50368 28.213 1.63025C28.1774 1.43038 28.1022 1.23964 27.9918 1.06924C27.8815 0.898847 27.7382 0.75223 27.5703 0.638009C27.4025 0.523787 27.2135 0.444264 27.0145 0.404113C26.8155 0.363963 26.6105 0.363994 26.4115 0.404205C24.5406 0.764622 21.1287 1.76983 19.299 4.45733C17.4693 7.14483 17.7833 10.6875 18.1339 12.5625C18.1822 12.8161 18.2938 13.0533 18.4583 13.2521C17.9818 13.7771 17.4859 14.3063 16.9635 14.8631C16.1422 15.7386 15.2448 16.699 14.2693 17.8047C14.2625 17.8125 14.2552 17.8198 14.2484 17.8282C13.837 18.2969 13.4151 18.7875 12.9745 19.3141C12.8589 19.4532 12.7573 19.5886 12.6458 19.7266C12.8494 18.0834 12.9583 16.4298 12.9719 14.774C13.1222 14.6924 13.2567 14.5844 13.3688 14.4552C14.4438 13.1865 16.2078 10.6401 15.9547 7.83598C15.7016 5.03181 13.5068 2.84223 12.2245 1.78754C12.0826 1.66884 11.9187 1.5793 11.7421 1.52405C11.5656 1.46881 11.3799 1.44894 11.1956 1.46558C11.0114 1.48222 10.8323 1.53505 10.6685 1.62105C10.5047 1.70704 10.3595 1.8245 10.2411 1.96671C9.16667 3.23441 7.40156 5.77973 7.65521 8.58598C7.90886 11.3922 10.1031 13.5792 11.3854 14.6344C11.5428 14.7624 11.7257 14.8552 11.9219 14.9068C11.8999 17.0972 11.7066 19.2825 11.3438 21.4427C10.875 22.1063 10.4641 22.7485 10.0938 23.3698C9.85621 21.9455 9.41323 20.5632 8.77865 19.2662C8.84927 19.138 8.89752 18.9986 8.92136 18.8542C9.14948 17.4532 9.31823 14.8183 7.88542 12.9167C6.45261 11.0151 3.875 10.4485 2.46459 10.2813C2.13111 10.2403 1.79473 10.3303 1.52629 10.5324C1.25786 10.7344 1.07833 11.0328 1.02552 11.3646C0.797398 12.7657 0.627606 15.4 2.06094 17.3021C3.49427 19.2042 6.0724 19.7698 7.48229 19.9375ZM19.951 25.3271C20.2047 25.3265 20.4579 25.3495 20.7073 25.3959C22.7385 25.7808 24.2396 27.7917 24.7901 28.6349C24.8277 28.6909 24.8418 28.7594 24.8293 28.8257C24.8169 28.8919 24.7788 28.9506 24.7234 28.9891C23.9026 29.5756 21.774 30.8974 19.7391 30.5136C17.8677 30.1594 16.4516 28.4334 15.8078 27.5C17.776 27.5244 19.7095 28.0215 21.4453 28.9495C21.5644 29.0169 21.7052 29.0348 21.8374 28.9992C21.9695 28.9636 22.0823 28.8774 22.1514 28.7593C22.2205 28.6412 22.2404 28.5007 22.2067 28.368C22.173 28.2354 22.0885 28.1214 21.9714 28.0506C20.2497 27.1125 18.3368 26.579 16.3781 26.4907C17.4465 25.7962 18.6786 25.395 19.951 25.3271ZM24.9792 16C25.3982 15.9985 25.816 16.0461 26.224 16.1417C28.5938 16.7058 30.2495 18.9422 31.0266 20.2245C31.0529 20.2663 31.0705 20.313 31.0786 20.3617C31.0866 20.4104 31.0848 20.4603 31.0733 20.5083C31.0618 20.5563 31.0408 20.6016 31.0116 20.6414C30.9824 20.6812 30.9455 20.7148 30.9031 20.7401C29.8797 21.3808 27.2354 22.8068 24.7766 22.2214C22.4057 21.6568 20.75 19.4209 19.974 18.1381C19.9486 18.097 19.9309 18.0516 19.9219 18.0042C22.4751 18.0985 24.9662 18.8174 27.1771 20.098C27.2563 20.1436 27.3461 20.1673 27.4375 20.1667C27.5525 20.1671 27.6644 20.1294 27.7557 20.0596C27.847 19.9897 27.9127 19.8916 27.9424 19.7805C27.9722 19.6695 27.9643 19.5517 27.9201 19.4455C27.8758 19.3394 27.7977 19.2509 27.6979 19.1938C25.6792 18.0269 23.4387 17.2955 21.1203 17.0464C22.3093 16.4062 23.6297 16.0482 24.9792 16ZM19.1563 12.3693C18.8349 10.6537 18.5391 7.42139 20.1578 5.04379C21.7766 2.66618 24.8953 1.75681 26.6089 1.42712C26.6432 1.42026 26.678 1.41677 26.713 1.41671C26.8102 1.41601 26.9053 1.44469 26.9859 1.499C27.0397 1.5366 27.0855 1.5845 27.1207 1.63993C27.1558 1.69537 27.1796 1.75722 27.1906 1.82191C27.512 3.53754 27.8078 6.76983 26.1891 9.14744C24.7583 11.2485 22.1609 12.2016 20.3932 12.623C22.4973 10.1181 24.1621 7.27519 25.3172 4.21462C25.3686 4.0863 25.3669 3.94281 25.3125 3.81574C25.2581 3.68866 25.1554 3.5884 25.0271 3.53702C24.8988 3.48563 24.7553 3.48733 24.6282 3.54173C24.5011 3.59614 24.4009 3.6988 24.3495 3.82712C23.1668 6.98762 21.416 9.9051 19.1833 12.4355C19.1728 12.4141 19.1637 12.392 19.1563 12.3693ZM8.69271 8.49066C8.46511 5.97191 10.2552 3.55941 11.0365 2.63858C11.0676 2.60043 11.1061 2.56889 11.1496 2.5458C11.1931 2.52271 11.2407 2.50854 11.2898 2.50413C11.3388 2.49971 11.3883 2.50514 11.4352 2.52009C11.4821 2.53504 11.5256 2.55921 11.563 2.59118C12.4958 3.35681 14.688 5.40993 14.9172 7.92816C15.1094 10.0537 13.9104 12.0683 12.9589 13.3042C12.9265 10.4666 12.5333 7.64462 11.7885 4.90629C11.768 4.84104 11.7349 4.78047 11.6909 4.72804C11.647 4.67561 11.5932 4.63234 11.5325 4.60071C11.4719 4.56908 11.4056 4.5497 11.3375 4.54369C11.2693 4.53768 11.2007 4.54514 11.1354 4.56566C11.0702 4.58618 11.0096 4.61935 10.9572 4.66328C10.9047 4.70721 10.8615 4.76103 10.8298 4.82168C10.766 4.94416 10.7534 5.08701 10.7948 5.21879C11.5277 7.99326 11.9047 10.8497 11.9167 13.7193C10.7469 12.7323 8.90417 10.8302 8.69271 8.49066ZM2.05417 11.5302C2.06332 11.4694 2.09411 11.4139 2.14089 11.3739C2.18768 11.3339 2.24731 11.3121 2.30886 11.3125C2.31961 11.3118 2.3304 11.3118 2.34115 11.3125C3.34323 11.4313 5.80886 11.8855 7.05313 13.5401C8.0224 14.8266 8.08907 16.6214 7.99479 17.8245C6.87908 15.9843 5.45949 14.3465 3.79636 12.9808C3.74224 12.9378 3.6801 12.906 3.61358 12.8872C3.54705 12.8685 3.47745 12.8632 3.40885 12.8716C3.34025 12.8801 3.27402 12.9021 3.214 12.9364C3.15399 12.9706 3.1014 13.0165 3.0593 13.0713C3.01721 13.1262 2.98644 13.1888 2.9688 13.2556C2.95116 13.3225 2.94699 13.3921 2.95655 13.4606C2.96611 13.529 2.98919 13.5949 3.02446 13.6544C3.05973 13.7138 3.10648 13.7656 3.16198 13.8068C4.85984 15.2291 6.28873 16.9445 7.38073 18.8714C6.27344 18.7151 4.05261 18.2151 2.89167 16.673C1.64792 15.0219 1.89115 12.5271 2.05417 11.5302Z" fill="#BC8C44"/>
</g>
<defs>
<clipPath id="clip0_1265_769">
<rect width="31.25" height="31.25" fill="white" transform="translate(0.875 0.375)"/>
</clipPath>
</defs>
</svg>
