<svg width="35" height="35" viewBox="0 0 35 35" fill="none" xmlns="http://www.w3.org/2000/svg">
<g id="Capa_1">
<g id="Group">
<path id="Vector" d="M17 12.9644C14.8638 12.9644 13.125 14.7026 13.125 16.8394C13.125 17.5718 14.2322 17.5723 14.2322 16.8394C14.2322 15.3132 15.4738 14.0715 17 14.0715C17.733 14.0715 17.7324 12.9644 17 12.9644Z" fill="#BC8C44"/>
<path id="Vector_2" d="M7.03567 4.66064C5.81448 4.66064 4.82137 5.65376 4.82137 6.87495C4.82137 7.60733 5.92852 7.60788 5.92852 6.87495C5.92852 6.26435 6.42508 5.7678 7.03567 5.7678C7.7686 5.7678 7.76805 4.66064 7.03567 4.66064Z" fill="#BC8C44"/>
<path id="Vector_3" d="M5.37522 22.9287C4.15403 22.9287 3.16091 23.9218 3.16091 25.143C3.16091 25.8754 4.26806 25.8759 4.26806 25.143C4.26806 24.5324 4.76462 24.0359 5.37522 24.0359C6.10815 24.0359 6.1076 22.9287 5.37522 22.9287Z" fill="#BC8C44"/>
<path id="Vector_4" d="M28.6252 20.7144C27.4826 20.7144 26.4574 21.2143 25.7472 22.0037L22.3515 19.7423C23.493 17.6465 23.3159 15.032 21.7847 13.0845L24.9655 10.0741C25.5219 10.4965 26.2133 10.7501 26.9645 10.7501C28.7963 10.7501 30.2859 9.26039 30.2859 7.4286C30.2859 5.59682 28.7963 4.10715 26.9645 4.10715C25.1327 4.10715 23.643 5.59682 23.643 7.4286C23.643 8.11006 23.8501 8.7439 24.2032 9.27146L21.0235 12.2807C18.7383 10.2618 15.3909 10.2574 13.1063 12.1628L10.1347 9.19119C10.6196 8.54406 10.9108 7.74414 10.9108 6.87503C10.9108 4.73823 9.172 3 7.03575 3C4.89951 3 3.16073 4.73823 3.16073 6.87503C3.16073 9.01183 4.89951 10.7501 7.03575 10.7501C7.90487 10.7501 8.70478 10.4589 9.35191 9.97394L12.3235 12.9455C10.691 14.903 10.4364 17.6731 11.7511 19.9106L8.17169 22.4681C7.46588 21.7302 6.47443 21.268 5.37503 21.268C3.23878 21.268 1.5 23.0062 1.5 25.143C1.5 27.2798 3.23878 29.018 5.37503 29.018C7.51128 29.018 9.25006 27.2798 9.25006 25.143C9.25006 24.5031 9.09173 23.9008 8.8155 23.3683L12.3944 20.8113C13.3986 21.9738 14.8307 22.7543 16.4465 22.901V27.4077C14.8783 27.6723 13.6787 29.0363 13.6787 30.6793C13.6787 32.5111 15.1683 34.0008 17.0001 34.0008C18.8319 34.0008 20.3216 32.5111 20.3216 30.6793C20.3216 29.0369 19.122 27.6729 17.5537 27.4077V22.901C19.2382 22.7483 20.7257 21.9079 21.7337 20.6624L25.1316 22.9248C24.8897 23.4297 24.7502 23.9927 24.7502 24.5894C24.7502 26.7262 26.4889 28.4645 28.6252 28.4645C30.7614 28.4645 32.5002 26.7262 32.5002 24.5894C32.5002 22.4526 30.7614 20.7144 28.6252 20.7144ZM5.37503 27.9109C3.84882 27.9109 2.60715 26.6692 2.60715 25.143C2.60715 23.6168 3.84882 22.3751 5.37503 22.3751C6.90124 22.3751 8.14291 23.6168 8.14291 25.143C8.14291 26.6692 6.90124 27.9109 5.37503 27.9109ZM26.9645 5.2143C28.1857 5.2143 29.1788 6.20742 29.1788 7.4286C29.1788 8.64979 28.1857 9.64291 26.9645 9.64291C25.7433 9.64291 24.7502 8.64979 24.7502 7.4286C24.7502 6.20742 25.7433 5.2143 26.9645 5.2143ZM4.26788 6.87503C4.26788 5.34882 5.50955 4.10715 7.03575 4.10715C8.56196 4.10715 9.80363 5.34882 9.80363 6.87503C9.80363 8.40179 8.56085 9.64291 7.03575 9.64291C5.50955 9.64291 4.26788 8.40124 4.26788 6.87503ZM19.2144 30.6788C19.2144 31.9 18.2213 32.8931 17.0001 32.8931C15.7789 32.8931 14.7858 31.9 14.7858 30.6788C14.7858 29.4576 15.7789 28.4645 17.0001 28.4645C18.2213 28.4645 19.2144 29.4576 19.2144 30.6788ZM17.0001 21.8216C14.2527 21.8216 12.0179 19.5862 12.0179 16.8394C12.0179 14.0925 14.2527 11.8572 17.0001 11.8572C19.7475 11.8572 21.9823 14.0925 21.9823 16.8394C21.9823 19.5862 19.7475 21.8216 17.0001 21.8216ZM28.6252 27.3573C27.099 27.3573 25.8573 26.1157 25.8573 24.5894C25.8573 23.0632 27.099 21.8216 28.6252 21.8216C30.1514 21.8216 31.3931 23.0632 31.3931 24.5894C31.3931 26.1157 30.1514 27.3573 28.6252 27.3573Z" fill="#BC8C44"/>
<path id="Vector_5" d="M28.6253 22.375C27.4041 22.375 26.4109 23.3681 26.4109 24.5893C26.4109 25.3217 27.5181 25.3222 27.5181 24.5893C27.5181 23.9787 28.0147 23.4822 28.6253 23.4822C29.3582 23.4822 29.3576 22.375 28.6253 22.375Z" fill="#BC8C44"/>
<path id="Vector_6" d="M15.3396 30.6788C15.3396 31.4112 16.4467 31.4117 16.4467 30.6788C16.4467 30.3738 16.6947 30.1252 17.0003 30.1252C17.7332 30.1252 17.7327 29.0181 17.0003 29.0181C16.0847 29.0181 15.3396 29.7632 15.3396 30.6788Z" fill="#BC8C44"/>
<path id="Vector_7" d="M26.4108 7.42879C26.4108 7.12377 26.6588 6.87522 26.9644 6.87522C27.6973 6.87522 27.6968 5.76807 26.9644 5.76807C26.0488 5.76807 25.3037 6.51318 25.3037 7.42879C25.3037 8.16117 26.4108 8.16173 26.4108 7.42879Z" fill="#BC8C44"/>
</g>
</g>
</svg>
