<svg width="100" height="100" viewBox="0 0 100 100" fill="none" xmlns="http://www.w3.org/2000/svg">
<g id="logo 1" clip-path="url(#clip0_1044_3885)">
<path id="Vector" d="M50 100C77.6142 100 100 77.6142 100 50C100 22.3858 77.6142 0 50 0C22.3858 0 0 22.3858 0 50C0 77.6142 22.3858 100 50 100Z" fill="white"/>
<path id="Vector_2" d="M26.7732 46.4438L24.8999 50.4337H25.3459L25.8812 49.3455H28.022L28.468 50.4337H28.914L27.13 46.4438H26.7732ZM26.9517 46.8972L27.8437 48.9828H25.9704L26.9517 46.8972Z" fill="black"/>
<path id="Vector_3" d="M26.7732 46.4438L24.8999 50.4337H25.3459L25.8812 49.3455H28.022L28.468 50.4337H28.914L27.13 46.4438H26.7732ZM26.9517 46.8972L27.8437 48.9828H25.9704L26.9517 46.8972Z" fill="black"/>
<path id="Vector_4" d="M26.7732 46.4438L24.8999 50.4337H25.3459L25.8812 49.3455H28.022L28.468 50.4337H28.914L27.13 46.4438H26.7732ZM26.9517 46.8972L27.8437 48.9828H25.9704L26.9517 46.8972Z" fill="url(#paint0_linear_1044_3885)"/>
<path id="Vector_5" d="M29.5386 46.4419V50.4318H32.2146V50.069H29.9846V46.4419H29.5386Z" fill="black"/>
<path id="Vector_6" d="M29.5386 46.4419V50.4318H32.2146V50.069H29.9846V46.4419H29.5386Z" fill="black"/>
<path id="Vector_7" d="M29.5386 46.4419V50.4318H32.2146V50.069H29.9846V46.4419H29.5386Z" fill="url(#paint1_linear_1044_3885)"/>
<path id="Vector_8" d="M32.2046 46.4419V46.8045H33.6318V50.4318H33.9886V46.8045H35.4158V46.4419H32.2046Z" fill="black"/>
<path id="Vector_9" d="M32.2046 46.4419V46.8045H33.6318V50.4318H33.9886V46.8045H35.4158V46.4419H32.2046Z" fill="black"/>
<path id="Vector_10" d="M32.2046 46.4419V46.8045H33.6318V50.4318H33.9886V46.8045H35.4158V46.4419H32.2046Z" fill="url(#paint2_linear_1044_3885)"/>
<path id="Vector_11" d="M37.1966 46.4438L35.4126 50.4337H35.8586L36.3046 49.3455H38.5347L38.9807 50.4337H39.4267L37.6426 46.4438H37.1966ZM37.4642 46.8972L38.3562 48.9828H36.483L37.4642 46.8972Z" fill="black"/>
<path id="Vector_12" d="M37.1966 46.4438L35.4126 50.4337H35.8586L36.3046 49.3455H38.5347L38.9807 50.4337H39.4267L37.6426 46.4438H37.1966ZM37.4642 46.8972L38.3562 48.9828H36.483L37.4642 46.8972Z" fill="black"/>
<path id="Vector_13" d="M37.1966 46.4438L35.4126 50.4337H35.8586L36.3046 49.3455H38.5347L38.9807 50.4337H39.4267L37.6426 46.4438H37.1966ZM37.4642 46.8972L38.3562 48.9828H36.483L37.4642 46.8972Z" fill="url(#paint3_linear_1044_3885)"/>
<path id="Vector_14" d="M42.5582 46.4419L41.2202 48.7088L39.882 46.4419H39.436L41.0417 49.0715V50.4318H41.3985V49.0715L43.0042 46.4419H42.5582Z" fill="black"/>
<path id="Vector_15" d="M42.5582 46.4419L41.2202 48.7088L39.882 46.4419H39.436L41.0417 49.0715V50.4318H41.3985V49.0715L43.0042 46.4419H42.5582Z" fill="black"/>
<path id="Vector_16" d="M42.5582 46.4419L41.2202 48.7088L39.882 46.4419H39.436L41.0417 49.0715V50.4318H41.3985V49.0715L43.0042 46.4419H42.5582Z" fill="url(#paint4_linear_1044_3885)"/>
<path id="Vector_17" d="M47.915 46.4419L46.3985 49.8876L44.882 46.4419H44.436L46.2202 50.4318H46.5769L48.361 46.4419H47.915Z" fill="black"/>
<path id="Vector_18" d="M47.915 46.4419L46.3985 49.8876L44.882 46.4419H44.436L46.2202 50.4318H46.5769L48.361 46.4419H47.915Z" fill="black"/>
<path id="Vector_19" d="M47.915 46.4419L46.3985 49.8876L44.882 46.4419H44.436L46.2202 50.4318H46.5769L48.361 46.4419H47.915Z" fill="url(#paint5_linear_1044_3885)"/>
<path id="Vector_20" d="M50.0488 46.4419V46.8045H51.4761V50.4318H51.8328V46.8045H53.2601V46.4419H50.0488Z" fill="black"/>
<path id="Vector_21" d="M50.0488 46.4419V46.8045H51.4761V50.4318H51.8328V46.8045H53.2601V46.4419H50.0488Z" fill="black"/>
<path id="Vector_22" d="M50.0488 46.4419V46.8045H51.4761V50.4318H51.8328V46.8045H53.2601V46.4419H50.0488Z" fill="url(#paint6_linear_1044_3885)"/>
<path id="Vector_23" d="M55.0408 46.4438L53.2568 50.4337H53.7028L54.1488 49.3455H56.3788L56.825 50.4337H57.271L55.4868 46.4438H55.0408ZM55.2192 46.8972L56.2005 48.9828H54.3272L55.2192 46.8972Z" fill="black"/>
<path id="Vector_24" d="M55.0408 46.4438L53.2568 50.4337H53.7028L54.1488 49.3455H56.3788L56.825 50.4337H57.271L55.4868 46.4438H55.0408ZM55.2192 46.8972L56.2005 48.9828H54.3272L55.2192 46.8972Z" fill="black"/>
<path id="Vector_25" d="M55.0408 46.4438L53.2568 50.4337H53.7028L54.1488 49.3455H56.3788L56.825 50.4337H57.271L55.4868 46.4438H55.0408ZM55.2192 46.8972L56.2005 48.9828H54.3272L55.2192 46.8972Z" fill="url(#paint7_linear_1044_3885)"/>
<path id="Vector_26" d="M61.6444 46.4419L59.9496 49.3435L58.2547 46.4419H57.8979V50.4318H58.2547V47.258L59.8603 49.8876H60.0388L61.5552 47.258V50.4318H61.9121V46.4419H61.6444Z" fill="black"/>
<path id="Vector_27" d="M61.6444 46.4419L59.9496 49.3435L58.2547 46.4419H57.8979V50.4318H58.2547V47.258L59.8603 49.8876H60.0388L61.5552 47.258V50.4318H61.9121V46.4419H61.6444Z" fill="black"/>
<path id="Vector_28" d="M61.6444 46.4419L59.9496 49.3435L58.2547 46.4419H57.8979V50.4318H58.2547V47.258L59.8603 49.8876H60.0388L61.5552 47.258V50.4318H61.9121V46.4419H61.6444Z" fill="url(#paint8_linear_1044_3885)"/>
<path id="Vector_29" d="M63.6878 50.4549H63.2422V46.5557H63.6878V50.4549Z" fill="black"/>
<path id="Vector_30" d="M63.6878 50.4549H63.2422V46.5557H63.6878V50.4549Z" fill="black"/>
<path id="Vector_31" d="M63.6878 50.4549H63.2422V46.5557H63.6878V50.4549Z" fill="url(#paint9_linear_1044_3885)"/>
<path id="Vector_32" d="M49.2519 50.4549H48.8062V46.5557H49.2519V50.4549Z" fill="black"/>
<path id="Vector_33" d="M49.2519 50.4549H48.8062V46.5557H49.2519V50.4549Z" fill="black"/>
<path id="Vector_34" d="M49.2519 50.4549H48.8062V46.5557H49.2519V50.4549Z" fill="url(#paint10_linear_1044_3885)"/>
<path id="Vector_35" d="M67.7935 46.4419V49.7063L65.2066 46.4419H64.939V50.4318H65.2957V47.1673L67.7935 50.4318H68.1502V46.4419H67.7935Z" fill="black"/>
<path id="Vector_36" d="M67.7935 46.4419V49.7063L65.2066 46.4419H64.939V50.4318H65.2957V47.1673L67.7935 50.4318H68.1502V46.4419H67.7935Z" fill="black"/>
<path id="Vector_37" d="M67.7935 46.4419V49.7063L65.2066 46.4419H64.939V50.4318H65.2957V47.1673L67.7935 50.4318H68.1502V46.4419H67.7935Z" fill="url(#paint11_linear_1044_3885)"/>
<path id="Vector_38" d="M23.7446 54.876L13.4863 76.6389C13.7538 77.0922 14.0215 77.455 14.2891 77.8177L16.0732 79.0872L18.6601 73.4651H33.8245L36.5006 79.2685H40.2471L28.74 54.876H23.7446ZM26.2423 56.9616L32.4865 70.6541H19.9981L26.2423 56.9616Z" fill="black"/>
<path id="Vector_39" d="M23.7446 54.876L13.4863 76.6389C13.7538 77.0922 14.0215 77.455 14.2891 77.8177L16.0732 79.0872L18.6601 73.4651H33.8245L36.5006 79.2685H40.2471L28.74 54.876H23.7446ZM26.2423 56.9616L32.4865 70.6541H19.9981L26.2423 56.9616Z" fill="black"/>
<path id="Vector_40" d="M23.7446 54.876L13.4863 76.6389C13.7538 77.0922 14.0215 77.455 14.2891 77.8177L16.0732 79.0872L18.6601 73.4651H33.8245L36.5006 79.2685H40.2471L28.74 54.876H23.7446ZM26.2423 56.9616L32.4865 70.6541H19.9981L26.2423 56.9616Z" fill="url(#paint12_linear_1044_3885)"/>
<path id="Vector_41" d="M58.3446 54.876L48.4431 76.5482L38.3632 54.876H34.6167L46.213 79.2685H50.584L62.1803 54.876H58.3446Z" fill="black"/>
<path id="Vector_42" d="M58.3446 54.876L48.4431 76.5482L38.3632 54.876H34.6167L46.213 79.2685H50.584L62.1803 54.876H58.3446Z" fill="black"/>
<path id="Vector_43" d="M58.3446 54.876L48.4431 76.5482L38.3632 54.876H34.6167L46.213 79.2685H50.584L62.1803 54.876H58.3446Z" fill="url(#paint13_linear_1044_3885)"/>
<path id="Vector_44" d="M64.3311 54.876V79.2685H84.134L86.5426 76.1855H67.8992V54.876H64.3311Z" fill="black"/>
<path id="Vector_45" d="M64.3311 54.876V79.2685H84.134L86.5426 76.1855H67.8992V54.876H64.3311Z" fill="black"/>
<path id="Vector_46" d="M64.3311 54.876V79.2685H84.134L86.5426 76.1855H67.8992V54.876H64.3311Z" fill="url(#paint14_linear_1044_3885)"/>
<path id="Vector_47" d="M24.807 12.2322C11.2482 21.3908 4.11199 36.8062 4.6472 52.2215C6.16365 76.342 25.7882 95.3844 49.873 95.3844C68.6947 95.3844 84.9296 83.5963 91.709 66.9114C92.601 64.5538 93.3146 62.1054 93.8499 59.5664V59.385C90.0141 71.6267 83.0564 82.5082 71.8169 89.2183C62.629 94.659 51.3894 96.5633 40.8635 94.387C22.9338 90.6692 8.92892 74.9818 7.59089 56.3927C6.25285 38.8918 16.6004 25.4713 31.5864 17.945C45.948 10.7814 62.8965 10.6 78.061 15.5873C68.4271 7.3356 52.4599 8.24238 41.1311 11.5975C33.6381 13.7738 25.8775 17.5823 20.0792 22.9323C16.5111 26.2874 7.05567 35.6273 5.62842 54.307C4.20119 26.0154 26.5911 11.0534 50.4081 7.69831C54.2439 7.15423 58.258 6.51948 62.2721 6.42881C60.4881 5.97542 58.7933 5.6127 57.0091 5.34067L56.7416 5.25V5.15931C54.3331 4.7966 52.0139 4.61523 49.6054 4.61523C40.8635 4.61523 32.2109 7.24491 24.807 12.2322ZM32.1216 19.2145C23.023 23.7484 14.9055 31.3654 11.3374 41.2494C11.2482 41.5214 11.159 41.7934 10.9806 42.0655C18.3844 29.0984 26.3235 22.5695 41.3095 18.761C54.6007 15.406 68.6055 17.4915 80.9155 23.2043C83.0564 24.2018 85.108 25.2899 87.1597 26.4688C80.1126 17.5823 68.2487 13.8644 56.2955 13.8644C47.6429 13.8644 38.9902 15.8594 32.1216 19.2145ZM41.6664 20.1213C31.9432 22.5695 22.3094 28.2823 16.7787 36.9875C26.3235 27.1942 35.1545 22.8417 49.427 22.0255C64.859 21.1188 79.399 27.3755 91.3522 36.9875C91.5306 37.0782 91.709 37.2595 91.709 37.2595C87.6949 27.1035 74.5821 21.9349 64.859 20.0307C61.0233 19.3052 56.8307 18.8518 52.7275 18.8518C48.8918 18.8518 45.1452 19.2145 41.6664 20.1213ZM49.5161 23.3857C39.9715 23.9298 29.9807 27.4663 22.9337 34.2672C27.6615 31.3654 32.3892 28.917 37.8306 27.5569C44.7884 25.7433 51.9246 26.0154 59.0609 27.2849C71.7276 29.7332 82.878 36.8968 92.0659 45.9647C91.5306 44.151 90.817 42.4282 89.925 40.8867C86.3569 34.8112 80.0235 30.7307 73.6901 28.101C67.3568 25.3807 58.704 23.295 51.4786 23.295C50.765 23.295 50.1406 23.295 49.5161 23.3857ZM29.4455 33.451C41.0419 29.4612 49.2485 29.0078 61.9154 33.0883C73.0656 36.7154 82.5211 44.151 90.2818 52.8563C92.5119 41.7028 66.9999 30.2773 58.7933 28.7358C55.9387 28.1917 53.0843 27.9197 50.2298 27.9197C42.9151 27.9197 35.6005 29.6425 29.4455 33.451ZM35.6005 34.3578C45.8589 33.0883 53.3519 34.1764 63.3426 38.7104C72.7089 42.8815 80.5587 49.9545 86.9812 57.9343C90.9062 49.4104 67.4459 36.3528 61.4694 34.4485C57.1876 32.9977 52.6382 32.2722 48.0889 32.2722C43.8071 32.2722 39.6146 32.9069 35.6005 34.3578Z" fill="black"/>
<path id="Vector_48" d="M24.807 12.2322C11.2482 21.3908 4.11199 36.8062 4.6472 52.2215C6.16365 76.342 25.7882 95.3844 49.873 95.3844C68.6947 95.3844 84.9296 83.5963 91.709 66.9114C92.601 64.5538 93.3146 62.1054 93.8499 59.5664V59.385C90.0141 71.6267 83.0564 82.5082 71.8169 89.2183C62.629 94.659 51.3894 96.5633 40.8635 94.387C22.9338 90.6692 8.92892 74.9818 7.59089 56.3927C6.25285 38.8918 16.6004 25.4713 31.5864 17.945C45.948 10.7814 62.8965 10.6 78.061 15.5873C68.4271 7.3356 52.4599 8.24238 41.1311 11.5975C33.6381 13.7738 25.8775 17.5823 20.0792 22.9323C16.5111 26.2874 7.05567 35.6273 5.62842 54.307C4.20119 26.0154 26.5911 11.0534 50.4081 7.69831C54.2439 7.15423 58.258 6.51948 62.2721 6.42881C60.4881 5.97542 58.7933 5.6127 57.0091 5.34067L56.7416 5.25V5.15931C54.3331 4.7966 52.0139 4.61523 49.6054 4.61523C40.8635 4.61523 32.2109 7.24491 24.807 12.2322ZM32.1216 19.2145C23.023 23.7484 14.9055 31.3654 11.3374 41.2494C11.2482 41.5214 11.159 41.7934 10.9806 42.0655C18.3844 29.0984 26.3235 22.5695 41.3095 18.761C54.6007 15.406 68.6055 17.4915 80.9155 23.2043C83.0564 24.2018 85.108 25.2899 87.1597 26.4688C80.1126 17.5823 68.2487 13.8644 56.2955 13.8644C47.6429 13.8644 38.9902 15.8594 32.1216 19.2145ZM41.6664 20.1213C31.9432 22.5695 22.3094 28.2823 16.7787 36.9875C26.3235 27.1942 35.1545 22.8417 49.427 22.0255C64.859 21.1188 79.399 27.3755 91.3522 36.9875C91.5306 37.0782 91.709 37.2595 91.709 37.2595C87.6949 27.1035 74.5821 21.9349 64.859 20.0307C61.0233 19.3052 56.8307 18.8518 52.7275 18.8518C48.8918 18.8518 45.1452 19.2145 41.6664 20.1213ZM49.5161 23.3857C39.9715 23.9298 29.9807 27.4663 22.9337 34.2672C27.6615 31.3654 32.3892 28.917 37.8306 27.5569C44.7884 25.7433 51.9246 26.0154 59.0609 27.2849C71.7276 29.7332 82.878 36.8968 92.0659 45.9647C91.5306 44.151 90.817 42.4282 89.925 40.8867C86.3569 34.8112 80.0235 30.7307 73.6901 28.101C67.3568 25.3807 58.704 23.295 51.4786 23.295C50.765 23.295 50.1406 23.295 49.5161 23.3857ZM29.4455 33.451C41.0419 29.4612 49.2485 29.0078 61.9154 33.0883C73.0656 36.7154 82.5211 44.151 90.2818 52.8563C92.5119 41.7028 66.9999 30.2773 58.7933 28.7358C55.9387 28.1917 53.0843 27.9197 50.2298 27.9197C42.9151 27.9197 35.6005 29.6425 29.4455 33.451ZM35.6005 34.3578C45.8589 33.0883 53.3519 34.1764 63.3426 38.7104C72.7089 42.8815 80.5587 49.9545 86.9812 57.9343C90.9062 49.4104 67.4459 36.3528 61.4694 34.4485C57.1876 32.9977 52.6382 32.2722 48.0889 32.2722C43.8071 32.2722 39.6146 32.9069 35.6005 34.3578Z" fill="black"/>
<path id="Vector_49" d="M24.807 12.2322C11.2482 21.3908 4.11199 36.8062 4.6472 52.2215C6.16365 76.342 25.7882 95.3844 49.873 95.3844C68.6947 95.3844 84.9296 83.5963 91.709 66.9114C92.601 64.5538 93.3146 62.1054 93.8499 59.5664V59.385C90.0141 71.6267 83.0564 82.5082 71.8169 89.2183C62.629 94.659 51.3894 96.5633 40.8635 94.387C22.9338 90.6692 8.92892 74.9818 7.59089 56.3927C6.25285 38.8918 16.6004 25.4713 31.5864 17.945C45.948 10.7814 62.8965 10.6 78.061 15.5873C68.4271 7.3356 52.4599 8.24238 41.1311 11.5975C33.6381 13.7738 25.8775 17.5823 20.0792 22.9323C16.5111 26.2874 7.05567 35.6273 5.62842 54.307C4.20119 26.0154 26.5911 11.0534 50.4081 7.69831C54.2439 7.15423 58.258 6.51948 62.2721 6.42881C60.4881 5.97542 58.7933 5.6127 57.0091 5.34067L56.7416 5.25V5.15931C54.3331 4.7966 52.0139 4.61523 49.6054 4.61523C40.8635 4.61523 32.2109 7.24491 24.807 12.2322ZM32.1216 19.2145C23.023 23.7484 14.9055 31.3654 11.3374 41.2494C11.2482 41.5214 11.159 41.7934 10.9806 42.0655C18.3844 29.0984 26.3235 22.5695 41.3095 18.761C54.6007 15.406 68.6055 17.4915 80.9155 23.2043C83.0564 24.2018 85.108 25.2899 87.1597 26.4688C80.1126 17.5823 68.2487 13.8644 56.2955 13.8644C47.6429 13.8644 38.9902 15.8594 32.1216 19.2145ZM41.6664 20.1213C31.9432 22.5695 22.3094 28.2823 16.7787 36.9875C26.3235 27.1942 35.1545 22.8417 49.427 22.0255C64.859 21.1188 79.399 27.3755 91.3522 36.9875C91.5306 37.0782 91.709 37.2595 91.709 37.2595C87.6949 27.1035 74.5821 21.9349 64.859 20.0307C61.0233 19.3052 56.8307 18.8518 52.7275 18.8518C48.8918 18.8518 45.1452 19.2145 41.6664 20.1213ZM49.5161 23.3857C39.9715 23.9298 29.9807 27.4663 22.9337 34.2672C27.6615 31.3654 32.3892 28.917 37.8306 27.5569C44.7884 25.7433 51.9246 26.0154 59.0609 27.2849C71.7276 29.7332 82.878 36.8968 92.0659 45.9647C91.5306 44.151 90.817 42.4282 89.925 40.8867C86.3569 34.8112 80.0235 30.7307 73.6901 28.101C67.3568 25.3807 58.704 23.295 51.4786 23.295C50.765 23.295 50.1406 23.295 49.5161 23.3857ZM29.4455 33.451C41.0419 29.4612 49.2485 29.0078 61.9154 33.0883C73.0656 36.7154 82.5211 44.151 90.2818 52.8563C92.5119 41.7028 66.9999 30.2773 58.7933 28.7358C55.9387 28.1917 53.0843 27.9197 50.2298 27.9197C42.9151 27.9197 35.6005 29.6425 29.4455 33.451ZM35.6005 34.3578C45.8589 33.0883 53.3519 34.1764 63.3426 38.7104C72.7089 42.8815 80.5587 49.9545 86.9812 57.9343C90.9062 49.4104 67.4459 36.3528 61.4694 34.4485C57.1876 32.9977 52.6382 32.2722 48.0889 32.2722C43.8071 32.2722 39.6146 32.9069 35.6005 34.3578Z" fill="url(#paint15_linear_1044_3885)"/>
</g>
<defs>
<linearGradient id="paint0_linear_1044_3885" x1="24.8999" y1="48.4387" x2="28.914" y2="48.4387" gradientUnits="userSpaceOnUse">
<stop stop-color="#896B35"/>
<stop offset="0.22" stop-color="#A17E48"/>
<stop offset="0.435" stop-color="#C09962"/>
<stop offset="0.566343" stop-color="#DFC28C"/>
<stop offset="0.67" stop-color="#E6CFA3"/>
<stop offset="0.766667" stop-color="#DDC089"/>
<stop offset="0.886667" stop-color="#C09962"/>
<stop offset="1" stop-color="#8C6D37"/>
</linearGradient>
<linearGradient id="paint1_linear_1044_3885" x1="29.5386" y1="48.4368" x2="32.2146" y2="48.4368" gradientUnits="userSpaceOnUse">
<stop stop-color="#896B35"/>
<stop offset="0.22" stop-color="#A17E48"/>
<stop offset="0.435" stop-color="#C09962"/>
<stop offset="0.566343" stop-color="#DFC28C"/>
<stop offset="0.67" stop-color="#E6CFA3"/>
<stop offset="0.766667" stop-color="#DDC089"/>
<stop offset="0.886667" stop-color="#C09962"/>
<stop offset="1" stop-color="#8C6D37"/>
</linearGradient>
<linearGradient id="paint2_linear_1044_3885" x1="32.2046" y1="48.4368" x2="35.4158" y2="48.4368" gradientUnits="userSpaceOnUse">
<stop stop-color="#896B35"/>
<stop offset="0.22" stop-color="#A17E48"/>
<stop offset="0.435" stop-color="#C09962"/>
<stop offset="0.566343" stop-color="#DFC28C"/>
<stop offset="0.67" stop-color="#E6CFA3"/>
<stop offset="0.766667" stop-color="#DDC089"/>
<stop offset="0.886667" stop-color="#C09962"/>
<stop offset="1" stop-color="#8C6D37"/>
</linearGradient>
<linearGradient id="paint3_linear_1044_3885" x1="35.4126" y1="48.4387" x2="39.4267" y2="48.4387" gradientUnits="userSpaceOnUse">
<stop stop-color="#896B35"/>
<stop offset="0.22" stop-color="#A17E48"/>
<stop offset="0.435" stop-color="#C09962"/>
<stop offset="0.566343" stop-color="#DFC28C"/>
<stop offset="0.67" stop-color="#E6CFA3"/>
<stop offset="0.766667" stop-color="#DDC089"/>
<stop offset="0.886667" stop-color="#C09962"/>
<stop offset="1" stop-color="#8C6D37"/>
</linearGradient>
<linearGradient id="paint4_linear_1044_3885" x1="39.436" y1="48.4368" x2="43.0042" y2="48.4368" gradientUnits="userSpaceOnUse">
<stop stop-color="#896B35"/>
<stop offset="0.22" stop-color="#A17E48"/>
<stop offset="0.435" stop-color="#C09962"/>
<stop offset="0.566343" stop-color="#DFC28C"/>
<stop offset="0.67" stop-color="#E6CFA3"/>
<stop offset="0.766667" stop-color="#DDC089"/>
<stop offset="0.886667" stop-color="#C09962"/>
<stop offset="1" stop-color="#8C6D37"/>
</linearGradient>
<linearGradient id="paint5_linear_1044_3885" x1="44.436" y1="48.4368" x2="48.361" y2="48.4368" gradientUnits="userSpaceOnUse">
<stop stop-color="#896B35"/>
<stop offset="0.22" stop-color="#A17E48"/>
<stop offset="0.435" stop-color="#C09962"/>
<stop offset="0.566343" stop-color="#DFC28C"/>
<stop offset="0.67" stop-color="#E6CFA3"/>
<stop offset="0.766667" stop-color="#DDC089"/>
<stop offset="0.886667" stop-color="#C09962"/>
<stop offset="1" stop-color="#8C6D37"/>
</linearGradient>
<linearGradient id="paint6_linear_1044_3885" x1="50.0488" y1="48.4368" x2="53.2601" y2="48.4368" gradientUnits="userSpaceOnUse">
<stop stop-color="#896B35"/>
<stop offset="0.22" stop-color="#A17E48"/>
<stop offset="0.435" stop-color="#C09962"/>
<stop offset="0.566343" stop-color="#DFC28C"/>
<stop offset="0.67" stop-color="#E6CFA3"/>
<stop offset="0.766667" stop-color="#DDC089"/>
<stop offset="0.886667" stop-color="#C09962"/>
<stop offset="1" stop-color="#8C6D37"/>
</linearGradient>
<linearGradient id="paint7_linear_1044_3885" x1="53.2568" y1="48.4387" x2="57.271" y2="48.4387" gradientUnits="userSpaceOnUse">
<stop stop-color="#896B35"/>
<stop offset="0.22" stop-color="#A17E48"/>
<stop offset="0.435" stop-color="#C09962"/>
<stop offset="0.566343" stop-color="#DFC28C"/>
<stop offset="0.67" stop-color="#E6CFA3"/>
<stop offset="0.766667" stop-color="#DDC089"/>
<stop offset="0.886667" stop-color="#C09962"/>
<stop offset="1" stop-color="#8C6D37"/>
</linearGradient>
<linearGradient id="paint8_linear_1044_3885" x1="57.8979" y1="48.4368" x2="61.9121" y2="48.4368" gradientUnits="userSpaceOnUse">
<stop stop-color="#896B35"/>
<stop offset="0.22" stop-color="#A17E48"/>
<stop offset="0.435" stop-color="#C09962"/>
<stop offset="0.566343" stop-color="#DFC28C"/>
<stop offset="0.67" stop-color="#E6CFA3"/>
<stop offset="0.766667" stop-color="#DDC089"/>
<stop offset="0.886667" stop-color="#C09962"/>
<stop offset="1" stop-color="#8C6D37"/>
</linearGradient>
<linearGradient id="paint9_linear_1044_3885" x1="63.2422" y1="48.5053" x2="63.6878" y2="48.5053" gradientUnits="userSpaceOnUse">
<stop stop-color="#896B35"/>
<stop offset="0.22" stop-color="#A17E48"/>
<stop offset="0.435" stop-color="#C09962"/>
<stop offset="0.566343" stop-color="#DFC28C"/>
<stop offset="0.67" stop-color="#E6CFA3"/>
<stop offset="0.766667" stop-color="#DDC089"/>
<stop offset="0.886667" stop-color="#C09962"/>
<stop offset="1" stop-color="#8C6D37"/>
</linearGradient>
<linearGradient id="paint10_linear_1044_3885" x1="48.8062" y1="48.5053" x2="49.2519" y2="48.5053" gradientUnits="userSpaceOnUse">
<stop stop-color="#896B35"/>
<stop offset="0.22" stop-color="#A17E48"/>
<stop offset="0.435" stop-color="#C09962"/>
<stop offset="0.566343" stop-color="#DFC28C"/>
<stop offset="0.67" stop-color="#E6CFA3"/>
<stop offset="0.766667" stop-color="#DDC089"/>
<stop offset="0.886667" stop-color="#C09962"/>
<stop offset="1" stop-color="#8C6D37"/>
</linearGradient>
<linearGradient id="paint11_linear_1044_3885" x1="64.939" y1="48.4368" x2="68.1502" y2="48.4368" gradientUnits="userSpaceOnUse">
<stop stop-color="#896B35"/>
<stop offset="0.22" stop-color="#A17E48"/>
<stop offset="0.435" stop-color="#C09962"/>
<stop offset="0.566343" stop-color="#DFC28C"/>
<stop offset="0.67" stop-color="#E6CFA3"/>
<stop offset="0.766667" stop-color="#DDC089"/>
<stop offset="0.886667" stop-color="#C09962"/>
<stop offset="1" stop-color="#8C6D37"/>
</linearGradient>
<linearGradient id="paint12_linear_1044_3885" x1="13.4863" y1="67.0722" x2="40.2471" y2="67.0722" gradientUnits="userSpaceOnUse">
<stop stop-color="#896B35"/>
<stop offset="0.22" stop-color="#A17E48"/>
<stop offset="0.435" stop-color="#C09962"/>
<stop offset="0.566343" stop-color="#DFC28C"/>
<stop offset="0.67" stop-color="#E6CFA3"/>
<stop offset="0.766667" stop-color="#DDC089"/>
<stop offset="0.886667" stop-color="#C09962"/>
<stop offset="1" stop-color="#8C6D37"/>
</linearGradient>
<linearGradient id="paint13_linear_1044_3885" x1="34.6167" y1="67.0722" x2="62.1803" y2="67.0722" gradientUnits="userSpaceOnUse">
<stop stop-color="#896B35"/>
<stop offset="0.22" stop-color="#A17E48"/>
<stop offset="0.435" stop-color="#C09962"/>
<stop offset="0.566343" stop-color="#DFC28C"/>
<stop offset="0.67" stop-color="#E6CFA3"/>
<stop offset="0.766667" stop-color="#DDC089"/>
<stop offset="0.886667" stop-color="#C09962"/>
<stop offset="1" stop-color="#8C6D37"/>
</linearGradient>
<linearGradient id="paint14_linear_1044_3885" x1="64.3311" y1="67.0722" x2="86.5426" y2="67.0722" gradientUnits="userSpaceOnUse">
<stop stop-color="#896B35"/>
<stop offset="0.22" stop-color="#A17E48"/>
<stop offset="0.435" stop-color="#C09962"/>
<stop offset="0.566343" stop-color="#DFC28C"/>
<stop offset="0.67" stop-color="#E6CFA3"/>
<stop offset="0.766667" stop-color="#DDC089"/>
<stop offset="0.886667" stop-color="#C09962"/>
<stop offset="1" stop-color="#8C6D37"/>
</linearGradient>
<linearGradient id="paint15_linear_1044_3885" x1="4.61914" y1="49.9999" x2="93.8499" y2="49.9999" gradientUnits="userSpaceOnUse">
<stop stop-color="#896B35"/>
<stop offset="0.22" stop-color="#A17E48"/>
<stop offset="0.435" stop-color="#C09962"/>
<stop offset="0.566343" stop-color="#DFC28C"/>
<stop offset="0.67" stop-color="#E6CFA3"/>
<stop offset="0.766667" stop-color="#DDC089"/>
<stop offset="0.886667" stop-color="#C09962"/>
<stop offset="1" stop-color="#8C6D37"/>
</linearGradient>
<clipPath id="clip0_1044_3885">
<rect width="100" height="100" fill="white"/>
</clipPath>
</defs>
</svg>
